<svg  viewBox="0 0 216 104" fill="none" xmlns="http://www.w3.org/2000/svg">
<path d="M52.0853 56.262C51.494 56.7737 50.8098 57.1666 50.07 57.4192C49.1953 59.9987 47.7326 62.3389 45.798 64.2542C43.8633 66.1696 41.5098 67.6075 38.9239 68.4541C36.3379 69.3006 33.5906 69.5326 30.8996 69.1316C28.2086 68.7306 25.6479 67.7077 23.4202 66.1438V68.0813C25.994 69.6726 28.9077 70.6304 31.9226 70.8763C34.9375 71.1221 37.9677 70.649 40.7647 69.4957C43.5618 68.3424 46.046 66.5418 48.0138 64.2415C49.9816 61.9411 51.3769 59.2066 52.0853 56.262Z" fill="black"/>
<path d="M43.4734 37.3376V35.4035C40.9022 33.8232 37.9945 32.8738 34.9872 32.6325C31.9799 32.3913 28.9583 32.865 26.1686 34.0151C23.3789 35.1652 20.9001 36.9591 18.9343 39.2507C16.9685 41.5422 15.5713 44.2664 14.8567 47.2013C15.4493 46.7015 16.1321 46.3201 16.8681 46.0777C17.7433 43.504 19.2039 41.1691 21.1346 39.2574C23.0653 37.3457 25.4133 35.9094 27.9933 35.0618C30.5732 34.2143 33.3146 33.9787 36.0011 34.3736C38.6876 34.7686 41.2456 35.7833 43.4734 37.3376Z" fill="black"/>
<path d="M33.4667 30.6036C36.9601 30.6002 40.3992 31.4691 43.4727 33.1318V31.2059C39.2474 29.1386 34.4875 28.4287 29.844 29.1733C25.2004 29.9179 20.9 32.0806 17.5307 35.3657C14.1615 38.6508 11.8879 42.8978 11.021 47.526C10.1541 52.1542 10.7362 56.9375 12.6877 61.2218V55.5356C12.1304 52.4875 12.2496 49.3539 13.0368 46.357C13.824 43.3602 15.2599 40.5734 17.2428 38.1942C19.2256 35.8151 21.7069 33.9018 24.5106 32.59C27.3144 31.2782 30.372 30.6001 33.4667 30.6036Z" fill="black"/>
<path d="M43.4733 41.8922V39.812C41.6021 38.2367 39.3867 37.1249 37.0065 36.5668C34.6263 36.0086 32.1482 36.0198 29.7731 36.5994C27.398 37.1789 25.1926 38.3106 23.3358 39.9028C21.4789 41.4949 20.0227 43.5026 19.0852 45.7633H20.7593C21.7214 43.7118 23.1648 41.9239 24.9664 40.5519C26.768 39.1799 28.8743 38.2646 31.1056 37.8841C33.3369 37.5036 35.627 37.6692 37.7806 38.3668C39.9341 39.0643 41.8872 40.2731 43.4733 41.89V41.8922Z" fill="black"/>
<path d="M56.303 51.7543C56.3048 48.4538 55.5888 45.1925 54.2046 42.197V47.7422C54.9655 51.6749 54.595 55.7432 53.1363 59.4733C51.6775 63.2035 49.1905 66.4419 45.9649 68.8115C42.7393 71.1812 38.9077 72.5846 34.9164 72.8583C30.9251 73.132 26.9383 72.2647 23.4202 70.3575V72.2834C26.901 73.9943 30.7597 74.789 34.6323 74.5926C38.505 74.3962 42.2638 73.2152 45.5542 71.161C48.8446 69.1068 51.5581 66.247 53.4387 62.8516C55.3194 59.4562 56.3051 55.637 56.303 51.7543Z" fill="black"/>
<path d="M29.2427 4.31944C30.6361 4.19601 32.0449 4.12878 33.4691 4.12878C34.6615 4.12878 35.843 4.17305 37.0138 4.26159C36.3958 3.47084 35.8174 2.77377 35.3199 2.20013C34.7046 2.17809 34.0888 2.16211 33.4691 2.16211C32.7587 2.16211 32.0515 2.18084 31.3482 2.2106C30.7638 2.79471 30.0511 3.50721 29.2427 4.31889V4.31944Z" fill="black"/>
<path d="M47.8495 57.7424H46.1754C45.2111 59.7983 43.7634 61.5895 41.9564 62.9626C40.1493 64.3356 38.0368 65.2495 35.7998 65.6261C33.5628 66.0026 31.268 65.8306 29.1119 65.1246C26.9558 64.4187 25.0028 63.1999 23.4202 61.5727V63.6623C25.2895 65.2471 27.506 66.3677 29.8894 66.9329C32.2728 67.4981 34.7558 67.4921 37.1364 66.9152C39.517 66.3383 41.7281 65.2069 43.5896 63.613C45.4512 62.0191 46.9107 60.0077 47.8495 57.7424Z" fill="black"/>
<path d="M33.4671 19.7909C36.8667 19.7906 40.2444 20.3363 43.4714 21.4071V19.776C36.0132 17.4312 27.9703 17.7759 20.7394 20.7504C13.5086 23.7249 7.54648 29.1412 3.88844 36.0588C0.230401 42.9764 -0.892532 50.9584 0.714644 58.6187C2.32182 66.279 6.55759 73.1337 12.6864 77.9926V75.9929C7.7344 71.7445 4.20151 66.0787 2.56358 59.7585C0.925642 53.4382 1.26134 46.7672 3.52546 40.6438C5.78957 34.5204 9.87335 29.2389 15.2268 25.5105C20.5802 21.7821 26.9461 19.7859 33.4671 19.7909Z" fill="black"/>
<path d="M35.5447 101.301L37.6475 99.1965C36.2717 99.3167 34.8772 99.3828 33.4678 99.3828C32.2597 99.3828 31.0634 99.3372 29.8792 99.2461C30.4972 100.038 31.0755 100.734 31.573 101.31C32.2021 101.333 32.8327 101.349 33.4678 101.349C34.164 101.348 34.8557 101.331 35.5447 101.301Z" fill="black"/>
<path d="M59.8306 51.7541C59.8342 45.8528 57.8521 40.1223 54.2041 35.4873V38.156C57.1408 42.6377 58.5496 47.951 58.2196 53.3011C57.8896 58.6512 55.8387 63.7505 52.3735 67.8363C48.9083 71.9221 44.2152 74.7747 38.9961 75.9675C33.7771 77.1602 28.3126 76.629 23.4202 74.4533V76.1543C27.4244 77.8102 31.7745 78.452 36.0855 78.0229C40.3964 77.5938 44.5353 76.1071 48.1356 73.6944C51.7359 71.2817 54.6866 68.0173 56.7265 64.1904C58.7664 60.3635 59.8325 56.092 59.8306 51.7541Z" fill="black"/>
<path d="M43.4724 44.9794C42.3231 43.2753 40.7587 41.8929 38.9271 40.963C37.0955 40.0331 35.0572 39.5864 33.0052 39.6651C30.9531 39.7438 28.9549 40.3454 27.1998 41.4129C25.4446 42.4804 23.9904 43.9786 22.9746 45.7657L23.4204 58.4667C24.562 60.1838 26.1237 61.5796 27.9565 62.5214C29.7894 63.4631 31.8325 63.9195 33.8913 63.8469C35.9501 63.7743 37.9561 63.1752 39.7183 62.1067C41.4804 61.0382 42.9401 59.5359 43.9584 57.7426L43.4724 44.9794ZM33.467 61.5371C31.535 61.5374 29.6463 60.9639 28.0397 59.8893C26.4331 58.8147 25.1809 57.2872 24.4413 55.5C23.7017 53.7127 23.508 51.746 23.8846 49.8486C24.2613 47.9511 25.1914 46.2081 26.5574 44.8399C27.9234 43.4718 29.6639 42.5399 31.5587 42.1622C33.4536 41.7845 35.4178 41.9779 37.2029 42.718C38.988 43.458 40.5138 44.7115 41.5875 46.3199C42.6611 47.9283 43.2344 49.8193 43.2347 51.7539C43.2321 54.3473 42.2022 56.8338 40.3711 58.6678C38.54 60.5019 36.057 61.5338 33.467 61.5371Z" fill="black"/>
<path d="M63.4231 51.7542C63.4241 47.7146 62.6077 43.7166 61.0233 40.0016C59.4388 36.2866 57.1191 32.9316 54.2041 30.1389V32.461C58.5578 37.1458 61.2005 43.1678 61.7023 49.5475C62.204 55.9271 60.5352 62.2891 56.9674 67.5985C53.3996 72.9079 48.1427 76.8524 42.0518 78.7903C35.9608 80.7282 29.3943 80.5455 23.4202 78.272V80.0111C27.9399 81.6252 32.7809 82.1279 37.5353 81.477C42.2897 80.8261 46.8182 79.0407 50.7394 76.271C54.6606 73.5013 57.8597 69.8286 60.067 65.5622C62.2743 61.2958 63.4253 56.5607 63.4231 51.7558V51.7542Z" fill="black"/>
<path d="M33.4678 26.9194C36.9143 26.9171 40.3229 27.6391 43.4732 29.0387V27.3387C38.0973 25.1242 32.1408 24.7523 26.5318 26.2809C20.9228 27.8096 15.9763 31.1529 12.4628 35.7901C8.94936 40.4273 7.06633 46.0979 7.10709 51.9184C7.14785 57.7389 9.11012 63.3825 12.6882 67.9699V65.2896C10.249 61.5437 8.86593 57.2074 8.68532 52.7392C8.5047 48.2711 9.53321 43.837 11.6621 39.906C13.791 35.9749 16.9411 32.6929 20.7795 30.4069C24.6179 28.1209 29.0018 26.916 33.4678 26.9194Z" fill="black"/>
<path d="M56.9453 79.8714C61.0454 75.7756 64.1972 70.8283 66.1781 65.3789C63.4846 71.845 58.9422 77.3695 53.1219 81.2579C47.3016 85.1463 40.4632 87.225 33.4664 87.2327C30.0701 87.235 26.6914 86.7464 23.4346 85.7818C23.4726 86.4845 23.5722 87.1824 23.7323 87.8675C31.0074 89.8327 38.7057 89.5505 45.8178 87.0581C50.0169 85.5257 53.8194 83.0698 56.9453 79.8714Z" fill="black"/>
<path d="M42.4835 13.4304C42.1543 12.5671 41.7766 11.7232 41.352 10.9028C34.8306 9.64333 28.1029 9.96453 21.7308 11.8396C20.4794 13.0915 19.2263 14.3463 18.0266 15.5475C25.7447 12.2489 34.3138 11.5067 42.4829 13.4293L42.4835 13.4304Z" fill="black"/>
<path d="M40.1048 8.68365C39.615 7.88353 39.1038 7.11483 38.592 6.38635C34.7385 5.94969 30.8451 6.00691 27.006 6.55662C26.191 7.37161 25.3314 8.23289 24.4426 9.12228C29.5942 8.03146 34.9002 7.88211 40.1048 8.68144V8.68365Z" fill="black"/>
<path d="M45.1445 91.6886L48.8316 87.9966C43.9735 90.0688 38.7466 91.1342 33.4661 91.1287C30.4143 91.1297 27.3727 90.775 24.4028 90.0718C24.7332 90.9355 25.1113 91.7801 25.5354 92.6016C28.1486 93.11 30.8045 93.366 33.4666 93.3659C37.4192 93.3672 41.3516 92.8023 45.1445 91.6886Z" fill="black"/>
<path d="M43.4558 17.7182C43.4163 17.016 43.316 16.3185 43.1558 15.6336C35.3084 13.526 26.9888 14.0353 19.4562 17.0845C15.9784 18.5471 12.8284 20.6924 10.1921 23.394L9.94613 23.6392C5.48699 28.0417 2.15802 33.4592 0.243408 39.4293C3.36282 31.0048 9.55774 24.0789 17.5779 20.0493C25.598 16.0198 34.8462 15.1867 43.4558 17.7182Z" fill="black"/>
<path d="M0.93042 65.7957C3.35699 72.3128 7.40378 78.1024 12.688 82.6168V80.4732C7.52807 76.722 3.46771 71.6533 0.93042 65.7957Z" fill="black"/>
<path d="M33.468 23.3893C36.8866 23.3872 40.2771 24.0086 43.4734 25.2232V23.4852C37.0245 21.1899 29.985 21.1765 23.5275 23.4471C17.0699 25.7177 11.5843 30.1353 7.98457 35.9639C4.3848 41.7925 2.8882 48.6802 3.74411 55.4795C4.60001 62.2788 7.75673 68.5791 12.6884 73.331V71.0072C8.94263 66.9616 6.45727 61.9094 5.53703 56.4701C4.61679 51.0309 5.30166 45.441 7.50767 40.3857C9.71368 35.3305 13.3449 31.0297 17.9562 28.0107C22.5675 24.9916 27.9584 23.3855 33.468 23.3893Z" fill="black"/>
<path d="M39.8809 96.9583L42.4382 94.3982C39.4884 95.0187 36.4822 95.331 33.468 95.33C31.2299 95.331 28.995 95.1597 26.7832 94.8175C27.2719 95.6177 27.7842 96.3886 28.2971 97.117C30.0145 97.3132 31.7416 97.412 33.4702 97.413C35.615 97.4116 37.7572 97.2597 39.8809 96.9583Z" fill="black"/>
<path d="M66.1801 38.1305C64.1992 32.6811 61.0474 27.7338 56.9474 23.6381L54.2046 20.8955V23.0077C59.5074 26.8519 63.6505 32.0841 66.1796 38.1305H66.1801Z" fill="black"/>
<path d="M66.9297 51.7548C66.9291 46.6977 65.7837 41.7066 63.5796 37.1566C61.3755 32.6065 58.17 28.616 54.2041 25.4849V27.484C59.83 32.2963 63.6106 38.9169 64.8987 46.2127C66.1868 53.5085 64.9022 61.0258 61.2649 67.4777C57.6276 73.9296 51.8637 78.915 44.9599 81.5805C38.0562 84.246 30.4418 84.4258 23.4202 82.0892V83.7202C28.4328 85.2994 33.7464 85.6745 38.9307 84.815C44.115 83.9554 49.0243 81.8855 53.2611 78.7729C57.4979 75.6602 60.9431 71.5922 63.3178 66.8983C65.6925 62.2044 66.9298 57.0165 66.9297 51.7548Z" fill="black"/>
<path d="M33.2989 0L32.1873 1.1109H34.4078L33.2989 0Z" fill="black"/>
<path d="M32.3569 102.291L33.4686 103.404L34.578 102.291H32.3569Z" fill="black"/>
<path d="M41.2705 51.7551C41.2702 50.2097 40.8124 48.6991 39.9548 47.4143C39.0972 46.1294 37.8784 45.1281 36.4524 44.5369C35.0265 43.9456 33.4575 43.791 31.9438 44.0927C30.4302 44.3943 29.0398 45.1386 27.9486 46.2314C26.8573 47.3242 26.1142 48.7165 25.8132 50.2322C25.5122 51.7479 25.6668 53.3189 26.2574 54.7466C26.8481 56.1744 27.8483 57.3947 29.1316 58.2532C30.4148 59.1117 31.9235 59.57 33.4669 59.57C35.5358 59.5671 37.5192 58.7427 38.982 57.2778C40.4449 55.8128 41.2678 53.8267 41.2705 51.7551ZM31.8809 57.0098C31.6759 57.0115 31.4727 56.9725 31.2829 56.895C31.0931 56.8175 30.9206 56.703 30.7753 56.5583C30.63 56.4136 30.5148 56.2414 30.4364 56.0518C30.358 55.8622 30.3179 55.6589 30.3185 55.4537V48.0576C30.3186 47.7506 30.4096 47.4505 30.58 47.1953C30.7504 46.9401 30.9925 46.7412 31.2757 46.6238C31.559 46.5064 31.8707 46.4757 32.1714 46.5356C32.472 46.5955 32.7482 46.7434 32.965 46.9605L36.6588 50.658C36.8028 50.8021 36.9171 50.9732 36.995 51.1615C37.073 51.3499 37.1131 51.5518 37.1131 51.7556C37.1131 51.9595 37.073 52.1614 36.995 52.3497C36.9171 52.5381 36.8028 52.7092 36.6588 52.8533L32.965 56.5519C32.8238 56.6967 32.6552 56.8118 32.4691 56.8904C32.2829 56.969 32.0829 57.0096 31.8809 57.0098Z" fill="black"/>
<path d="M89.8588 34.8494H86.8079L80.3284 52.7583H84.3815L88.3333 41.9104L92.2357 52.7583H96.3383L89.8588 34.8494Z" fill="black"/>
<path d="M103.802 34.8494H97.7744V52.7583H103.802C106.173 52.7583 108.448 51.8149 110.125 50.1356C111.802 48.4563 112.744 46.1787 112.744 43.8038C112.744 41.429 111.802 39.1514 110.125 37.4721C108.448 35.7928 106.173 34.8494 103.802 34.8494ZM103.802 48.9258H101.6V38.6824H103.802C105.149 38.6964 106.436 39.2422 107.384 40.2012C108.332 41.1601 108.864 42.4549 108.864 43.8041C108.864 45.1533 108.332 46.4481 107.384 47.407C106.436 48.366 105.149 48.9118 103.802 48.9258Z" fill="black"/>
<path d="M144.465 43.7763C144.47 43.2047 144.412 42.6342 144.292 42.0752L144.053 40.8078L136.463 44.8409L142.049 43.7973L141.826 44.9853C141.594 46.1745 141.03 47.2733 140.199 48.1537C139.368 49.0342 138.304 49.6599 137.131 49.9581C135.958 50.2562 134.725 50.2145 133.575 49.8378C132.425 49.461 131.406 48.7648 130.636 47.8302C129.866 46.8956 129.377 45.7612 129.226 44.5591C129.075 43.3569 129.269 42.1367 129.784 41.0405C130.299 39.9443 131.115 39.0172 132.136 38.3675C133.158 37.7177 134.342 37.3719 135.552 37.3704C136.88 37.3645 138.178 37.7697 139.268 38.5304L140.983 36.6849C139.392 35.4644 137.435 34.8186 135.43 34.8523C133.426 34.8861 131.491 35.5975 129.942 36.871C128.392 38.1445 127.318 39.9053 126.894 41.8672C126.47 43.8292 126.72 45.8771 127.605 47.6783C128.49 49.4795 129.958 50.9282 131.769 51.789C133.58 52.6498 135.628 52.8722 137.582 52.42C139.535 51.9678 141.278 50.8675 142.528 49.2981C143.778 47.7286 144.461 45.7821 144.467 43.7747L144.465 43.7763Z" fill="black"/>
<path d="M154.408 35.3794H148.688V52.6232H151.077V47.5205H153.207L156.349 52.6485H159.086L155.775 47.4043L156.684 47.0301C157.981 46.5011 159.054 45.5375 159.72 44.3038C160.386 43.0702 160.603 41.6433 160.334 40.2672C160.065 38.8911 159.327 37.6512 158.247 36.7596C157.166 35.868 155.809 35.3801 154.409 35.3794H154.408ZM154.408 45.0778H151.077V37.7687H154.408C155.376 37.7687 156.304 38.1537 156.989 38.8391C157.673 39.5245 158.058 40.454 158.058 41.4232C158.058 42.3925 157.673 43.322 156.989 44.0074C156.304 44.6927 155.376 45.0778 154.408 45.0778Z" fill="black"/>
<path d="M172.786 34.8494C171.031 34.8547 169.316 35.3805 167.859 36.3605C166.401 37.3405 165.266 38.7308 164.597 40.3559C163.927 41.981 163.753 43.7683 164.097 45.4922C164.441 47.2161 165.287 48.7994 166.528 50.0424C167.77 51.2855 169.351 52.1326 171.073 52.4768C172.794 52.8211 174.579 52.6471 176.202 51.9768C177.825 51.3066 179.214 50.1701 180.192 48.7106C181.171 47.2512 181.696 45.5342 181.702 43.7763C181.704 42.6034 181.475 41.4415 181.028 40.3574C180.58 39.2734 179.924 38.2884 179.095 37.459C178.267 36.6296 177.283 35.9721 176.201 35.5243C175.118 35.0765 173.958 34.8471 172.786 34.8494ZM172.786 50.153C171.522 50.1478 170.287 49.7672 169.238 49.0593C168.189 48.3514 167.373 47.3479 166.894 46.1758C166.415 45.0037 166.293 43.7156 166.545 42.4744C166.797 41.2332 167.411 40.0947 168.309 39.2028C169.207 38.3109 170.349 37.7056 171.59 37.4636C172.832 37.2216 174.117 37.3537 175.284 37.8432C176.451 38.3327 177.446 39.1576 178.144 40.2136C178.843 41.2696 179.213 42.5092 179.208 43.7757C179.207 44.6174 179.04 45.4506 178.716 46.2274C178.393 47.0042 177.919 47.7092 177.322 48.3019C176.725 48.8946 176.017 49.3633 175.239 49.681C174.46 49.9987 173.627 50.1591 172.786 50.153Z" fill="black"/>
<path d="M196.853 35.4048V45.8911C196.853 47.0496 196.394 48.1607 195.576 48.9799C194.757 49.7991 193.648 50.2593 192.491 50.2593C191.334 50.2593 190.224 49.7991 189.406 48.9799C188.588 48.1607 188.129 47.0496 188.129 45.8911V35.4048H185.742V45.8911C185.758 47.6731 186.477 49.3766 187.741 50.6311C189.005 51.8855 190.713 52.5892 192.492 52.5892C194.272 52.5892 195.98 51.8855 197.244 50.6311C198.508 49.3766 199.226 47.6731 199.242 45.8911V35.4048H196.853Z" fill="black"/>
<path d="M209.079 35.4048H203.356V52.6525H205.744V47.4952H209.079C210.671 47.48 212.191 46.8364 213.311 45.7044C214.431 44.5723 215.059 43.0434 215.059 41.45C215.059 39.8566 214.431 38.3277 213.311 37.1957C212.191 36.0636 210.671 35.42 209.079 35.4048ZM209.079 45.1032H205.744V37.7969H209.079C210.047 37.7969 210.976 38.1819 211.66 38.8673C212.345 39.5526 212.729 40.4821 212.729 41.4514C212.729 42.4206 212.345 43.3502 211.66 44.0355C210.976 44.7209 210.047 45.1059 209.079 45.1059V45.1032Z" fill="black"/>
<path d="M88.8331 59.5237H87.2581V68.4082H88.8331V59.5237Z" fill="black"/>
<path d="M96.5015 68.5294L92.1947 62.9087V68.4148H90.6824V59.5237H91.4391L95.6298 64.8842V59.5237H97.1431V68.5294H96.5015Z" fill="black"/>
<path d="M100.534 60.9255V63.0052H103.654V64.3486H100.534V68.4098H98.9573V59.5237H104.802V60.9255H100.534Z" fill="black"/>
<path d="M107.802 59.5237H106.226V68.4082H107.802V59.5237Z" fill="black"/>
<path d="M115.469 68.5294L111.164 62.9087V68.4148H109.65V59.5237H110.407L114.598 64.8842V59.5237H116.111V68.5294H115.469Z" fill="black"/>
<path d="M119.534 59.5237H117.959V68.4082H119.534V59.5237Z" fill="black"/>
<path d="M124.99 60.9255V68.4098H123.415V60.9255H120.592V59.5237H127.94V60.9255H124.99Z" fill="black"/>
<path d="M130.543 60.9255V63.0052H133.475V64.3486H130.543V67.0096H134.567V68.4098H128.97V59.5237H134.634V60.9255H130.543Z" fill="black"/>
<path d="M141.366 59.5237H139.791V68.4082H141.366V59.5237Z" fill="black"/>
<path d="M149.034 68.5294L144.727 62.9087V68.4148H143.215V59.5237H143.971L148.162 64.8842V59.5237H149.676V68.5294H149.034Z" fill="black"/>
<path d="M157.313 68.5294L153.006 62.9087V68.4148H151.494V59.5237H152.25L156.441 64.8842V59.5237H157.955V68.5294H157.313Z" fill="black"/>
<path d="M159.346 63.8907C159.311 62.7325 159.679 61.5981 160.386 60.6809C160.711 60.2564 161.133 59.9158 161.616 59.6873C162.099 59.4588 162.629 59.3491 163.163 59.3672C163.709 59.3319 164.255 59.4203 164.761 59.6261C165.268 59.8318 165.721 60.1494 166.088 60.5553C166.814 61.5093 167.173 62.6933 167.099 63.8907C167.165 65.1166 166.79 66.3256 166.042 67.2984C165.671 67.7241 165.208 68.0591 164.688 68.2778C164.168 68.4964 163.605 68.5929 163.042 68.5597C162.518 68.5888 161.995 68.4905 161.518 68.2731C161.04 68.0557 160.623 67.7258 160.301 67.3116C159.614 66.3077 159.279 65.1048 159.346 63.8902V63.8907ZM160.983 63.8902C160.936 64.7277 161.118 65.5622 161.51 66.3037C161.663 66.5725 161.887 66.7941 162.157 66.9447C162.427 67.0952 162.733 67.169 163.042 67.1579C163.388 67.1778 163.734 67.1118 164.048 66.9659C164.362 66.82 164.636 66.5986 164.844 66.3214C165.303 65.5975 165.52 64.7459 165.463 63.8902C165.463 61.8069 164.696 60.7658 163.163 60.7669C162.843 60.7535 162.525 60.8246 162.242 60.9731C161.958 61.1215 161.718 61.3421 161.546 61.6127C161.138 62.2997 160.942 63.0921 160.983 63.8902Z" fill="black"/>
<path d="M171.8 68.5299H170.931L167.611 59.5237H169.343L171.397 65.5301L173.566 59.5237H175.262L171.8 68.5299Z" fill="black"/>
<path d="M180.46 68.4074L179.812 66.6044H176.771L176.154 68.4074H174.404L177.94 59.4011H178.632L182.198 68.4074H180.46ZM178.286 62.1205L177.22 65.4014H179.354L178.286 62.1205Z" fill="black"/>
<path d="M185.572 60.9255V68.4098H183.997V60.9255H181.175V59.5237H188.521V60.9255H185.572Z" fill="black"/>
<path d="M191.156 59.5237H189.581V68.4082H191.156V59.5237Z" fill="black"/>
<path d="M192.579 63.8907C192.543 62.7324 192.911 61.5978 193.618 60.6809C193.943 60.2566 194.365 59.916 194.848 59.6876C195.331 59.4591 195.861 59.3492 196.395 59.3672C196.94 59.3319 197.486 59.4203 197.993 59.6261C198.499 59.8318 198.953 60.1494 199.319 60.5553C200.046 61.509 200.405 62.6932 200.331 63.8907C200.396 65.1164 200.022 66.3251 199.275 67.2984C198.904 67.724 198.441 68.0589 197.92 68.2775C197.4 68.4961 196.837 68.5927 196.274 68.5597C195.75 68.5892 195.227 68.491 194.75 68.2736C194.273 68.0562 193.855 67.7261 193.534 67.3116C192.848 66.3077 192.512 65.1048 192.579 63.8902L192.579 63.8907ZM194.214 63.8902C194.167 64.7279 194.35 65.5626 194.743 66.3038C194.896 66.5726 195.119 66.7943 195.389 66.9449C195.659 67.0955 195.965 67.1691 196.274 67.1579C196.62 67.1776 196.965 67.1116 197.28 66.9657C197.594 66.8198 197.868 66.5985 198.077 66.3214C198.535 65.5973 198.752 64.7458 198.696 63.8902C198.696 61.8069 197.929 60.7658 196.395 60.7669C196.075 60.7533 195.757 60.8243 195.473 60.9728C195.19 61.1213 194.95 61.342 194.778 61.6127C194.37 62.2993 194.173 63.0918 194.214 63.8902" fill="black"/>
<path d="M207.545 68.5294L203.238 62.9087V68.4148H201.724V59.5237H202.48L206.672 64.8842V59.5237H208.184V68.5294H207.545Z" fill="black"/>
</svg>
