<svg width="67" height="104" viewBox="0 0 67 104" fill="none" xmlns="http://www.w3.org/2000/svg">
<path d="M52.0852 56.262C51.4939 56.7737 50.8097 57.1666 50.0699 57.4192C49.1952 59.9987 47.7325 62.3389 45.7979 64.2542C43.8632 66.1696 41.5097 67.6075 38.9237 68.4541C36.3378 69.3006 33.5905 69.5326 30.8995 69.1316C28.2085 68.7306 25.6477 67.7077 23.42 66.1438V68.0813C25.9938 69.6726 28.9076 70.6304 31.9225 70.8763C34.9374 71.1221 37.9676 70.649 40.7646 69.4957C43.5616 68.3424 46.0459 66.5418 48.0137 64.2415C49.9814 61.9411 51.3768 59.2066 52.0852 56.262Z" fill="white"/>
<path d="M43.4734 37.3376V35.4035C40.9022 33.8232 37.9945 32.8738 34.9872 32.6325C31.9799 32.3913 28.9583 32.865 26.1686 34.0151C23.3789 35.1652 20.9001 36.9591 18.9343 39.2507C16.9685 41.5422 15.5713 44.2664 14.8567 47.2013C15.4493 46.7015 16.1321 46.3201 16.8681 46.0777C17.7433 43.504 19.2039 41.1691 21.1346 39.2574C23.0653 37.3457 25.4133 35.9094 27.9933 35.0618C30.5732 34.2143 33.3146 33.9787 36.0011 34.3736C38.6876 34.7686 41.2456 35.7833 43.4734 37.3376Z" fill="white"/>
<path d="M33.4667 30.6036C36.9601 30.6002 40.3992 31.4691 43.4727 33.1318V31.2059C39.2474 29.1386 34.4875 28.4287 29.844 29.1733C25.2004 29.9179 20.9 32.0806 17.5307 35.3657C14.1615 38.6508 11.8879 42.8978 11.021 47.526C10.1541 52.1542 10.7362 56.9375 12.6877 61.2218V55.5356C12.1304 52.4875 12.2496 49.3539 13.0368 46.357C13.824 43.3602 15.2599 40.5734 17.2428 38.1942C19.2256 35.8151 21.7069 33.9018 24.5106 32.59C27.3144 31.2782 30.372 30.6001 33.4667 30.6036Z" fill="white"/>
<path d="M43.4733 41.8922V39.812C41.6021 38.2367 39.3867 37.1249 37.0065 36.5668C34.6263 36.0086 32.1482 36.0198 29.7731 36.5994C27.398 37.1789 25.1926 38.3106 23.3358 39.9028C21.4789 41.4949 20.0227 43.5026 19.0852 45.7633H20.7593C21.7214 43.7118 23.1648 41.9239 24.9664 40.5519C26.768 39.1799 28.8743 38.2646 31.1056 37.8841C33.3369 37.5036 35.627 37.6692 37.7806 38.3668C39.9341 39.0643 41.8872 40.2731 43.4733 41.89V41.8922Z" fill="white"/>
<path d="M56.3029 51.7543C56.3047 48.4538 55.5886 45.1925 54.2045 42.197V47.7422C54.9654 51.6749 54.5949 55.7432 53.1361 59.4733C51.6774 63.2035 49.1904 66.4419 45.9648 68.8115C42.7392 71.1812 38.9076 72.5846 34.9163 72.8583C30.925 73.132 26.9382 72.2647 23.42 70.3575V72.2834C26.9009 73.9943 30.7596 74.789 34.6322 74.5926C38.5048 74.3962 42.2636 73.2152 45.554 71.161C48.8444 69.1068 51.558 66.247 53.4386 62.8516C55.3192 59.4562 56.305 55.637 56.3029 51.7543Z" fill="white"/>
<path d="M29.2427 4.31944C30.6361 4.19601 32.0449 4.12878 33.4691 4.12878C34.6615 4.12878 35.843 4.17305 37.0138 4.26159C36.3958 3.47084 35.8174 2.77377 35.3199 2.20013C34.7046 2.17809 34.0888 2.16211 33.4691 2.16211C32.7587 2.16211 32.0515 2.18084 31.3482 2.2106C30.7638 2.79471 30.0511 3.50721 29.2427 4.31889V4.31944Z" fill="white"/>
<path d="M47.8494 57.7424H46.1753C45.211 59.7983 43.7633 61.5895 41.9563 62.9626C40.1492 64.3356 38.0367 65.2495 35.7997 65.6261C33.5627 66.0026 31.2678 65.8306 29.1118 65.1246C26.9557 64.4187 25.0027 63.1999 23.42 61.5727V63.6623C25.2894 65.2471 27.5059 66.3677 29.8893 66.9329C32.2727 67.4981 34.7557 67.4921 37.1363 66.9152C39.5169 66.3383 41.7279 65.2069 43.5895 63.613C45.4511 62.0191 46.9106 60.0077 47.8494 57.7424Z" fill="white"/>
<path d="M33.4671 19.7909C36.8667 19.7906 40.2444 20.3363 43.4714 21.4071V19.776C36.0132 17.4312 27.9703 17.7759 20.7394 20.7504C13.5086 23.7249 7.54648 29.1412 3.88844 36.0588C0.230401 42.9764 -0.892532 50.9584 0.714644 58.6187C2.32182 66.279 6.55759 73.1337 12.6864 77.9926V75.9929C7.7344 71.7445 4.20151 66.0787 2.56358 59.7585C0.925642 53.4382 1.26134 46.7672 3.52546 40.6438C5.78957 34.5204 9.87335 29.2389 15.2268 25.5105C20.5802 21.7821 26.9461 19.7859 33.4671 19.7909Z" fill="white"/>
<path d="M35.5447 101.301L37.6475 99.1965C36.2717 99.3167 34.8772 99.3828 33.4678 99.3828C32.2597 99.3828 31.0634 99.3372 29.8792 99.2461C30.4972 100.038 31.0755 100.734 31.573 101.31C32.2021 101.333 32.8327 101.349 33.4678 101.349C34.164 101.348 34.8557 101.331 35.5447 101.301Z" fill="white"/>
<path d="M59.8304 51.7541C59.8341 45.8528 57.852 40.1223 54.204 35.4873V38.156C57.1407 42.6377 58.5495 47.951 58.2195 53.3011C57.8895 58.6512 55.8385 63.7505 52.3734 67.8363C48.9082 71.9221 44.215 74.7747 38.996 75.9675C33.7769 77.1602 28.3125 76.629 23.42 74.4533V76.1543C27.4242 77.8102 31.7744 78.452 36.0853 78.0229C40.3963 77.5938 44.5352 76.1071 48.1355 73.6944C51.7358 71.2817 54.6865 68.0173 56.7264 64.1904C58.7663 60.3635 59.8324 56.092 59.8304 51.7541Z" fill="white"/>
<path d="M43.4726 44.9794C42.3232 43.2753 40.7588 41.8929 38.9272 40.963C37.0956 40.0331 35.0574 39.5864 33.0053 39.6651C30.9532 39.7438 28.9551 40.3454 27.1999 41.4129C25.4447 42.4804 23.9905 43.9786 22.9747 45.7657L23.4205 58.4667C24.5622 60.1838 26.1238 61.5796 27.9566 62.5214C29.7895 63.4631 31.8326 63.9195 33.8914 63.8469C35.9502 63.7743 37.9562 63.1752 39.7184 62.1067C41.4806 61.0382 42.9403 59.5359 43.9585 57.7426L43.4726 44.9794ZM33.4672 61.5371C31.5351 61.5374 29.6464 60.9639 28.0398 59.8893C26.4332 58.8147 25.181 57.2872 24.4414 55.5C23.7018 53.7127 23.5081 51.746 23.8848 49.8486C24.2614 47.9511 25.1916 46.2081 26.5575 44.8399C27.9235 43.4718 29.664 42.5399 31.5589 42.1622C33.4537 41.7845 35.4179 41.9779 37.203 42.718C38.9881 43.458 40.514 44.7115 41.5876 46.3199C42.6613 47.9283 43.2345 49.8193 43.2348 51.7539C43.2322 54.3473 42.2024 56.8338 40.3712 58.6678C38.5401 60.5019 36.0572 61.5338 33.4672 61.5371Z" fill="white"/>
<path d="M63.4229 51.7542C63.424 47.7146 62.6076 43.7166 61.0231 40.0016C59.4387 36.2866 57.1189 32.9316 54.2039 30.1389V32.461C58.5577 37.1458 61.2004 43.1678 61.7021 49.5475C62.2039 55.9271 60.5351 62.2891 56.9673 67.5985C53.3995 72.9079 48.1426 76.8524 42.0517 78.7903C35.9607 80.7282 29.3941 80.5455 23.42 78.272V80.0111C27.9398 81.6252 32.7808 82.1279 37.5352 81.477C42.2896 80.8261 46.8181 79.0407 50.7393 76.271C54.6605 73.5013 57.8595 69.8286 60.0669 65.5622C62.2742 61.2958 63.4252 56.5607 63.4229 51.7558V51.7542Z" fill="white"/>
<path d="M33.4678 26.9194C36.9143 26.9171 40.3229 27.6391 43.4732 29.0387V27.3387C38.0973 25.1242 32.1408 24.7523 26.5318 26.2809C20.9228 27.8096 15.9763 31.1529 12.4628 35.7901C8.94936 40.4273 7.06633 46.0979 7.10709 51.9184C7.14785 57.7389 9.11012 63.3825 12.6882 67.9699V65.2896C10.249 61.5437 8.86593 57.2074 8.68532 52.7392C8.5047 48.2711 9.53321 43.837 11.6621 39.906C13.791 35.9749 16.9411 32.6929 20.7795 30.4069C24.6179 28.1209 29.0018 26.916 33.4678 26.9194Z" fill="white"/>
<path d="M56.9453 79.8714C61.0454 75.7756 64.1972 70.8283 66.1781 65.3789C63.4846 71.845 58.9422 77.3695 53.1219 81.2579C47.3016 85.1463 40.4632 87.225 33.4664 87.2327C30.0701 87.235 26.6914 86.7464 23.4346 85.7818C23.4726 86.4845 23.5722 87.1824 23.7323 87.8675C31.0074 89.8327 38.7057 89.5505 45.8178 87.0581C50.0169 85.5257 53.8194 83.0698 56.9453 79.8714Z" fill="white"/>
<path d="M42.4836 13.4304C42.1545 12.5671 41.7767 11.7232 41.3521 10.9028C34.8307 9.64333 28.1031 9.96453 21.7309 11.8396C20.4795 13.0915 19.2264 14.3463 18.0267 15.5475C25.7449 12.2489 34.3139 11.5067 42.483 13.4293L42.4836 13.4304Z" fill="white"/>
<path d="M40.1047 8.68365C39.6149 7.88353 39.1036 7.11483 38.5918 6.38635C34.7383 5.94969 30.8449 6.00691 27.0059 6.55662C26.1909 7.37161 25.3313 8.23289 24.4425 9.12228C29.594 8.03146 34.9001 7.88211 40.1047 8.68144V8.68365Z" fill="white"/>
<path d="M45.1445 91.6886L48.8316 87.9966C43.9735 90.0688 38.7466 91.1342 33.4661 91.1287C30.4143 91.1297 27.3727 90.775 24.4028 90.0718C24.7332 90.9355 25.1113 91.7801 25.5354 92.6016C28.1486 93.11 30.8045 93.366 33.4666 93.3659C37.4192 93.3672 41.3516 92.8023 45.1445 91.6886Z" fill="white"/>
<path d="M43.4558 17.7182C43.4163 17.016 43.316 16.3185 43.1558 15.6336C35.3084 13.526 26.9888 14.0353 19.4562 17.0845C15.9784 18.5471 12.8284 20.6924 10.1921 23.394L9.94613 23.6392C5.48699 28.0417 2.15802 33.4592 0.243408 39.4293C3.36282 31.0048 9.55774 24.0789 17.5779 20.0493C25.598 16.0198 34.8462 15.1867 43.4558 17.7182Z" fill="white"/>
<path d="M0.93042 65.7957C3.35699 72.3128 7.40378 78.1024 12.688 82.6168V80.4732C7.52807 76.722 3.46771 71.6533 0.93042 65.7957Z" fill="white"/>
<path d="M33.468 23.3893C36.8866 23.3872 40.2771 24.0086 43.4734 25.2232V23.4852C37.0245 21.1899 29.985 21.1765 23.5275 23.4471C17.0699 25.7177 11.5843 30.1353 7.98457 35.9639C4.3848 41.7925 2.8882 48.6802 3.74411 55.4795C4.60001 62.2788 7.75673 68.5791 12.6884 73.331V71.0072C8.94263 66.9616 6.45727 61.9094 5.53703 56.4701C4.61679 51.0309 5.30166 45.441 7.50767 40.3857C9.71368 35.3305 13.3449 31.0297 17.9562 28.0107C22.5675 24.9916 27.9584 23.3855 33.468 23.3893Z" fill="white"/>
<path d="M39.8807 96.9583L42.4381 94.3982C39.4883 95.0187 36.4821 95.331 33.4678 95.33C31.2298 95.331 28.9949 95.1597 26.7831 94.8175C27.2718 95.6177 27.7841 96.3886 28.297 97.117C30.0144 97.3132 31.7415 97.412 33.47 97.413C35.6149 97.4116 37.7571 97.2597 39.8807 96.9583Z" fill="white"/>
<path d="M66.18 38.1305C64.1991 32.6811 61.0473 27.7338 56.9473 23.6381L54.2045 20.8955V23.0077C59.5072 26.8519 63.6504 32.0841 66.1795 38.1305H66.18Z" fill="white"/>
<path d="M66.9296 51.7548C66.929 46.6977 65.7836 41.7066 63.5795 37.1566C61.3754 32.6065 58.1699 28.616 54.2039 25.4849V27.484C59.8299 32.2963 63.6105 38.9169 64.8986 46.2127C66.1867 53.5085 64.9021 61.0258 61.2648 67.4777C57.6275 73.9296 51.8636 78.915 44.9598 81.5805C38.056 84.246 30.4416 84.4258 23.42 82.0892V83.7202C28.4327 85.2994 33.7463 85.6745 38.9306 84.815C44.1149 83.9554 49.0242 81.8855 53.261 78.7729C57.4978 75.6602 60.943 71.5922 63.3177 66.8983C65.6923 62.2044 66.9297 57.0165 66.9296 51.7548Z" fill="white"/>
<path d="M33.2989 0L32.1873 1.1109H34.4078L33.2989 0Z" fill="white"/>
<path d="M32.3568 102.291L33.4685 103.404L34.5779 102.291H32.3568Z" fill="white"/>
<path d="M41.2705 51.7551C41.2702 50.2097 40.8124 48.6991 39.9548 47.4143C39.0972 46.1294 37.8784 45.1281 36.4524 44.5369C35.0265 43.9456 33.4575 43.791 31.9438 44.0927C30.4302 44.3943 29.0398 45.1386 27.9486 46.2314C26.8573 47.3242 26.1142 48.7165 25.8132 50.2322C25.5122 51.7479 25.6668 53.3189 26.2574 54.7466C26.8481 56.1744 27.8483 57.3947 29.1316 58.2532C30.4148 59.1117 31.9235 59.57 33.4669 59.57C35.5358 59.5671 37.5192 58.7427 38.982 57.2778C40.4449 55.8128 41.2678 53.8267 41.2705 51.7551ZM31.8809 57.0098C31.6759 57.0115 31.4727 56.9725 31.2829 56.895C31.0931 56.8175 30.9206 56.703 30.7753 56.5583C30.63 56.4136 30.5148 56.2414 30.4364 56.0518C30.358 55.8622 30.3179 55.6589 30.3185 55.4537V48.0576C30.3186 47.7506 30.4096 47.4505 30.58 47.1953C30.7504 46.9401 30.9925 46.7412 31.2757 46.6238C31.559 46.5064 31.8707 46.4757 32.1714 46.5356C32.472 46.5955 32.7482 46.7434 32.965 46.9605L36.6588 50.658C36.8028 50.8021 36.9171 50.9732 36.995 51.1615C37.073 51.3499 37.1131 51.5518 37.1131 51.7556C37.1131 51.9595 37.073 52.1614 36.995 52.3497C36.9171 52.5381 36.8028 52.7092 36.6588 52.8533L32.965 56.5519C32.8238 56.6967 32.6552 56.8118 32.4691 56.8904C32.2829 56.969 32.0829 57.0096 31.8809 57.0098Z" fill="white"/>
</svg>
