<svg  viewBox="0 0 127 61" fill="none" xmlns="http://www.w3.org/2000/svg">
<g clip-path="url(#clip0_281_489)">
<path d="M30.75 33.19C30.4009 33.4919 29.9969 33.7236 29.5602 33.8726C29.0438 35.3944 28.1803 36.7749 27.0381 37.9048C25.8959 39.0347 24.5064 39.883 22.9797 40.3824C21.453 40.8818 19.8311 41.0187 18.2424 40.7821C16.6537 40.5456 15.1418 39.9421 13.8267 39.0195V40.1625C15.3462 41.1012 17.0664 41.6663 18.8464 41.8113C20.6263 41.9563 22.4152 41.6772 24.0665 40.9969C25.7178 40.3165 27.1845 39.2543 28.3462 37.8973C29.508 36.5403 30.3317 34.9271 30.75 33.19Z" fill="white"/>
<path d="M25.6648 22.026V20.885C24.1468 19.9528 22.4301 19.3927 20.6547 19.2503C18.8792 19.108 17.0953 19.3875 15.4483 20.066C13.8014 20.7444 12.3379 21.8027 11.1774 23.1545C10.0168 24.5064 9.19193 26.1134 8.77002 27.8448C9.11987 27.5499 9.52298 27.3249 9.95753 27.182C10.4742 25.6637 11.3365 24.2863 12.4764 23.1585C13.6162 22.0307 15.0024 21.1834 16.5256 20.6834C18.0487 20.1835 19.6672 20.0445 21.2532 20.2775C22.8393 20.5104 24.3495 21.109 25.6648 22.026Z" fill="white"/>
<path d="M19.7577 18.0536C21.8201 18.0516 23.8505 18.5642 25.665 19.545V18.4089C23.1705 17.1893 20.3603 16.7706 17.6189 17.2098C14.8774 17.6491 12.3385 18.9249 10.3494 20.8628C8.36023 22.8008 7.01798 25.3062 6.50619 28.0365C5.99439 30.7668 6.33805 33.5886 7.49015 36.116V32.7615C7.16115 30.9634 7.23152 29.1148 7.69626 27.3469C8.161 25.579 9.00874 23.935 10.1794 22.5315C11.35 21.128 12.8149 19.9993 14.4702 19.2254C16.1255 18.4516 17.9306 18.0515 19.7577 18.0536Z" fill="white"/>
<path d="M25.6647 24.7134V23.4862C24.56 22.5569 23.2521 21.901 21.8468 21.5718C20.4416 21.2425 18.9786 21.2491 17.5764 21.591C16.1742 21.9329 14.8722 22.6005 13.7759 23.5398C12.6797 24.479 11.82 25.6634 11.2665 26.997H12.2548C12.8228 25.7868 13.675 24.7321 14.7386 23.9227C15.8022 23.1133 17.0458 22.5734 18.3631 22.3489C19.6804 22.1245 21.0324 22.2221 22.3038 22.6336C23.5753 23.0451 24.7283 23.7582 25.6647 24.7121V24.7134Z" fill="white"/>
<path d="M33.2398 30.5312C33.2408 28.5842 32.8181 26.6602 32.0009 24.8931V28.1644C32.4501 30.4844 32.2314 32.8844 31.3702 35.0848C30.509 37.2853 29.0407 39.1957 27.1364 40.5937C25.232 41.9916 22.97 42.8195 20.6136 42.9809C18.2572 43.1424 15.9035 42.6308 13.8264 41.5057V42.6418C15.8814 43.6511 18.1595 44.1199 20.4459 44.0041C22.7322 43.8882 24.9513 43.1915 26.8939 41.9797C28.8365 40.7678 30.4385 39.0808 31.5488 37.0778C32.659 35.0747 33.241 32.8217 33.2398 30.5312Z" fill="white"/>
<path d="M17.2638 2.54858C18.0864 2.47576 18.9182 2.4361 19.759 2.4361C20.463 2.4361 21.1605 2.46221 21.8517 2.51444C21.4868 2.04796 21.1454 1.63674 20.8516 1.29834C20.4884 1.28534 20.1248 1.27591 19.759 1.27591C19.3396 1.27591 18.9221 1.28697 18.5069 1.30452C18.1618 1.6491 17.7411 2.06942 17.2638 2.54825V2.54858Z" fill="white"/>
<path d="M28.2492 34.0641H27.2609C26.6916 35.2769 25.8369 36.3336 24.7701 37.1436C23.7032 37.9536 22.456 38.4927 21.1354 38.7149C19.8147 38.937 18.4598 38.8355 17.1869 38.419C15.9141 38.0026 14.761 37.2836 13.8267 36.3237V37.5564C14.9303 38.4913 16.2388 39.1523 17.646 39.4858C19.0531 39.8192 20.519 39.8156 21.9245 39.4753C23.3299 39.135 24.6353 38.4676 25.7343 37.5273C26.8333 36.587 27.695 35.4004 28.2492 34.0641Z" fill="white"/>
<path d="M19.7577 11.675C21.7648 11.6748 23.7589 11.9967 25.664 12.6284V11.6662C21.2608 10.283 16.5125 10.4863 12.2435 12.241C7.97459 13.9958 4.45468 17.191 2.29505 21.2718C0.135414 25.3527 -0.527543 30.0615 0.421301 34.5804C1.37014 39.0994 3.87086 43.1432 7.48919 46.0096V44.8299C4.56562 42.3237 2.47988 38.9813 1.51287 35.2528C0.54587 31.5244 0.744059 27.589 2.08075 23.9766C3.41743 20.3643 5.82841 17.2486 8.98896 15.0491C12.1495 12.8497 15.9078 11.6721 19.7577 11.675Z" fill="white"/>
<path d="M20.9839 59.7592L22.2253 58.5177C21.4131 58.5886 20.5898 58.6276 19.7577 58.6276C19.0444 58.6276 18.3382 58.6007 17.639 58.547C18.0039 59.0141 18.3454 59.4247 18.6391 59.7644C19.0104 59.778 19.3828 59.7875 19.7577 59.7875C20.1687 59.7871 20.5771 59.7767 20.9839 59.7592Z" fill="white"/>
<path d="M35.3226 30.5309C35.3248 27.0495 34.1546 23.669 32.0008 20.9347V22.5091C33.7347 25.1529 34.5664 28.2873 34.3715 31.4435C34.1767 34.5996 32.9659 37.6078 30.9201 40.0181C28.8743 42.4284 26.1036 44.1113 23.0224 44.8149C19.9412 45.5185 16.7151 45.2052 13.8267 43.9216V44.9251C16.1907 45.902 18.7589 46.2806 21.304 46.0274C23.8491 45.7743 26.2926 44.8973 28.4181 43.474C30.5437 42.0506 32.2857 40.1249 33.49 37.8674C34.6943 35.6098 35.3238 33.0899 35.3226 30.5309Z" fill="white"/>
<path d="M25.6647 26.5344C24.9862 25.5292 24.0626 24.7137 22.9812 24.1651C21.8999 23.6165 20.6966 23.353 19.4851 23.3994C18.2735 23.4459 17.0939 23.8007 16.0577 24.4305C15.0215 25.0602 14.1629 25.944 13.5632 26.9983L13.8264 34.4909C14.5004 35.5039 15.4224 36.3273 16.5044 36.8829C17.5865 37.4384 18.7927 37.7076 20.0082 37.6648C21.2237 37.622 22.408 37.2686 23.4483 36.6382C24.4887 36.0079 25.3505 35.1216 25.9516 34.0638L25.6647 26.5344ZM19.7578 36.3022C18.6171 36.3024 17.502 35.9641 16.5535 35.3301C15.6051 34.6962 14.8658 33.7951 14.4291 32.7408C13.9925 31.6864 13.8781 30.5262 14.1005 29.4069C14.3229 28.2875 14.872 27.2593 15.6784 26.4522C16.4849 25.6451 17.5124 25.0953 18.6311 24.8725C19.7498 24.6497 20.9094 24.7638 21.9633 25.2004C23.0172 25.637 23.918 26.3764 24.5519 27.3252C25.1858 28.274 25.5242 29.3896 25.5244 30.5309C25.5228 32.0608 24.9148 33.5276 23.8338 34.6096C22.7527 35.6915 21.2868 36.3003 19.7578 36.3022Z" fill="white"/>
<path d="M37.4435 30.5312C37.4442 28.1482 36.9622 25.7897 36.0268 23.5981C35.0913 21.4065 33.7218 19.4273 32.0008 17.7799V19.1497C34.5712 21.9134 36.1314 25.4659 36.4276 29.2294C36.7238 32.9929 35.7386 36.746 33.6323 39.8781C31.5259 43.0103 28.4223 45.3372 24.8264 46.4804C21.2304 47.6237 17.3536 47.5159 13.8267 46.1747V47.2006C16.495 48.1528 19.3531 48.4494 22.16 48.0654C24.9669 47.6814 27.6404 46.6282 29.9554 44.9943C32.2704 43.3604 34.159 41.1937 35.4622 38.6769C36.7654 36.1601 37.4449 33.3667 37.4435 30.5322V30.5312Z" fill="white"/>
<path d="M19.7578 15.8805C21.7925 15.8791 23.8049 16.305 25.6648 17.1307V16.1279C22.4909 14.8215 18.9744 14.6021 15.6629 15.5038C12.3515 16.4056 9.43114 18.3779 7.35687 21.1135C5.2826 23.8491 4.1709 27.1943 4.19496 30.628C4.21903 34.0616 5.37751 37.3909 7.48991 40.0971V38.516C6.04985 36.3062 5.23335 33.7481 5.12671 31.1122C5.02008 28.4763 5.62729 25.8606 6.88415 23.5416C8.141 21.2225 10.0008 19.2864 12.2669 17.9378C14.533 16.5893 17.1211 15.8785 19.7578 15.8805Z" fill="white"/>
<path d="M33.6193 47.1181C36.0398 44.7019 37.9006 41.7833 39.0701 38.5686C37.4799 42.3832 34.7982 45.6422 31.362 47.936C27.9258 50.2299 23.8886 51.4562 19.7578 51.4607C17.7527 51.4621 15.7579 51.1738 13.8352 50.6048C13.8577 51.0193 13.9165 51.431 14.011 51.8352C18.306 52.9945 22.851 52.828 27.0498 51.3577C29.5289 50.4537 31.7738 49.0049 33.6193 47.1181Z" fill="white"/>
<path d="M25.0809 7.92269C24.8866 7.41341 24.6636 6.91558 24.4129 6.43158C20.5628 5.68859 16.591 5.87807 12.829 6.9842C12.0902 7.72277 11.3504 8.46296 10.6421 9.17162C15.1987 7.22567 20.2577 6.78784 25.0806 7.92204L25.0809 7.92269Z" fill="white"/>
<path d="M23.6763 5.12315C23.3871 4.65115 23.0853 4.19767 22.7832 3.76792C20.5081 3.51033 18.2096 3.54409 15.9431 3.86837C15.4619 4.34916 14.9544 4.85724 14.4297 5.38191C17.471 4.73841 20.6036 4.65031 23.6763 5.12185V5.12315Z" fill="white"/>
<path d="M26.6514 54.0896L28.8283 51.9116C25.9601 53.134 22.8743 53.7626 19.7568 53.7593C17.955 53.7599 16.1594 53.5507 14.406 53.1358C14.601 53.6453 14.8243 54.1436 15.0746 54.6282C16.6174 54.9281 18.1854 55.0791 19.7571 55.0791C22.0906 55.0798 24.4122 54.7466 26.6514 54.0896Z" fill="white"/>
<path d="M25.6543 10.4521C25.631 10.0378 25.5717 9.62634 25.4772 9.22233C20.8442 7.97899 15.9325 8.27945 11.4854 10.0782C9.43219 10.941 7.57249 12.2066 6.0161 13.8003L5.87087 13.945C3.23828 16.5421 1.27292 19.738 0.142578 23.26C1.98421 18.2902 5.64157 14.2044 10.3765 11.8273C15.1114 9.45014 20.5713 8.95868 25.6543 10.4521Z" fill="white"/>
<path d="M0.548706 38.8141C1.9813 42.6587 4.37045 46.0741 7.49017 48.7373V47.4727C4.44382 45.2598 2.04667 42.2696 0.548706 38.8141Z" fill="white"/>
<path d="M19.7577 13.7981C21.776 13.7968 23.7777 14.1634 25.6647 14.8799V13.8546C21.8574 12.5006 17.7014 12.4927 13.889 13.8322C10.0766 15.1717 6.83805 17.7777 4.71282 21.2161C2.58759 24.6545 1.70403 28.7177 2.20934 32.7288C2.71465 36.7398 4.57831 40.4566 7.48985 43.2598V41.8889C5.27844 39.5023 3.81114 36.5219 3.26784 33.3132C2.72455 30.1045 3.12889 26.8068 4.43127 23.8246C5.73365 20.8424 7.87748 18.3053 10.5999 16.5243C13.3223 14.7433 16.505 13.7958 19.7577 13.7981Z" fill="white"/>
<path d="M23.5437 57.1983L25.0535 55.688C23.312 56.054 21.5372 56.2383 19.7577 56.2377C18.4364 56.2382 17.117 56.1372 15.8112 55.9354C16.0997 56.4074 16.4021 56.8621 16.705 57.2919C17.7189 57.4076 18.7385 57.4659 19.759 57.4665C21.0253 57.4656 22.29 57.376 23.5437 57.1983Z" fill="white"/>
<path d="M39.0707 22.4938C37.9012 19.2791 36.0405 16.3605 33.6199 13.9443L32.0006 12.3265V13.5725C35.1313 15.8403 37.5773 18.9269 39.0704 22.4938H39.0707Z" fill="white"/>
<path d="M39.5138 30.5312C39.5135 27.5479 38.8372 24.6036 37.536 21.9194C36.2347 19.2352 34.3422 16.8811 32.0008 15.034V16.2134C35.3223 19.0522 37.5543 22.9579 38.3147 27.2618C39.0752 31.5658 38.3168 36.0004 36.1694 39.8065C34.022 43.6127 30.6192 46.5537 26.5433 48.1261C22.4675 49.6985 17.9721 49.8046 13.8267 48.4262V49.3884C16.786 50.32 19.9231 50.5412 22.9838 50.0342C26.0445 49.5271 28.9428 48.306 31.4442 46.4698C33.9455 44.6336 35.9795 42.2338 37.3814 39.4647C38.7834 36.6957 39.5139 33.6353 39.5138 30.5312Z" fill="white"/>
<path d="M19.6586 0L19.0023 0.655348H20.3133L19.6586 0Z" fill="white"/>
<path d="M19.1018 60.3437L19.7581 61.0003L20.4131 60.3437H19.1018Z" fill="white"/>
<path d="M24.3648 30.5312C24.3646 29.6196 24.0943 28.7284 23.588 27.9705C23.0817 27.2125 22.3621 26.6218 21.5203 26.273C20.6785 25.9242 19.7521 25.833 18.8585 26.011C17.9649 26.1889 17.144 26.628 16.4998 27.2727C15.8555 27.9173 15.4168 28.7387 15.2391 29.6328C15.0614 30.527 15.1527 31.4538 15.5014 32.296C15.8501 33.1382 16.4406 33.8581 17.1982 34.3646C17.9558 34.8711 18.8465 35.1414 19.7577 35.1414C20.9792 35.1397 22.1501 34.6534 23.0137 33.7892C23.8774 32.9249 24.3632 31.7533 24.3648 30.5312ZM18.8213 33.6311C18.7003 33.6321 18.5804 33.6091 18.4683 33.5633C18.3563 33.5176 18.2544 33.4501 18.1686 33.3647C18.0829 33.2794 18.0148 33.1778 17.9686 33.0659C17.9223 32.9541 17.8986 32.8342 17.899 32.7131V28.35C17.899 28.1689 17.9527 27.9919 18.0533 27.8413C18.1539 27.6908 18.2969 27.5734 18.4641 27.5042C18.6313 27.4349 18.8153 27.4168 18.9928 27.4521C19.1704 27.4875 19.3334 27.5747 19.4614 27.7027L21.6421 29.884C21.7271 29.969 21.7946 30.0699 21.8406 30.1811C21.8867 30.2922 21.9103 30.4113 21.9103 30.5315C21.9103 30.6518 21.8867 30.7709 21.8406 30.882C21.7946 30.9931 21.7271 31.0941 21.6421 31.1791L19.4614 33.361C19.3781 33.4464 19.2785 33.5143 19.1686 33.5606C19.0587 33.607 18.9406 33.631 18.8213 33.6311Z" fill="white"/>
<path d="M53.0504 20.5567H51.2492L47.4238 31.1215H49.8167L52.1498 24.7221L54.4537 31.1215H56.8758L53.0504 20.5567Z" fill="white"/>
<path d="M61.2814 20.5567H57.7231V31.1215H61.2814C62.6817 31.1215 64.0246 30.565 65.0147 29.5743C66.0048 28.5837 66.561 27.2401 66.561 25.8391C66.561 24.4381 66.0048 23.0945 65.0147 22.1038C64.0246 21.1132 62.6817 20.5567 61.2814 20.5567ZM61.2814 28.8607H59.9818V22.8179H61.2814C62.0769 22.8261 62.837 23.1481 63.3966 23.7138C63.9562 24.2795 64.27 25.0433 64.27 25.8393C64.27 26.6352 63.9562 27.399 63.3966 27.9647C62.837 28.5304 62.0769 28.8524 61.2814 28.8607Z" fill="white"/>
<path d="M85.2882 25.8225C85.2915 25.4853 85.2573 25.1487 85.1865 24.819L85.0455 24.0713L80.5645 26.4506L83.8619 25.8349L83.7303 26.5357C83.5936 27.2373 83.2605 27.8855 82.7698 28.4049C82.2791 28.9242 81.6509 29.2934 80.9585 29.4693C80.2662 29.6452 79.5381 29.6206 78.8591 29.3983C78.1802 29.1761 77.5784 28.7653 77.1238 28.214C76.6692 27.6627 76.3806 26.9934 76.2916 26.2843C76.2026 25.5751 76.3168 24.8553 76.621 24.2086C76.9252 23.5619 77.4069 23.015 78.0098 22.6317C78.6127 22.2484 79.3121 22.0444 80.0264 22.0435C80.8107 22.0401 81.5768 22.2791 82.2202 22.7278L83.2329 21.6391C82.2932 20.9191 81.1378 20.5381 79.9544 20.5581C78.771 20.578 77.6291 20.9977 76.7142 21.7489C75.7992 22.5002 75.1651 23.5389 74.9147 24.6963C74.6643 25.8537 74.8123 27.0618 75.3348 28.1244C75.8573 29.187 76.7236 30.0416 77.7928 30.5494C78.862 31.0572 80.0715 31.1884 81.2246 30.9216C82.3778 30.6548 83.4069 30.0058 84.1449 29.0799C84.8828 28.1541 85.2862 27.0058 85.2895 25.8215L85.2882 25.8225Z" fill="white"/>
<path d="M91.1587 20.8697H87.7817V31.0422H89.1921V28.032H90.4498L92.3047 31.0572H93.9207L91.9658 27.9635L92.5025 27.7427C93.2682 27.4307 93.9017 26.8622 94.2948 26.1344C94.6878 25.4067 94.8159 24.565 94.6573 23.7531C94.4986 22.9413 94.0629 22.2099 93.4248 21.6839C92.7867 21.158 91.9858 20.8701 91.1591 20.8697H91.1587ZM91.1587 26.591H89.1921V22.2792H91.1587C91.7302 22.2792 92.2783 22.5064 92.6824 22.9107C93.0865 23.315 93.3135 23.8633 93.3135 24.4351C93.3135 25.0069 93.0865 25.5552 92.6824 25.9595C92.2783 26.3639 91.7302 26.591 91.1587 26.591Z" fill="white"/>
<path d="M102.009 20.5567C100.973 20.5598 99.9603 20.87 99.0998 21.4481C98.2393 22.0262 97.5692 22.8464 97.174 23.8051C96.7788 24.7638 96.6762 25.8181 96.8792 26.8351C97.0822 27.852 97.5816 28.7861 98.3145 29.5194C99.0474 30.2527 99.981 30.7524 100.997 30.9555C102.014 31.1586 103.068 31.0559 104.026 30.6605C104.984 30.2651 105.804 29.5947 106.381 28.7337C106.959 27.8728 107.269 26.8599 107.272 25.8228C107.274 25.1309 107.139 24.4455 106.874 23.806C106.61 23.1665 106.223 22.5854 105.734 22.0961C105.245 21.6068 104.664 21.219 104.025 20.9548C103.386 20.6906 102.701 20.5553 102.009 20.5567ZM102.009 29.5846C101.262 29.5816 100.533 29.357 99.914 28.9394C99.2948 28.5218 98.8133 27.9298 98.5303 27.2384C98.2473 26.5469 98.1756 25.7871 98.3243 25.0548C98.473 24.3226 98.8353 23.651 99.3655 23.1248C99.8957 22.5987 100.57 22.2416 101.303 22.0989C102.036 21.9561 102.795 22.034 103.484 22.3228C104.172 22.6115 104.76 23.0982 105.172 23.7211C105.585 24.3441 105.803 25.0754 105.8 25.8225C105.8 26.319 105.701 26.8106 105.51 27.2688C105.319 27.727 105.039 28.143 104.687 28.4926C104.334 28.8423 103.916 29.1188 103.457 29.3062C102.997 29.4936 102.505 29.5882 102.009 29.5846Z" fill="white"/>
<path d="M116.218 20.884V27.0702C116.218 27.7536 115.947 28.409 115.464 28.8923C114.981 29.3755 114.325 29.647 113.642 29.647C112.959 29.647 112.304 29.3755 111.821 28.8923C111.338 28.409 111.067 27.7536 111.067 27.0702V20.884H109.658V27.0702C109.668 28.1214 110.092 29.1263 110.838 29.8663C111.584 30.6063 112.593 31.0215 113.643 31.0215C114.694 31.0215 115.702 30.6063 116.448 29.8663C117.195 29.1263 117.619 28.1214 117.628 27.0702V20.884H116.218Z" fill="white"/>
<path d="M123.436 20.884H120.057V31.0588H121.467V28.0164H123.436C124.376 28.0075 125.273 27.6278 125.935 26.96C126.596 26.2921 126.967 25.3902 126.967 24.4502C126.967 23.5103 126.596 22.6083 125.935 21.9405C125.273 21.2727 124.376 20.893 123.436 20.884ZM123.436 26.6053H121.467V22.2951H123.436C124.008 22.2951 124.556 22.5223 124.96 22.9266C125.364 23.3309 125.591 23.8793 125.591 24.451C125.591 25.0228 125.364 25.5712 124.96 25.9755C124.556 26.3798 124.008 26.6069 123.436 26.6069V26.6053Z" fill="white"/>
<path d="M52.4448 35.1134H51.5149V40.3546H52.4448V35.1134Z" fill="white"/>
<path d="M56.9716 40.4261L54.429 37.1104V40.3585H53.5361V35.1134H53.9829L56.457 38.2757V35.1134H57.3504V40.4261H56.9716Z" fill="white"/>
<path d="M59.3528 35.9398V37.1666H61.1943V37.9591H59.3528V40.3549H58.4216V35.1128H61.8721V35.9398H59.3528Z" fill="white"/>
<path d="M63.644 35.1134H62.7135V40.3546H63.644V35.1134Z" fill="white"/>
<path d="M68.1699 40.4261L65.6278 37.1104V40.3585H64.7344V35.1134H65.1811L67.6552 38.2757V35.1134H68.5487V40.4261H68.1699Z" fill="white"/>
<path d="M70.5699 35.1134H69.64V40.3546H70.5699V35.1134Z" fill="white"/>
<path d="M73.791 35.9398V40.3549H72.8611V35.9398H71.1947V35.1128H75.5327V35.9398H73.791Z" fill="white"/>
<path d="M77.0695 35.9398V37.1666H78.8002V37.9591H77.0695V39.5289H79.4448V40.3549H76.1406V35.1128H79.4845V35.9398H77.0695Z" fill="white"/>
<path d="M83.4587 35.1134H82.5288V40.3546H83.4587V35.1134Z" fill="white"/>
<path d="M87.986 40.4261L85.443 37.1104V40.3585H84.5505V35.1134H84.9969L87.4711 38.2757V35.1134H88.3645V40.4261H87.986Z" fill="white"/>
<path d="M92.8738 40.4261L90.3308 37.1104V40.3585H89.4384V35.1134H89.8848L92.3589 38.2757V35.1134H93.253V40.4261H92.8738Z" fill="white"/>
<path d="M94.0743 37.6893C94.0536 37.0061 94.2706 36.3368 94.6881 35.7958C94.88 35.5454 95.129 35.3444 95.4142 35.2096C95.6994 35.0748 96.0126 35.0101 96.3278 35.0208C96.6498 34.9999 96.9723 35.0521 97.2713 35.1735C97.5702 35.2949 97.8379 35.4822 98.0544 35.7216C98.4833 36.2844 98.6953 36.9829 98.6515 37.6893C98.6904 38.4125 98.4689 39.1257 98.0274 39.6996C97.8085 39.9507 97.5351 40.1483 97.228 40.2773C96.921 40.4063 96.5885 40.4632 96.256 40.4437C95.9469 40.4608 95.6382 40.4028 95.3564 40.2746C95.0746 40.1463 94.828 39.9517 94.6377 39.7074C94.2326 39.1151 94.0346 38.4055 94.0743 37.689V37.6893ZM95.0406 37.689C95.0129 38.1831 95.1206 38.6754 95.3518 39.1128C95.4423 39.2714 95.5745 39.4021 95.7339 39.4909C95.8933 39.5797 96.074 39.6232 96.2564 39.6167C96.4606 39.6284 96.6645 39.5895 96.8501 39.5034C97.0357 39.4173 97.1971 39.2867 97.3201 39.1232C97.5913 38.6962 97.7193 38.1938 97.6856 37.689C97.6856 36.46 97.233 35.8458 96.3278 35.8465C96.1389 35.8386 95.9513 35.8805 95.7837 35.9681C95.6161 36.0557 95.4744 36.1858 95.373 36.3455C95.1322 36.7507 95.0166 37.2182 95.0406 37.689Z" fill="white"/>
<path d="M101.427 40.4261H100.914L98.9537 35.1131H99.9765L101.189 38.6564L102.469 35.1131H103.47L101.427 40.4261Z" fill="white"/>
<path d="M106.54 40.3533L106.157 39.2897H104.362L103.997 40.3533H102.964L105.052 35.0403H105.46L107.565 40.3533H106.54ZM105.256 36.6445L104.626 38.58H105.886L105.256 36.6445Z" fill="white"/>
<path d="M109.558 35.9398V40.3549H108.628V35.9398H106.961V35.1128H111.299V35.9398H109.558Z" fill="white"/>
<path d="M112.854 35.1134H111.924V40.3546H112.854V35.1134Z" fill="white"/>
<path d="M113.694 37.6893C113.673 37.006 113.89 36.3366 114.308 35.7958C114.5 35.5454 114.748 35.3446 115.034 35.2098C115.319 35.075 115.632 35.0102 115.947 35.0208C116.269 34.9999 116.591 35.0521 116.89 35.1735C117.189 35.2949 117.457 35.4822 117.673 35.7216C118.103 36.2843 118.315 36.9829 118.271 37.6893C118.309 38.4123 118.088 39.1254 117.647 39.6996C117.428 39.9506 117.155 40.1482 116.848 40.2772C116.54 40.4061 116.208 40.4631 115.875 40.4437C115.566 40.461 115.258 40.4031 114.976 40.2749C114.694 40.1466 114.448 39.9519 114.258 39.7074C113.853 39.1151 113.655 38.4055 113.694 37.689L113.694 37.6893ZM114.66 37.689C114.632 38.1832 114.74 38.6756 114.972 39.1128C115.062 39.2714 115.194 39.4022 115.353 39.491C115.512 39.5799 115.693 39.6233 115.875 39.6167C116.08 39.6283 116.284 39.5894 116.469 39.5033C116.655 39.4172 116.817 39.2867 116.94 39.1232C117.211 38.6961 117.339 38.1938 117.305 37.689C117.305 36.46 116.852 35.8458 115.947 35.8465C115.758 35.8385 115.57 35.8804 115.403 35.968C115.235 36.0556 115.094 36.1858 114.993 36.3455C114.751 36.7505 114.635 37.218 114.659 37.689" fill="white"/>
<path d="M122.53 40.4261L119.987 37.1104V40.3585H119.094V35.1134H119.54L122.015 38.2757V35.1134H122.907V40.4261H122.53Z" fill="white"/>
</g>
<defs>
<clipPath id="clip0_281_489">
<rect width="127" height="61" fill="white"/>
</clipPath>
</defs>
</svg>
