<svg id="Layer_1" data-name="Layer 1" xmlns="http://www.w3.org/2000/svg" viewBox="0 0 1080 1080"><polygon points="219.44 847.01 202.54 847.01 166.64 946.1 189.09 946.1 210.99 886.09 232.61 946.1 255.34 946.1 219.44 847.01" style="fill:#fff"/><path d="M296.69,946.1h-33.4V847h33.4a49.55,49.55,0,0,1,0,99.09Zm-12.2-21.2h12.2a28.34,28.34,0,0,0,0-56.68h-12.2Z" style="fill:#fff"/><path d="M521,887l-1.33-7-42,22.32h0l30.93-5.78-1.24,6.58a35.13,35.13,0,1,1-14.18-35.71l9.5-10.22A49.24,49.24,0,1,0,522,896.4,42.63,42.63,0,0,0,521,887Z" style="fill:#fff"/><path d="M589.64,914.41A33.47,33.47,0,0,0,577,849.94H545.35v95.41h13.22V917.12h11.82l17.4,28.38H603l-18.35-29Zm-31.07-10.8V863.17H577a20.22,20.22,0,0,1,0,40.44Z" style="fill:#fff"/><path d="M678.86,847a49.25,49.25,0,1,0,49.39,49.39A49.3,49.3,0,0,0,678.86,847Zm0,84.68a35.43,35.43,0,1,1,35.57-35.29A35.32,35.32,0,0,1,678.86,931.69Z" style="fill:#fff"/><path d="M825.42,850.09H812.19v58a24.17,24.17,0,0,1-48.34,0v-58H750.62v58a37.4,37.4,0,0,0,74.8,0Z" style="fill:#fff"/><path d="M879.91,850.09h-31.7V945.5h13.23V917h18.47a33.45,33.45,0,1,0,0-66.89Zm0,53.66H861.44V863.32h18.47a20.22,20.22,0,1,1,0,40.43Z" style="fill:#fff"/><path d="M670.93,441.6a42.38,42.38,0,0,1-14.17,8.11A123.21,123.21,0,0,1,469.35,511v13.61A133.89,133.89,0,0,0,540,544.68C603.39,544.68,656.66,500.67,670.93,441.6Z" style="fill:#fff"/><path d="M409.14,378a42.8,42.8,0,0,1,14.14-7.89A123.22,123.22,0,0,1,610.36,308.7V295.12A133.82,133.82,0,0,0,540,275.23C476.73,275.23,423.54,319.08,409.14,378Z" style="fill:#fff"/><path d="M379.41,410a159.63,159.63,0,0,0,14.46,66.48V436.5A148.86,148.86,0,0,1,391.45,410C391.45,328,458.09,261.4,540,261.4a147.63,147.63,0,0,1,70.36,17.76V265.63A159.57,159.57,0,0,0,540,249.36C451.45,249.36,379.41,321.4,379.41,410Z" style="fill:#fff"/><path d="M438.86,367.9h11.77a98.69,98.69,0,0,1,159.73-27.21V326.08a109.43,109.43,0,0,0-171.5,41.82Z" style="fill:#fff"/><path d="M700.59,410a159.54,159.54,0,0,0-14.76-67.13v38.94A148.79,148.79,0,0,1,688.55,410c0,81.91-66.64,148.55-148.55,148.55a147.56,147.56,0,0,1-70.65-17.91v13.53A159.54,159.54,0,0,0,540,570.55C628.55,570.55,700.59,498.51,700.59,410Z" style="fill:#fff"/><path d="M510.28,76.81c9.8-.86,19.7-1.33,29.72-1.33q12.57,0,24.92.92C560.57,70.86,556.51,66,553,61.93c-4.33-.16-8.66-.26-13-.26-5,0-10,.13-14.91.34Z" style="fill:#fff"/><path d="M641.14,452H629.37a98.67,98.67,0,0,1-160,26.9v14.67A109.43,109.43,0,0,0,641.14,452Z" style="fill:#fff"/><path d="M304.66,410c0,74.58,34.92,141.12,89.21,184.26V580.16A224,224,0,0,1,315.51,410c0-123.79,100.7-224.49,224.49-224.49a223.53,223.53,0,0,1,70.36,11.35V185.37A234.48,234.48,0,0,0,540,174.62C410.23,174.62,304.66,280.19,304.66,410Z" style="fill:#fff"/><path d="M540,744.43q-12.74,0-25.24-.94c4.35,5.54,8.42,10.43,11.92,14.48,4.42.16,8.86.27,13.32.27,4.89,0,9.76-.12,14.61-.32l14.79-14.79C559.71,744,549.91,744.43,540,744.43Z" style="fill:#fff"/><path d="M725.38,410a184.41,184.41,0,0,0-39.55-114.25v18.74A173.27,173.27,0,0,1,714.42,410c0,96.17-78.25,174.41-174.42,174.41a173.29,173.29,0,0,1-70.65-15v12a184.42,184.42,0,0,0,70.65,14C642.22,595.34,725.38,512.18,725.38,410Z" style="fill:#fff"/><path d="M540,325a85,85,0,0,0-73.79,42.91l3.14,89.19A84.87,84.87,0,0,0,613.78,452l-3.42-89.64A85,85,0,0,0,540,325Zm0,153.67A68.7,68.7,0,1,1,608.7,410,68.78,68.78,0,0,1,540,478.66Z" style="fill:#fff"/><path d="M750.67,410a210,210,0,0,0-64.84-151.81v16.29A198.41,198.41,0,0,1,739.21,410c0,109.84-89.37,199.21-199.21,199.21a198.22,198.22,0,0,1-70.65-13V608.4A209.64,209.64,0,0,0,540,620.62C656.16,620.62,750.67,526.12,750.67,410Z" style="fill:#fff"/><path d="M354.61,410a184.44,184.44,0,0,0,39.26,113.87V505A173.38,173.38,0,0,1,365.58,410c0-96.18,78.25-174.42,174.42-174.42a173.45,173.45,0,0,1,70.36,14.87V238.48A184.35,184.35,0,0,0,540,224.57C437.78,224.57,354.61,307.73,354.61,410Z" style="fill:#fff"/><path d="M626.85,657.88c29.61-10.4,56.07-28.28,78.26-50.46h0A278,278,0,0,0,770,505.64c-37.58,90-126.54,153.48-230,153.48a248.32,248.32,0,0,1-70.55-10.19,83.86,83.86,0,0,0,2.1,14.64,262.87,262.87,0,0,0,155.3-5.69Z" style="fill:#fff"/><path d="M457.46,129.63c-8.79,8.79-17.6,17.61-26,26a276.79,276.79,0,0,1,172-14.88A173.21,173.21,0,0,0,595.45,123a292.55,292.55,0,0,0-138,6.59Z" style="fill:#fff"/><path d="M494.56,92.54l-18,18a307.72,307.72,0,0,1,110.14-3.08c-3.44-5.62-7-11-10.64-16.13a319.87,319.87,0,0,0-81.48,1.2Z" style="fill:#fff"/><path d="M622.12,690.41l25.94-25.95A276.75,276.75,0,0,1,476.27,679a174.49,174.49,0,0,0,8,17.77,292.73,292.73,0,0,0,137.9-6.4Z" style="fill:#fff"/><path d="M441.49,166.44c-24.56,10-46.43,25.59-65.17,44.34l-1.73,1.72a272.8,272.8,0,0,0-68.23,110.88C341.62,228.54,433,160.8,540,160.8a248.44,248.44,0,0,1,70.25,10.09,85,85,0,0,0-2.11-14.64,262.82,262.82,0,0,0-166.65,10.19Z" style="fill:#fff"/><path d="M393.87,626.69V611.64A250.63,250.63,0,0,1,311.2,508.55,287,287,0,0,0,393.87,626.69Z" style="fill:#fff"/><path d="M329.33,410a210,210,0,0,0,64.54,151.53V545.16A198.46,198.46,0,0,1,340.79,410c0-109.85,89.36-199.22,199.21-199.22a198,198,0,0,1,70.36,12.88v-12.2A209.57,209.57,0,0,0,540,199.29C423.84,199.29,329.33,293.8,329.33,410Z" style="fill:#fff"/><path d="M585.1,727.42l18-18A307.13,307.13,0,0,1,493,712.39c3.44,5.62,7,11,10.65,16.15a320.39,320.39,0,0,0,81.46-1.12Z" style="fill:#fff"/><path d="M770,314.26A278.08,278.08,0,0,0,705.11,212.5l-19.28-19.28v14.84A250.57,250.57,0,0,1,770,314.26Z" style="fill:#fff"/><path d="M775.34,410c0-74.72-35-141.36-89.51-184.5v14A224,224,0,0,1,764.49,410c0,123.78-100.71,224.49-224.49,224.49A223.55,223.55,0,0,1,469.35,623v11.45A234.39,234.39,0,0,0,540,645.29C669.76,645.29,775.34,539.72,775.34,410Z" style="fill:#fff"/><polygon points="531 54.28 538.81 46.47 546.62 54.28 531 54.28" style="fill:#fff"/><polygon points="547.81 764.87 540 772.68 532.19 764.87 547.81 764.87" style="fill:#fff"/><path d="M540,355.08A54.88,54.88,0,1,0,594.87,410,54.94,54.94,0,0,0,540,355.08Zm22.46,62.58-26,26a10.9,10.9,0,0,1-18.61-7.71V384a10.9,10.9,0,0,1,18.61-7.7l26,26A10.89,10.89,0,0,1,562.46,417.66Z" style="fill:#fff"/><path d="M205,1032.69V983.53h8.73v49.16Z" style="fill:#fff"/><path d="M256.23,1033.36l-23.85-31.1v30.46H224V983.53h4.2l23.21,29.67V983.53h8.39v49.83Z" style="fill:#fff"/><path d="M278.58,991.29v11.5h17.28v7.42H278.58v22.48h-8.72V983.53h32.37v7.76Z" style="fill:#fff"/><path d="M310.12,1032.69V983.53h8.72v49.16Z" style="fill:#fff"/><path d="M361.32,1033.36l-23.86-31.1v30.46h-8.38V983.53h4.19l23.22,29.67V983.53h8.39v49.83Z" style="fill:#fff"/><path d="M375.11,1032.69V983.53h8.72v49.16Z" style="fill:#fff"/><path d="M414.06,991.29v41.4h-8.72v-41.4H389.7v-7.76h40.7v7.76Z" style="fill:#fff"/><path d="M444.83,991.29v11.5h16.24v7.42H444.83v14.73h22.28v7.75h-31V983.53h31.37v7.76Z" style="fill:#fff"/><path d="M496.06,1032.69V983.53h8.73v49.16Z" style="fill:#fff"/><path d="M547.26,1033.36l-23.85-31.1v30.46H515V983.53h4.19l23.22,29.67V983.53h8.39v49.83Z" style="fill:#fff"/><path d="M593.13,1033.36l-23.86-31.1v30.46h-8.38V983.53h4.19l23.22,29.67V983.53h8.39v49.83Z" style="fill:#fff"/><path d="M604.4,1007.69q0-10.5,5.76-17.76a18.62,18.62,0,0,1,15.38-7.27q10.61,0,16.21,6.58t5.6,18.45q0,11.88-5.86,18.86t-16.62,7q-9.9,0-15.18-6.91T604.4,1007.69Zm9.06,0q0,8.63,2.92,13.36a9.4,9.4,0,0,0,8.49,4.73q6.54,0,10-4.63t3.44-13.46q0-17.28-12.75-17.27a10.11,10.11,0,0,0-9,4.68Q613.46,999.78,613.46,1007.69Z" style="fill:#fff"/><path d="M673.39,1033.36h-4.8L650.2,983.53h9.6l11.37,33.22,12-33.22h9.4Z" style="fill:#fff"/><path d="M721.37,1032.69l-3.59-10H700.93l-3.42,10h-9.7l19.6-49.82h3.82L731,1032.69Zm-12-34.79-5.9,18.15h11.81Z" style="fill:#fff"/><path d="M749.69,991.29v41.4H741v-41.4H725.33v-7.76H766v7.76Z" style="fill:#fff"/><path d="M771.89,1032.69V983.53h8.73v49.16Z" style="fill:#fff"/><path d="M788.5,1007.69q0-10.5,5.76-17.76a18.62,18.62,0,0,1,15.38-7.27q10.61,0,16.21,6.58t5.6,18.45q0,11.88-5.86,18.86t-16.62,7q-9.9,0-15.18-6.91T788.5,1007.69Zm9.06,0q0,8.63,2.92,13.36a9.4,9.4,0,0,0,8.49,4.73q6.54,0,10-4.63t3.44-13.46q0-17.28-12.75-17.27a10.11,10.11,0,0,0-9,4.68Q797.56,999.78,797.56,1007.69Z" style="fill:#fff"/><path d="M871.41,1033.36l-23.85-31.1v30.46h-8.39V983.53h4.19l23.22,29.67V983.53H875v49.83Z" style="fill:#fff"/></svg>