<svg xmlns="http://www.w3.org/2000/svg" width="63.049" height="54.888" viewBox="0 0 63.049 54.888">
  <g id="Group_7" data-name="Group 7" transform="translate(-92.74 -278.859)">
    <path id="Path_37" data-name="Path 37" d="M100.846,2067.62l-3.112,9.473h-1.9l-3.1-9.473h2.154l1.889,6.323,1.9-6.323Z" transform="translate(0 -1749.544)" fill="#547dbf"/>
    <path id="Path_38" data-name="Path 38" d="M629.076,2077.094h-1.9v-9.473h1.9Z" transform="translate(-522.723 -1749.544)" fill="#547dbf"/>
    <path id="Path_39" data-name="Path 39" d="M885.876,2067.62l-3.112,9.473h-1.9l-3.1-9.473h2.154l1.89,6.323,1.9-6.323Z" transform="translate(-767.819 -1749.544)" fill="#547dbf"/>
    <path id="Path_40" data-name="Path 40" d="M1414.116,2077.094h-1.9v-9.473h1.9Z" transform="translate(-1290.552 -1749.544)" fill="#547dbf"/>
    <path id="Path_41" data-name="Path 41" d="M1709.881,2072.356a4.675,4.675,0,0,1-.647,2.388,4.868,4.868,0,0,1-.74.958,4.7,4.7,0,0,1-3.349,1.391h-2.854v-9.474h2.854a4.7,4.7,0,0,1,3.35,1.391,4.9,4.9,0,0,1,.74.958A4.679,4.679,0,0,1,1709.881,2072.356Zm-1.9,0a2.77,2.77,0,0,0-.222-1.1,2.855,2.855,0,0,0-1.513-1.512,2.754,2.754,0,0,0-1.106-.225h-.945v5.681h.945a2.778,2.778,0,0,0,1.106-.221,2.826,2.826,0,0,0,1.513-1.513,2.789,2.789,0,0,0,.221-1.107Z" transform="translate(-1574.262 -1749.543)" fill="#547dbf"/>
    <path id="Path_42" data-name="Path 42" d="M2235.833,2077.094H2229.2v-9.473h1.9v7.577h4.737Z" transform="translate(-2089.62 -1749.544)" fill="#547dbf"/>
    <path id="Path_43" data-name="Path 43" d="M2627.675,2077.094h-1.89v-2.966a3.7,3.7,0,0,1-1.153-.509,3.782,3.782,0,0,1-1.486-1.913,3.712,3.712,0,0,1-.208-1.245v-2.841h1.9v2.841a1.846,1.846,0,0,0,.149.737,1.9,1.9,0,0,0,3.495,0,1.851,1.851,0,0,0,.149-.737v-2.841h1.889v2.841a3.713,3.713,0,0,1-.208,1.245,3.8,3.8,0,0,1-1.483,1.913,3.655,3.655,0,0,1-1.149.509Z" transform="translate(-2474.727 -1749.544)" fill="#547dbf"/>
    <path id="Path_44" data-name="Path 44" d="M707.94,2649.174a.929.929,0,0,1-.634.2,2,2,0,0,1-.766-.143v-.323a1.959,1.959,0,0,0,.755.161.534.534,0,0,0,.366-.118.415.415,0,0,0,.133-.329.472.472,0,0,0-.11-.344.555.555,0,0,0-.33-.14,1.532,1.532,0,0,1-.3-.06.982.982,0,0,1-.246-.12.494.494,0,0,1-.18-.218.8.8,0,0,1-.062-.33.775.775,0,0,1,.191-.557.761.761,0,0,1,.578-.2,1.866,1.866,0,0,1,.713.139v.307a1.826,1.826,0,0,0-.694-.139.419.419,0,0,0-.321.115.432.432,0,0,0-.107.307.363.363,0,0,0,.122.312.793.793,0,0,0,.355.124,1.446,1.446,0,0,1,.287.065.924.924,0,0,1,.236.128.523.523,0,0,1,.175.232.958.958,0,0,1,.06.359A.727.727,0,0,1,707.94,2649.174Z" transform="translate(-600.343 -2315.88)" fill="#547dbf"/>
    <path id="Path_45" data-name="Path 45" d="M795.22,2647.591a.675.675,0,0,1,.238-.56,1.069,1.069,0,0,1,1.22,0,.68.68,0,0,1,.238.56v1.212a.681.681,0,0,1-.238.561,1.059,1.059,0,0,1-1.22,0,.681.681,0,0,1-.238-.561Zm.353,1.156a.49.49,0,0,0,.137.387.525.525,0,0,0,.358.12q.488,0,.488-.507v-1.1q0-.506-.488-.507a.523.523,0,0,0-.358.121.488.488,0,0,0-.137.386Z" transform="translate(-687.079 -2316.066)" fill="#547dbf"/>
    <path id="Path_46" data-name="Path 46" d="M918.161,2648.89l.518,1.828a2.71,2.71,0,0,1,.086.417,2.289,2.289,0,0,1,.082-.413l.522-1.832h.364l-.8,2.627H918.6l-.807-2.627Z" transform="translate(-806.962 -2318.07)" fill="#547dbf"/>
    <path id="Path_47" data-name="Path 47" d="M1016.74,2648.89h.36v2.627h-.36Z" transform="translate(-903.742 -2318.07)" fill="#547dbf"/>
    <path id="Path_48" data-name="Path 48" d="M1043.321,2648.89l.518,1.828a2.71,2.71,0,0,1,.086.417,2.283,2.283,0,0,1,.082-.413l.522-1.832h.364l-.8,2.627h-.334l-.807-2.627Z" transform="translate(-929.378 -2318.07)" fill="#547dbf"/>
    <path id="Path_49" data-name="Path 49" d="M1141.87,2648.89h.36v2.627h-.36Z" transform="translate(-1026.129 -2318.07)" fill="#547dbf"/>
    <path id="Path_50" data-name="Path 50" d="M1177.13,2648.89h.863a.756.756,0,0,1,.565.208.8.8,0,0,1,.2.588v1.036a.8.8,0,0,1-.2.587.754.754,0,0,1-.565.208h-.863Zm.863,2.324q.413,0,.413-.544v-.931q0-.54-.413-.541h-.5v2.016Z" transform="translate(-1060.616 -2318.07)" fill="#547dbf"/>
    <path id="Path_51" data-name="Path 51" d="M1262.575,2751.263a.6.6,0,0,0,.124-.289.188.188,0,0,1-.139-.192.2.2,0,0,1,.064-.161.238.238,0,0,1,.161-.057.241.241,0,0,1,.167.057.207.207,0,0,1,.062.161.6.6,0,0,1-.064.25,1.034,1.034,0,0,1-.143.231Z" transform="translate(-1144.173 -2417.516)" fill="#547dbf"/>
    <path id="Path_52" data-name="Path 52" d="M1335.31,2648.89h1.392v.307h-1.032v.83h.863v.3h-.863v.886h1.062v.3h-1.422Z" transform="translate(-1215.328 -2318.07)" fill="#547dbf"/>
    <path id="Path_53" data-name="Path 53" d="M1407.286,2651.517l-.191-.634h-.879l-.188.634h-.368l.837-2.627h.326l.833,2.627Zm-.987-.919h.713l-.27-.908q-.026-.105-.086-.416a1.945,1.945,0,0,1-.083.413Z" transform="translate(-1284.136 -2318.07)" fill="#547dbf"/>
    <path id="Path_54" data-name="Path 54" d="M1505.67,2649.174a.929.929,0,0,1-.634.2,2,2,0,0,1-.766-.143v-.323a1.958,1.958,0,0,0,.755.161.533.533,0,0,0,.366-.118.417.417,0,0,0,.133-.329.472.472,0,0,0-.11-.344.555.555,0,0,0-.33-.14,1.531,1.531,0,0,1-.3-.06.984.984,0,0,1-.246-.12.494.494,0,0,1-.18-.218.8.8,0,0,1-.062-.33.775.775,0,0,1,.192-.557.761.761,0,0,1,.578-.2,1.866,1.866,0,0,1,.713.139v.307a1.827,1.827,0,0,0-.694-.139.42.42,0,0,0-.321.115.433.433,0,0,0-.107.307.363.363,0,0,0,.122.312.794.794,0,0,0,.355.124,1.446,1.446,0,0,1,.287.065.93.93,0,0,1,.237.128.526.526,0,0,1,.175.232.96.96,0,0,1,.06.359A.726.726,0,0,1,1505.67,2649.174Z" transform="translate(-1380.584 -2315.88)" fill="#547dbf"/>
    <path id="Path_55" data-name="Path 55" d="M1581.549,2648.88l.514.972a2.282,2.282,0,0,1,.143.338c0-.008.012-.029.028-.066l.056-.126c.021-.047.044-.1.07-.146l.51-.972h.4l-.89,1.6v1.029h-.349v-1.029l-.89-1.6Z" transform="translate(-1455.768 -2318.061)" fill="#547dbf"/>
    <path id="Path_56" data-name="Path 56" d="M1725.19,2650.471h-.409v1.047h-.36v-2.628h.863a.8.8,0,0,1,.563.193.652.652,0,0,1,.21.5v.191a.683.683,0,0,1-.132.42.652.652,0,0,1-.364.241l.541,1.081h-.409Zm-.409-.3h.5a.377.377,0,0,0,.3-.126.486.486,0,0,0,.11-.328v-.068a.475.475,0,0,0-.107-.326.382.382,0,0,0-.3-.12h-.5Z" transform="translate(-1595.907 -2318.07)" fill="#547dbf"/>
    <path id="Path_57" data-name="Path 57" d="M1815.121,2648.89h1.392v.307h-1.032v.83h.864v.3h-.863v.886h1.061v.3h-1.422Z" transform="translate(-1684.619 -2318.07)" fill="#547dbf"/>
    <path id="Path_58" data-name="Path 58" d="M1887.135,2651.517l-.191-.634h-.878l-.188.634h-.368l.837-2.627h.326l.833,2.627Zm-.987-.919h.713l-.27-.908q-.026-.105-.086-.416a1.937,1.937,0,0,1-.083.413Z" transform="translate(-1753.465 -2318.07)" fill="#547dbf"/>
    <path id="Path_59" data-name="Path 59" d="M1983.535,2649.425a1.633,1.633,0,0,1-.649.124.841.841,0,0,1-.586-.19.718.718,0,0,1-.21-.561v-1.216a.719.719,0,0,1,.21-.561.842.842,0,0,1,.586-.189,1.625,1.625,0,0,1,.649.124v.3a1.738,1.738,0,0,0-.612-.113q-.477,0-.477.5v1.1q0,.5.477.5a1.716,1.716,0,0,0,.612-.113Z" transform="translate(-1847.928 -2316.056)" fill="#547dbf"/>
    <path id="Path_60" data-name="Path 60" d="M2062.69,2648.89h.361V2650h.916v-1.111h.361v2.627h-.361v-1.2h-.916v1.2h-.361Z" transform="translate(-1926.761 -2318.07)" fill="#547dbf"/>
    <path id="Path_61" data-name="Path 61" d="M2156.33,2648.89h.36v2.627h-.36Z" transform="translate(-2018.348 -2318.07)" fill="#547dbf"/>
    <path id="Path_62" data-name="Path 62" d="M2191.41,2648.89h.307l.987,1.809v-1.809h.36v2.627h-.307l-.987-1.8v1.8h-.36Z" transform="translate(-2052.659 -2318.07)" fill="#547dbf"/>
    <path id="Path_63" data-name="Path 63" d="M2286.646,2647.232a1.722,1.722,0,0,0-.612-.113q-.477,0-.477.5v1.1q0,.5.438.511a1.159,1.159,0,0,0,.372-.057v-.829h-.462v-.278h.818v1.324a1.937,1.937,0,0,1-.74.139.817.817,0,0,1-.582-.191.739.739,0,0,1-.2-.563v-1.212a.716.716,0,0,1,.21-.561.84.84,0,0,1,.585-.189,1.626,1.626,0,0,1,.649.124Z" transform="translate(-2144.392 -2316.037)" fill="#547dbf"/>
    <path id="Path_64" data-name="Path 64" d="M866.716,278.859a16.91,16.91,0,0,0-9.853,3.152h0a16.908,16.908,0,0,0-9.853-3.152h-5.25v3.025h0l0,10.005a13.115,13.115,0,0,0,.531,3.747,17.174,17.174,0,0,0,1.592,3.686c1.758,3.035,5.351,7.024,12.487,8.789l.191.047h.6l.191-.047c7.136-1.765,10.729-5.754,12.487-8.789a17.158,17.158,0,0,0,1.591-3.686,13.116,13.116,0,0,0,.532-3.747l0-10.005h0v-3.025Zm-20.2,18.94q-.13-.225-.248-.447a13.021,13.021,0,0,1-1.466-6.11v-3.177h0v-6.181h2.208a13.879,13.879,0,0,1,7.475,2.178,16.924,16.924,0,0,0-4.763,11.792h0a14.1,14.1,0,0,0,1.893,7.072A14.578,14.578,0,0,1,846.518,297.8Zm10.345,6.7h0a11.137,11.137,0,0,1-4.115-8.644,13.924,13.924,0,0,1,4.115-9.891h0a13.924,13.924,0,0,1,4.116,9.891A11.136,11.136,0,0,1,856.863,304.5Zm12.06-19.4v2.969h0v3.177a13.013,13.013,0,0,1-1.467,6.113q-.117.22-.246.444a14.574,14.574,0,0,1-5.1,5.125A14.094,14.094,0,0,0,864,295.854h0a16.931,16.931,0,0,0-4.763-11.791h0a13.882,13.882,0,0,1,7.476-2.178h2.208Z" transform="translate(-732.599 0)" fill="#fcb11f"/>
    <path id="Path_65" data-name="Path 65" d="M1393.385,900.615a1.366,1.366,0,0,1-1.871,1.871,2.732,2.732,0,1,0,1.871-1.871Z" transform="translate(-1270.195 -608.021)" fill="#fcb11f"/>
  </g>
</svg>
