<svg xmlns="http://www.w3.org/2000/svg" xmlns:xlink="http://www.w3.org/1999/xlink" width="50.184" height="56.956" viewBox="0 0 50.184 56.956">
  <defs>
    <linearGradient id="linear-gradient" x1="0.5" x2="0.5" y2="1" gradientUnits="objectBoundingBox">
      <stop offset="0" stop-color="#00cfff"/>
      <stop offset="1" stop-color="#006880"/>
    </linearGradient>
  </defs>
  <g id="Group_8" data-name="Group 8" transform="translate(-85.511 -24.176)">
    <path id="Path_1" data-name="Path 1" d="M154.388,44.614c0,11.273,9.551,20.441,21.288,20.441a21.221,21.221,0,0,0,20.415-14.64c.046-.155.092-.306.135-.461.039-.135.076-.267.112-.4.01-.046.023-.092.036-.138.03-.132.063-.263.092-.4.046-.194.086-.389.125-.583.026-.122.049-.247.069-.369s.043-.244.063-.369c.017-.1.033-.2.043-.3s.03-.2.043-.3c.023-.165.039-.326.056-.491q.025-.212.04-.425c.007-.082.013-.165.016-.247.02-.263.033-.53.04-.8,0-.175.007-.352.007-.527s0-.352-.007-.527c-.007-.267-.02-.533-.04-.8,0-.082-.01-.165-.016-.247q-.015-.212-.04-.425c-.016-.165-.033-.326-.056-.491-.013-.1-.026-.2-.043-.3s-.026-.2-.043-.3c-.02-.125-.039-.247-.063-.369s-.043-.247-.069-.369c-.04-.194-.079-.389-.125-.583-.03-.132-.063-.263-.092-.4-.013-.046-.026-.092-.036-.138-.036-.135-.072-.267-.112-.4-.043-.155-.089-.306-.135-.461a21.222,21.222,0,0,0-20.415-14.637C163.939,24.176,154.388,33.345,154.388,44.614Zm23.744,18.15a18.148,18.148,0,1,1,18.147-18.15A18.082,18.082,0,0,1,178.132,62.764Z" transform="translate(-65.074)" fill="url(#linear-gradient)"/>
    <path id="Path_2" data-name="Path 2" d="M581.743,394.4" transform="translate(-468.836 -349.787)" fill="url(#linear-gradient)"/>
    <path id="Path_3" data-name="Path 3" d="M322.029,135.13a3.776,3.776,0,1,0,3.9,3.645A3.78,3.78,0,0,0,322.029,135.13Zm.187,5.507a1.735,1.735,0,1,1,1.675-1.793A1.735,1.735,0,0,1,322.216,140.637Zm12.884-1.778a1.83,1.83,0,0,0-1.1-.544,15.333,15.333,0,0,0-11.338-6.015,15.125,15.125,0,0,0-12.959,5.521,17.138,17.138,0,0,1-1.46-1.861,1.733,1.733,0,0,0,.168-1.6h0a1.723,1.723,0,0,0-.307-.5,17.72,17.72,0,0,1,4.375-3.89,16.773,16.773,0,0,1,6.726-2.428,16.3,16.3,0,0,1,13.038,4l0,0,.005,0a1.838,1.838,0,1,0,2.445-2.745,18.67,18.67,0,0,0-7.526-4.076,18.352,18.352,0,0,0-8.5-.262,17.812,17.812,0,0,0-7.577,3.571,17.233,17.233,0,0,0-4.338,5.229,1.732,1.732,0,0,0-.036,3.462,17.087,17.087,0,0,0,4.155,5.483,17.523,17.523,0,0,0,7.734,3.907,17.963,17.963,0,0,0,13.139-2.135,15.836,15.836,0,0,1-2.375,2.618,15.65,15.65,0,0,1-6.606,3.486,15.145,15.145,0,0,1-13.751-3.338l0,0,0,0a1.838,1.838,0,0,0-2.429,2.76,17.829,17.829,0,0,0,8.086,4.058,17.4,17.4,0,0,0,8.968-.475,17.029,17.029,0,0,0,7.424-4.805,16.426,16.426,0,0,0,3.56-6.415q.221-.2.435-.405h0l0,0A1.839,1.839,0,0,0,335.1,138.859Zm-2.8-9.8a1.531,1.531,0,1,1,.034,2.165A1.531,1.531,0,0,1,332.3,129.061Zm-24.988,7.219a1.378,1.378,0,1,1,.769-1.79A1.378,1.378,0,0,1,307.314,136.281Zm1.658,12.963a1.531,1.531,0,1,1-.039-2.164A1.531,1.531,0,0,1,308.972,149.244Zm17.405-6.774a15.7,15.7,0,0,1-7.165.535,16.122,16.122,0,0,1-6.773-2.758q-.538-.378-1.045-.8a12.736,12.736,0,0,1,11.116-4.824,13.05,13.05,0,0,1,9.381,4.757A15.581,15.581,0,0,1,326.378,142.47Zm8.44-1.256a1.531,1.531,0,1,1-.052-2.164A1.531,1.531,0,0,1,334.817,141.214Z" transform="translate(-207.437 -94.401)" fill="url(#linear-gradient)"/>
    <path id="Path_4" data-name="Path 4" d="M85.511,845.818H86.97a1.144,1.144,0,0,0,.479.875,1.969,1.969,0,0,0,1.146.292,1.728,1.728,0,0,0,.98-.229.759.759,0,0,0,.333-.667q0-.667-1.876-1.084l-.042-.021-.167-.042a4.34,4.34,0,0,1-1.417-.479,1.245,1.245,0,0,1-.583-.667,2.217,2.217,0,0,1,.5-2.563,3.26,3.26,0,0,1,2.063-.563,2.945,2.945,0,0,1,1.959.583,2.312,2.312,0,0,1,.75,1.688h-.834a.71.71,0,0,1-.688-.438,1.03,1.03,0,0,0-.292-.354,1.714,1.714,0,0,0-1.021-.271,1.388,1.388,0,0,0-.9.229.755.755,0,0,0-.313.646q0,.563,1.209.834a3.624,3.624,0,0,0,.521.125q.375.125.656.2l.448.115.583.25a1.8,1.8,0,0,1,.646.646,2.036,2.036,0,0,1,.229.959,2.153,2.153,0,0,1-.75,1.75,3.394,3.394,0,0,1-2.126.584,3.205,3.205,0,0,1-2.126-.6A2.3,2.3,0,0,1,85.511,845.818Zm8.261,2.23v-6.419a.723.723,0,0,1,.219-.531.8.8,0,0,1,.531-.24H95.96l1.417,5.481,1.417-5.481h2.188v7.19H99.607v-5.794l-1.459,5.794H96.627l-1.48-5.794v5.794Zm12.783-7.169h1.167l2.605,7.169h-1.563l-.479-1.48h-2.793l-.458,1.48h-1.563l2.376-6.69A.7.7,0,0,1,106.556,840.878Zm.333,1.438-1,3.043h2Zm5.906,5.731v-6.419a.747.747,0,0,1,.75-.75h2.73a2.547,2.547,0,0,1,1.73.5A2.26,2.26,0,0,1,118.3,844a1.422,1.422,0,0,1-.792.6,1.161,1.161,0,0,1,.667.5,2.467,2.467,0,0,1,.229,1.063l.042.854v.271a1.634,1.634,0,0,0,.021.271.632.632,0,0,0,.25.479h-1.626a1.206,1.206,0,0,1-.125-.438,4.376,4.376,0,0,1-.042-.458l-.021-.771a1.687,1.687,0,0,0-.25-.9,1.138,1.138,0,0,0-.813-.229h-1.563v2.793Zm1.48-4.043H116a1.27,1.27,0,0,0,.834-.229,1.062,1.062,0,0,0,0-1.417,1.019,1.019,0,0,0-.75-.25h-1.813Zm8.99,4.043v-5.9H121.14v-.521a.747.747,0,0,1,.75-.75h4.96v1.271h-2.1v5.9Zm10.074,0h-1.48V845.38l-2.605-4.5h1.813l1.521,3.084,1.23-2.668a.713.713,0,0,1,.688-.417h1.188l-2.355,4.5Zm-47.829,3.564h.571a.448.448,0,0,0,.187.342.771.771,0,0,0,.448.114.676.676,0,0,0,.383-.09.3.3,0,0,0,.13-.261q0-.261-.734-.424l-.016-.008-.065-.016a1.7,1.7,0,0,1-.554-.187.487.487,0,0,1-.228-.261.867.867,0,0,1,.2-1,1.274,1.274,0,0,1,.807-.22,1.152,1.152,0,0,1,.766.228.9.9,0,0,1,.293.66h-.326a.278.278,0,0,1-.269-.171.4.4,0,0,0-.114-.139.671.671,0,0,0-.4-.106.543.543,0,0,0-.35.09.3.3,0,0,0-.122.253q0,.22.473.326a1.423,1.423,0,0,0,.2.049q.147.049.257.077l.175.045.228.1a.706.706,0,0,1,.253.253.8.8,0,0,1,.09.375.842.842,0,0,1-.293.685,1.327,1.327,0,0,1-.831.228,1.254,1.254,0,0,1-.831-.236A.9.9,0,0,1,85.511,851.611Zm4.5.872h-.562V851.1a.335.335,0,0,0-.118-.285.427.427,0,0,0-.265-.09.41.41,0,0,0-.261.09.34.34,0,0,0-.114.285v1.385h-.57v-1.271a.822.822,0,0,1,.289-.742,1.264,1.264,0,0,1,.64-.2,1.654,1.654,0,0,1,.367.041.773.773,0,0,1,.326.163.72.72,0,0,1,.289-.151,1.609,1.609,0,0,1,.346-.053,1.227,1.227,0,0,1,.66.187.826.826,0,0,1,.3.758v1.271H91.05a.265.265,0,0,1-.277-.277V851.1a.335.335,0,0,0-.118-.285.436.436,0,0,0-.53,0,.335.335,0,0,0-.118.285v1.385Zm3.077-.09a1,1,0,0,1-.363.11,3.251,3.251,0,0,1-.338.02.854.854,0,0,1-.513-.159.6.6,0,0,1-.22-.526.566.566,0,0,1,.2-.489,1.15,1.15,0,0,1,.509-.2.485.485,0,0,0,.1-.012c.038-.008.081-.015.13-.02q.359-.049.359-.212a.154.154,0,0,0-.126-.159.841.841,0,0,0-.232-.037.6.6,0,0,0-.2.032.223.223,0,0,0-.13.122h-.546a.628.628,0,0,1,.228-.416.941.941,0,0,1,.628-.187,1.228,1.228,0,0,1,.685.155.523.523,0,0,1,.236.456v.742a.937.937,0,0,1-.118.509A.723.723,0,0,1,93.084,852.394Zm-.13-1a1.532,1.532,0,0,1-.318.106l-.187.041a.481.481,0,0,0-.212.106.331.331,0,0,0-.057.179.265.265,0,0,0,.073.2.309.309,0,0,0,.212.065.451.451,0,0,0,.489-.489Zm.82,1.092v-1.051a1.342,1.342,0,0,1,.094-.534.883.883,0,0,1,.257-.346,1.006,1.006,0,0,1,.363-.179,1.612,1.612,0,0,1,.428-.057H95v.579h-.187a.477.477,0,0,0-.35.114.489.489,0,0,0-.114.359v1.116Zm2.45,0a4.223,4.223,0,0,1-.583-.008q-.314-.024-.314-.4v-2.4h.293a.258.258,0,0,1,.187.082.267.267,0,0,1,.081.2v.367h.334v.114a.263.263,0,0,1-.081.2.274.274,0,0,1-.2.078h-.057v1.206q0,.139.163.139h.171Zm1.4,0v-2.51a.292.292,0,0,1,.293-.293h1.744v.481H98.2v.6h1.092v.188a.292.292,0,0,1-.293.293h-.8v.717h1.467v.522Zm3.778-2.812h.277a.261.261,0,0,1,.2.086.272.272,0,0,1,.081.192v1.589a.842.842,0,0,1-.334.782,1.368,1.368,0,0,1-.725.2,1.286,1.286,0,0,1-.416-.069.684.684,0,0,1-.326-.224,1.3,1.3,0,0,1-.236-.823,1.322,1.322,0,0,1,.236-.823.795.795,0,0,1,.986-.236.775.775,0,0,1,.261.253Zm-.929,1.711a.85.85,0,0,0,.122.5.4.4,0,0,0,.35.171.4.4,0,0,0,.342-.171.9.9,0,0,0,.114-.5.785.785,0,0,0-.122-.464.426.426,0,0,0-.35-.163.389.389,0,0,0-.334.171A.747.747,0,0,0,100.476,851.383Zm3.681-1.068v1.271a.814.814,0,0,1-.3.758,1.267,1.267,0,0,1-.66.179,1.31,1.31,0,0,1-.64-.2.809.809,0,0,1-.289-.742v-1.271h.57V851.7a.34.34,0,0,0,.114.285.41.41,0,0,0,.261.09.427.427,0,0,0,.265-.09.336.336,0,0,0,.118-.285v-1.108a.273.273,0,0,1,.077-.2.263.263,0,0,1,.2-.082Zm1.806,1.5h.408a.889.889,0,0,1-.342.521,1.037,1.037,0,0,1-.636.188.908.908,0,0,1-.725-.3,1.223,1.223,0,0,1-.261-.84,1.209,1.209,0,0,1,.253-.815.908.908,0,0,1,.725-.3.977.977,0,0,1,.758.293,1.12,1.12,0,0,1,.212.416h-.571a.484.484,0,0,0-.081-.122.392.392,0,0,0-.3-.114.4.4,0,0,0-.293.114.8.8,0,0,0-.147.538.762.762,0,0,0,.147.53.385.385,0,0,0,.318.13.462.462,0,0,0,.236-.057.115.115,0,0,0,.045-.029l.045-.045a.358.358,0,0,1,.065-.065A.225.225,0,0,1,105.962,851.815Zm2.091.579a1,1,0,0,1-.363.11,3.252,3.252,0,0,1-.338.02.854.854,0,0,1-.513-.159.6.6,0,0,1-.22-.526.567.567,0,0,1,.2-.489,1.15,1.15,0,0,1,.509-.2.486.486,0,0,0,.1-.012q.057-.012.13-.02.359-.049.359-.212a.154.154,0,0,0-.126-.159.84.84,0,0,0-.232-.037.6.6,0,0,0-.2.032.222.222,0,0,0-.13.122h-.546a.627.627,0,0,1,.228-.416.941.941,0,0,1,.628-.187,1.228,1.228,0,0,1,.685.155.523.523,0,0,1,.236.456v.742a.936.936,0,0,1-.118.509A.723.723,0,0,1,108.054,852.394Zm-.13-1a1.53,1.53,0,0,1-.318.106l-.187.041a.481.481,0,0,0-.212.106.331.331,0,0,0-.057.179.264.264,0,0,0,.073.2.309.309,0,0,0,.212.065.451.451,0,0,0,.489-.489Zm1.782,1.092a4.223,4.223,0,0,1-.583-.008q-.314-.024-.314-.4v-2.4h.293a.258.258,0,0,1,.187.082.267.267,0,0,1,.082.2v.367h.334v.114a.263.263,0,0,1-.081.2.274.274,0,0,1-.2.078h-.057v1.206q0,.139.163.139h.171Zm.306-2.8h.293a.278.278,0,0,1,.277.277v.171h-.571Zm0,.636h.293a.278.278,0,0,1,.277.277v1.891h-.571Zm1.073,1.972a.806.806,0,0,1-.244-.4,1.818,1.818,0,0,1-.073-.517,1.636,1.636,0,0,1,.061-.44.908.908,0,0,1,.191-.367.846.846,0,0,1,.546-.289,1.258,1.258,0,0,1,.6.053.831.831,0,0,1,.456.424,1.352,1.352,0,0,1,.139.628,1.554,1.554,0,0,1-.057.448,1.151,1.151,0,0,1-.147.318.814.814,0,0,1-.5.334,1.108,1.108,0,0,1-.542.012A.948.948,0,0,1,111.084,852.288Zm.391-1.434a.752.752,0,0,0-.155.558.888.888,0,0,0,.139.517.365.365,0,0,0,.171.11.389.389,0,0,0,.249.008.417.417,0,0,0,.224-.183.919.919,0,0,0,.106-.473.829.829,0,0,0-.094-.44.424.424,0,0,0-.216-.187.4.4,0,0,0-.244,0A.426.426,0,0,0,111.475,850.853Zm3.477,1.63h-.285a.265.265,0,0,1-.277-.277V851.1a.335.335,0,0,0-.118-.285.427.427,0,0,0-.265-.09.41.41,0,0,0-.261.09.34.34,0,0,0-.114.285v1.385h-.57v-1.271a.822.822,0,0,1,.289-.742,1.264,1.264,0,0,1,.64-.2,1.227,1.227,0,0,1,.66.187.826.826,0,0,1,.3.758Zm1.684-.09a1,1,0,0,1-.363.11,3.25,3.25,0,0,1-.338.02.854.854,0,0,1-.513-.159.6.6,0,0,1-.22-.526.567.567,0,0,1,.2-.489,1.15,1.15,0,0,1,.509-.2.485.485,0,0,0,.1-.012c.038-.008.081-.015.13-.02q.359-.049.359-.212a.154.154,0,0,0-.126-.159.84.84,0,0,0-.232-.037.6.6,0,0,0-.2.032.223.223,0,0,0-.13.122h-.546a.628.628,0,0,1,.228-.416.941.941,0,0,1,.628-.187,1.228,1.228,0,0,1,.685.155.523.523,0,0,1,.236.456v.742a.936.936,0,0,1-.118.509A.723.723,0,0,1,116.635,852.394Zm-.13-1a1.531,1.531,0,0,1-.318.106l-.187.041a.481.481,0,0,0-.212.106.331.331,0,0,0-.057.179.265.265,0,0,0,.073.2.309.309,0,0,0,.212.065.451.451,0,0,0,.489-.489Zm.844-1.711h.293a.275.275,0,0,1,.2.077.254.254,0,0,1,.082.192v2.535h-.571Zm2.023,1.932h.571a.448.448,0,0,0,.187.342.771.771,0,0,0,.448.114.676.676,0,0,0,.383-.09.3.3,0,0,0,.13-.261q0-.261-.734-.424l-.016-.008-.065-.016a1.7,1.7,0,0,1-.554-.187.487.487,0,0,1-.228-.261.867.867,0,0,1,.2-1,1.274,1.274,0,0,1,.807-.22,1.152,1.152,0,0,1,.766.228.9.9,0,0,1,.293.66h-.326a.278.278,0,0,1-.269-.171.4.4,0,0,0-.114-.139.671.671,0,0,0-.4-.106.543.543,0,0,0-.35.09.3.3,0,0,0-.122.253q0,.22.473.326a1.422,1.422,0,0,0,.2.049q.147.049.257.077l.175.045.228.1a.706.706,0,0,1,.253.253.8.8,0,0,1,.09.375.842.842,0,0,1-.293.685,1.327,1.327,0,0,1-.831.228,1.254,1.254,0,0,1-.831-.236A.9.9,0,0,1,119.372,851.611Zm2.874.676a.8.8,0,0,1-.244-.4,1.816,1.816,0,0,1-.073-.517,1.638,1.638,0,0,1,.061-.44.908.908,0,0,1,.192-.367.846.846,0,0,1,.546-.289,1.258,1.258,0,0,1,.6.053.831.831,0,0,1,.456.424,1.353,1.353,0,0,1,.139.628,1.553,1.553,0,0,1-.057.448,1.149,1.149,0,0,1-.147.318.814.814,0,0,1-.5.334,1.108,1.108,0,0,1-.542.012A.948.948,0,0,1,122.246,852.288Zm.391-1.434a.752.752,0,0,0-.155.558.887.887,0,0,0,.139.517.365.365,0,0,0,.171.11.389.389,0,0,0,.249.008.417.417,0,0,0,.224-.183.92.92,0,0,0,.106-.473.829.829,0,0,0-.094-.44.425.425,0,0,0-.216-.187.4.4,0,0,0-.245,0A.426.426,0,0,0,122.637,850.853Zm1.61-1.173h.293a.275.275,0,0,1,.2.077.254.254,0,0,1,.082.192v2.535h-.57Zm2.768.636v1.271a.814.814,0,0,1-.3.758,1.267,1.267,0,0,1-.66.179,1.31,1.31,0,0,1-.64-.2.809.809,0,0,1-.289-.742v-1.271h.57V851.7a.34.34,0,0,0,.114.285.41.41,0,0,0,.261.09.427.427,0,0,0,.265-.09.335.335,0,0,0,.118-.285v-1.108a.273.273,0,0,1,.077-.2.263.263,0,0,1,.2-.082Zm1.26,2.168a4.223,4.223,0,0,1-.583-.008q-.314-.024-.314-.4v-2.4h.293a.258.258,0,0,1,.187.082.267.267,0,0,1,.081.2v.367h.334v.114a.263.263,0,0,1-.081.2.274.274,0,0,1-.2.078h-.057v1.206q0,.139.163.139h.171Zm.306-2.8h.293a.278.278,0,0,1,.277.277v.171h-.571Zm0,.636h.293a.278.278,0,0,1,.277.277v1.891h-.571Zm1.073,1.972a.8.8,0,0,1-.244-.4,1.816,1.816,0,0,1-.073-.517,1.636,1.636,0,0,1,.061-.44.908.908,0,0,1,.191-.367.846.846,0,0,1,.546-.289,1.258,1.258,0,0,1,.6.053.831.831,0,0,1,.456.424,1.352,1.352,0,0,1,.139.628,1.553,1.553,0,0,1-.057.448,1.15,1.15,0,0,1-.147.318.814.814,0,0,1-.5.334,1.108,1.108,0,0,1-.542.012A.948.948,0,0,1,129.654,852.288Zm.391-1.434a.751.751,0,0,0-.155.558.888.888,0,0,0,.139.517.366.366,0,0,0,.171.11.389.389,0,0,0,.249.008.417.417,0,0,0,.224-.183.919.919,0,0,0,.106-.473.829.829,0,0,0-.094-.44.424.424,0,0,0-.216-.187.4.4,0,0,0-.245,0A.426.426,0,0,0,130.045,850.853Zm3.477,1.63h-.285a.265.265,0,0,1-.277-.277V851.1a.335.335,0,0,0-.118-.285.427.427,0,0,0-.265-.09.41.41,0,0,0-.261.09.34.34,0,0,0-.114.285v1.385h-.57v-1.271a.822.822,0,0,1,.289-.742,1.264,1.264,0,0,1,.64-.2,1.227,1.227,0,0,1,.66.187.826.826,0,0,1,.3.758Zm.249-.717h.554a.3.3,0,0,0,.122.245.58.58,0,0,0,.326.082.525.525,0,0,0,.253-.057.173.173,0,0,0,.1-.155q0-.147-.342-.22a1.559,1.559,0,0,1-.22-.049,1.285,1.285,0,0,1-.579-.253.5.5,0,0,1-.163-.391.649.649,0,0,1,.236-.513,1.016,1.016,0,0,1,.636-.187,1.11,1.11,0,0,1,.676.187.718.718,0,0,1,.253.53h-.35a.259.259,0,0,1-.236-.138l-.065-.065a.439.439,0,0,0-.269-.073.486.486,0,0,0-.245.049.165.165,0,0,0-.073.147q0,.13.424.22a.863.863,0,0,0,.086.024.316.316,0,0,0,.069.008,1.51,1.51,0,0,1,.579.245.514.514,0,0,1,.155.391.652.652,0,0,1-.261.554,1.236,1.236,0,0,1-.733.179,1.075,1.075,0,0,1-.693-.187.655.655,0,0,1-.236-.546Z" transform="translate(0 -771.416)" fill="url(#linear-gradient)"/>
  </g>
</svg>
