<svg id="Layer_1" data-name="Layer 1" xmlns="http://www.w3.org/2000/svg" viewBox="0 0 1080 1080"><path d="M154.39,394.37c0,204.18,173,370.26,385.58,370.26,174.66,0,322.55-112,369.78-265.19.83-2.8,1.67-5.54,2.44-8.34.72-2.45,1.38-4.83,2-7.28.18-.83.42-1.67.66-2.5.53-2.39,1.13-4.77,1.67-7.16.83-3.52,1.55-7,2.26-10.55.48-2.21.9-4.48,1.26-6.68s.77-4.42,1.13-6.68c.3-1.79.6-3.58.77-5.37s.54-3.7.78-5.48c.42-3,.72-5.91,1-8.89.3-2.56.54-5.13.72-7.69.12-1.49.24-3,.3-4.48.36-4.77.59-9.6.71-14.43.06-3.16.12-6.38.12-9.54s-.06-6.38-.12-9.54c-.12-4.83-.35-9.66-.71-14.43-.06-1.49-.18-3-.3-4.47q-.27-3.85-.72-7.69c-.29-3-.59-5.91-1-8.89-.24-1.79-.48-3.64-.78-5.49s-.47-3.57-.77-5.36c-.36-2.27-.72-4.48-1.13-6.68s-.78-4.47-1.26-6.68c-.71-3.52-1.43-7-2.26-10.56-.54-2.38-1.14-4.77-1.67-7.15-.24-.84-.48-1.67-.66-2.51-.65-2.44-1.31-4.83-2-7.27-.77-2.8-1.61-5.55-2.44-8.35C862.52,136.17,714.63,24.18,540,24.18,327.38,24.18,154.39,190.25,154.39,394.37ZM584.46,723.13a327.52,327.52,0,0,1-165-44.31c-98-57-163.81-163-163.81-284.45S321.54,166.94,419.51,110a327.52,327.52,0,0,1,165-44.31c181.52,0,328.69,147.17,328.69,328.69S766,723.13,584.46,723.13Z" style="fill:#fff"/><path d="M612.26,324a68.38,68.38,0,1,0,70.67,66A68.46,68.46,0,0,0,612.26,324Zm3.39,99.75A31.42,31.42,0,1,1,646,391.28,31.43,31.43,0,0,1,615.65,423.75ZM849,391.55a33.11,33.11,0,0,0-19.86-9.86C783.39,319.25,707.4,278.32,623.79,272.74c-92.81-6.19-182.1,32-234.73,100a312.39,312.39,0,0,1-26.44-33.7,31.41,31.41,0,0,0,3-29h0a31.25,31.25,0,0,0-5.56-9c22.81-28,49.45-52,79.25-70.46a303.73,303.73,0,0,1,121.83-44,295.29,295.29,0,0,1,236.16,72.54l0,0,.09.09a33.29,33.29,0,1,0,44.28-49.73,338.21,338.21,0,0,0-136.32-73.84,332.53,332.53,0,0,0-153.94-4.74c-50.33,10.47-98,32.76-137.25,64.68-32.39,26.36-59.42,58.72-78.57,94.71a31.08,31.08,0,0,0-10.82,2.19A31.39,31.39,0,0,0,335,353a309.52,309.52,0,0,0,75.26,99.31,317.37,317.37,0,0,0,140.1,70.76,324.7,324.7,0,0,0,159-4.54,327.9,327.9,0,0,0,78.93-34.13,286.61,286.61,0,0,1-43,47.43A283.41,283.41,0,0,1,625.66,595,274.32,274.32,0,0,1,376.6,534.52l-.05,0-.08-.07a33.3,33.3,0,1,0-44,50,323,323,0,0,0,146.47,73.51,315.05,315.05,0,0,0,162.44-8.61c51.82-16.77,98.87-47.17,134.46-87,30.1-33.73,52.49-73.78,64.49-116.19q4-3.61,7.89-7.34l0,0,.07-.07A33.31,33.31,0,0,0,849,391.55ZM798.35,214.08a27.73,27.73,0,1,1,.61,39.2A27.71,27.71,0,0,1,798.35,214.08ZM345.73,344.84a25,25,0,1,1,13.93-32.42A25,25,0,0,1,345.73,344.84Zm30,234.8a27.73,27.73,0,1,1-.7-39.21A27.73,27.73,0,0,1,375.76,579.64ZM691,457a284.27,284.27,0,0,1-129.78,9.68,292.08,292.08,0,0,1-122.68-49.94q-9.75-6.85-18.94-14.54c43.69-59.27,120.75-92.76,201.35-87.36,68.66,4.58,131,36.79,169.91,86.15A282.17,282.17,0,0,1,691,457ZM843.9,434.2A27.73,27.73,0,1,1,843,395,27.73,27.73,0,0,1,843.9,434.2Z" style="fill:#fff"/><path d="M85.51,933.91h26.43q1.5,11.33,8.68,15.85,7.55,5.29,20.76,5.29,11.7,0,17.74-4.15t6-12.08q0-12.09-34-19.63l-.76-.38-3-.76q-19.25-4.14-25.67-8.68a22.54,22.54,0,0,1-10.57-12.08q-3.77-6.79-3.77-17.36,0-18.49,12.83-29.07,12.84-10.18,37.37-10.19,23,0,35.49,10.57,12.82,11.7,13.59,30.58h-15.1q-8.69,0-12.46-7.93a18.77,18.77,0,0,0-5.28-6.42q-6.79-4.9-18.5-4.91-11.32,0-16.23,4.16-5.67,4.15-5.66,11.7,0,10.19,21.89,15.1a66.53,66.53,0,0,0,9.44,2.26q6.79,2.26,11.89,3.59c3.39.88,6.1,1.57,8.11,2.07L175.35,906a32.66,32.66,0,0,1,11.7,11.71A36.81,36.81,0,0,1,191.21,935q0,20.38-13.59,31.71Q164,977.33,139.11,977.32q-25.67,0-38.5-11Q86.65,955.44,85.51,933.91ZM235.15,974.3V858a13.1,13.1,0,0,1,4-9.62,14.54,14.54,0,0,1,9.62-4.34h26l25.67,99.28,25.67-99.28h39.63V974.3H340.84V869.36L314.42,974.3H286.86l-26.8-104.94V974.3ZM466.69,844.45h21.14L535,974.3H506.71L498,947.5H447.44l-8.3,26.8H410.83l43-121.17Q457.25,844.45,466.69,844.45Zm6,26L454.61,925.6h36.24Zm107,103.81V858a13.52,13.52,0,0,1,13.59-13.58h49.45q21.13,0,31.33,9,10.56,9.45,10.57,27.56,0,12.09-5.28,20Q674.84,908.62,665,912q8.68,3,12.08,9.06,3.4,5.67,4.15,19.26L682,955.8v4.91a29,29,0,0,0,.38,4.91q1.13,6.79,4.53,8.68H657.47a21.93,21.93,0,0,1-2.26-7.93,78.7,78.7,0,0,1-.76-8.3l-.37-14q-.76-11.33-4.53-16.23-4.17-4.15-14.73-4.15H606.51V974.3Zm26.8-73.23h31.33q10.2,0,15.1-4.15t4.91-12.84q0-8.69-4.91-12.83-4.53-4.53-13.59-4.53H606.51ZM769.36,974.3V867.47h-38.5V858a13.52,13.52,0,0,1,13.58-13.58h89.85v23H796.16V974.3Zm182.47,0H925V926l-47.18-81.53h32.84l27.55,55.86L960.52,852q3.76-7.54,12.45-7.54h21.52L951.83,926ZM85.51,1038.85H95.84q.6,4.43,3.4,6.2c2,1.38,4.67,2.06,8.12,2.06,3,0,5.36-.53,6.94-1.62a5.38,5.38,0,0,0,2.36-4.72q0-4.73-13.29-7.68l-.29-.15-1.18-.29q-7.53-1.62-10-3.4a8.76,8.76,0,0,1-4.13-4.72,13.82,13.82,0,0,1-1.48-6.79q0-7.23,5-11.37,5-4,14.61-4,9,0,13.88,4.13a16.4,16.4,0,0,1,5.31,12h-5.9a5,5,0,0,1-4.87-3.1,7.27,7.27,0,0,0-2.07-2.51A12.11,12.11,0,0,0,105,1011c-3,0-5.07.54-6.35,1.62a5.35,5.35,0,0,0-2.22,4.58q0,4,8.57,5.9a25.42,25.42,0,0,0,3.69.89q2.66.88,4.65,1.4c1.33.35,2.38.62,3.17.81l4.13,1.77a12.8,12.8,0,0,1,4.58,4.58,14.45,14.45,0,0,1,1.62,6.79q0,8-5.31,12.4-5.31,4.14-15.06,4.13-10,0-15-4.28Q85.95,1047.27,85.51,1038.85Zm81.43,15.79H156.75v-25.09q0-3.54-2.14-5.17a7.75,7.75,0,0,0-4.8-1.62,7.45,7.45,0,0,0-4.72,1.62Q143,1026,143,1029.55v25.09H132.69v-23q0-10,5.24-13.43a23,23,0,0,1,11.59-3.69,30,30,0,0,1,6.64.74,14,14,0,0,1,5.91,2.95,13,13,0,0,1,5.24-2.73,29.39,29.39,0,0,1,6.27-1,22.17,22.17,0,0,1,12,3.4q5.46,3.39,5.46,13.72v23h-5.17a4.81,4.81,0,0,1-5-5v-20.07q0-3.54-2.14-5.17a7.91,7.91,0,0,0-9.59,0q-2.15,1.63-2.14,5.17v25.09Zm55.74-1.62a18.15,18.15,0,0,1-6.57,2,57.7,57.7,0,0,1-6.13.37,15.47,15.47,0,0,1-9.3-2.88q-4-2.88-4-9.52,0-6.2,3.61-8.86a20.86,20.86,0,0,1,9.23-3.54,8.49,8.49,0,0,0,1.77-.22c.69-.15,1.48-.27,2.36-.37q6.5-.88,6.5-3.84a2.8,2.8,0,0,0-2.29-2.88,15.31,15.31,0,0,0-4.21-.66,10.86,10.86,0,0,0-3.69.59,4,4,0,0,0-2.36,2.21h-9.89a11.36,11.36,0,0,1,4.13-7.52q4-3.4,11.37-3.4,8.27,0,12.4,2.81a9.48,9.48,0,0,1,4.28,8.26V1039c0,3.93-.71,7-2.14,9.22A13,13,0,0,1,222.68,1053Zm-2.36-18.16a27.82,27.82,0,0,1-5.76,1.92l-3.4.74a8.58,8.58,0,0,0-3.83,1.92,6,6,0,0,0-1,3.25,4.82,4.82,0,0,0,1.33,3.54,5.59,5.59,0,0,0,3.84,1.18,8.18,8.18,0,0,0,8.86-8.86Zm14.85,19.78v-19a24.35,24.35,0,0,1,1.69-9.67,16,16,0,0,1,4.65-6.27,18.23,18.23,0,0,1,6.57-3.25,29.14,29.14,0,0,1,7.75-1h1.48v10.48h-3.4c-2.85,0-5,.69-6.34,2.06s-2.07,3.55-2.07,6.5v20.22Zm44.37,0a76.82,76.82,0,0,1-10.55-.14q-5.69-.45-5.69-7.24v-43.4h5.32a4.67,4.67,0,0,1,3.39,1.48,4.8,4.8,0,0,1,1.48,3.54v6.64h6.05v2.07a4.79,4.79,0,0,1-1.47,3.62,5,5,0,0,1-3.55,1.4h-1v21.85c0,1.67,1,2.51,2.95,2.51h3.1Zm25.42,0v-45.46a5.29,5.29,0,0,1,5.32-5.32h31.59v8.71H315.29v10.93h19.79v3.39a5.31,5.31,0,0,1-5.32,5.32H315.29v13h26.58v9.44Zm68.44-50.93h5a4.75,4.75,0,0,1,3.54,1.55,5,5,0,0,1,1.48,3.47v28.79q0,10.49-6.06,14.17a24.75,24.75,0,0,1-13.13,3.69,23.37,23.37,0,0,1-7.53-1.25,12.46,12.46,0,0,1-5.91-4.06q-4.28-5.46-4.28-14.91,0-9.3,4.28-14.91a14.37,14.37,0,0,1,17.86-4.28,14.09,14.09,0,0,1,4.73,4.57Zm-16.83,31q0,5.91,2.21,9a7.32,7.32,0,0,0,6.35,3.1,7.18,7.18,0,0,0,6.2-3.1q2.07-3.1,2.07-9,0-5.31-2.22-8.41a7.69,7.69,0,0,0-6.34-2.95,7.05,7.05,0,0,0-6.06,3.1Q356.58,1029.41,356.57,1034.71Zm66.66-19.33v23q0,10.47-5.46,13.72a22.93,22.93,0,0,1-12,3.25,23.77,23.77,0,0,1-11.58-3.54q-5.25-3.25-5.24-13.43v-23h10.33v25.09c0,2.36.69,4.09,2.07,5.17a7.43,7.43,0,0,0,4.72,1.62,7.77,7.77,0,0,0,4.8-1.62c1.42-1.08,2.14-2.81,2.14-5.17V1020.4a5,5,0,0,1,1.4-3.55,4.77,4.77,0,0,1,3.62-1.47ZM456,1042.54h7.38a16.18,16.18,0,0,1-6.2,9.45,18.85,18.85,0,0,1-11.52,3.39q-8.42,0-13.14-5.46-4.73-5.31-4.72-15.21,0-9.43,4.58-14.76t13.14-5.46q8.85,0,13.72,5.32a20.1,20.1,0,0,1,3.84,7.52H452.7a8.85,8.85,0,0,0-1.48-2.21,7.08,7.08,0,0,0-5.46-2.07,7.16,7.16,0,0,0-5.31,2.07q-2.67,3-2.66,9.74t2.66,9.6a7,7,0,0,0,5.75,2.36,8.35,8.35,0,0,0,4.28-1,2.08,2.08,0,0,0,.82-.52l.81-.81a6.06,6.06,0,0,1,1.18-1.18A4,4,0,0,1,456,1042.54ZM493.83,1053a18.15,18.15,0,0,1-6.57,2,57.86,57.86,0,0,1-6.13.37,15.47,15.47,0,0,1-9.3-2.88q-4-2.88-4-9.52,0-6.2,3.62-8.86a20.86,20.86,0,0,1,9.23-3.54,8.49,8.49,0,0,0,1.77-.22,23.6,23.6,0,0,1,2.36-.37q6.49-.88,6.5-3.84a2.81,2.81,0,0,0-2.29-2.88,15.31,15.31,0,0,0-4.21-.66,10.82,10.82,0,0,0-3.69.59,4,4,0,0,0-2.36,2.21h-9.89a11.36,11.36,0,0,1,4.13-7.52q4-3.4,11.37-3.4,8.26,0,12.4,2.81a9.48,9.48,0,0,1,4.28,8.26V1039c0,3.93-.72,7-2.14,9.22A13.1,13.1,0,0,1,493.83,1053Zm-2.37-18.16a27.91,27.91,0,0,1-5.75,1.92l-3.4.74a8.69,8.69,0,0,0-3.84,1.92,6,6,0,0,0-1,3.25,4.78,4.78,0,0,0,1.33,3.54,5.57,5.57,0,0,0,3.84,1.18,8.17,8.17,0,0,0,8.85-8.86Zm32.27,19.78a76.82,76.82,0,0,1-10.55-.14q-5.68-.45-5.69-7.24v-43.4h5.32a4.67,4.67,0,0,1,3.39,1.48,4.8,4.8,0,0,1,1.48,3.54v6.64h6.05v2.07a4.79,4.79,0,0,1-1.47,3.62,5,5,0,0,1-3.55,1.4h-1v21.85c0,1.67,1,2.51,3,2.51h3.1Zm5.55-50.78h5.32a5.05,5.05,0,0,1,5,5v3.1H529.28Zm0,11.52h5.32a5,5,0,0,1,5,5v34.24H529.28Zm19.43,35.72a14.61,14.61,0,0,1-4.43-7.16,33.16,33.16,0,0,1-1.33-9.37,29.53,29.53,0,0,1,1.11-8,16.41,16.41,0,0,1,3.47-6.65,15.32,15.32,0,0,1,9.89-5.24,22.76,22.76,0,0,1,10.92,1,15.07,15.07,0,0,1,8.27,7.68,24.51,24.51,0,0,1,2.51,11.36,28.34,28.34,0,0,1-1,8.12,20.78,20.78,0,0,1-2.66,5.76,14.72,14.72,0,0,1-9,6.05,20,20,0,0,1-9.81.22A17.11,17.11,0,0,1,548.71,1051.1Zm7.08-26q-3.09,3.39-2.8,10.11c.2,4.48,1,7.6,2.51,9.38a6.65,6.65,0,0,0,3.1,2,7.07,7.07,0,0,0,4.5.15,7.54,7.54,0,0,0,4.06-3.33q1.77-2.65,1.92-8.56,0-5.31-1.7-8a7.64,7.64,0,0,0-3.91-3.39,7.14,7.14,0,0,0-4.43-.08A7.7,7.7,0,0,0,555.79,1025.12Zm63,29.52H613.6a4.81,4.81,0,0,1-5-5v-20.07q0-3.54-2.14-5.17a7.72,7.72,0,0,0-4.79-1.62,7.45,7.45,0,0,0-4.73,1.62c-1.38,1.09-2.06,2.81-2.06,5.17v25.09H584.52v-23q0-10,5.24-13.43a23,23,0,0,1,11.59-3.69,22.17,22.17,0,0,1,12,3.4q5.46,3.39,5.46,13.72Zm30.5-1.62a18.15,18.15,0,0,1-6.57,2,57.86,57.86,0,0,1-6.13.37,15.47,15.47,0,0,1-9.3-2.88q-4-2.88-4-9.52,0-6.2,3.61-8.86a20.86,20.86,0,0,1,9.23-3.54,8.49,8.49,0,0,0,1.77-.22c.69-.15,1.48-.27,2.36-.37q6.5-.88,6.5-3.84a2.81,2.81,0,0,0-2.29-2.88,15.31,15.31,0,0,0-4.21-.66,10.82,10.82,0,0,0-3.69.59,4,4,0,0,0-2.36,2.21h-9.89a11.36,11.36,0,0,1,4.13-7.52q4-3.4,11.37-3.4,8.26,0,12.4,2.81a9.48,9.48,0,0,1,4.28,8.26V1039c0,3.93-.71,7-2.14,9.22A13,13,0,0,1,649.27,1053Zm-2.36-18.16a27.82,27.82,0,0,1-5.76,1.92l-3.4.74a8.58,8.58,0,0,0-3.83,1.92,6,6,0,0,0-1,3.25,4.78,4.78,0,0,0,1.33,3.54,5.59,5.59,0,0,0,3.84,1.18,8.18,8.18,0,0,0,8.86-8.86Zm15.29-31h5.31a5,5,0,0,1,3.55,1.4,4.62,4.62,0,0,1,1.47,3.47v45.91H662.2Zm36.64,35h10.33c.39,3,1.53,5,3.4,6.2,2,1.38,4.67,2.06,8.12,2.06,3,0,5.36-.53,6.93-1.62a5.37,5.37,0,0,0,2.37-4.72q0-4.73-13.29-7.68l-.3-.15-1.18-.29q-7.53-1.62-10-3.4a8.82,8.82,0,0,1-4.14-4.72,13.94,13.94,0,0,1-1.47-6.79q0-7.23,5-11.37,5-4,14.62-4,9,0,13.88,4.13a16.4,16.4,0,0,1,5.31,12h-5.91a5,5,0,0,1-4.87-3.1,7.24,7.24,0,0,0-2.06-2.51,12.15,12.15,0,0,0-7.24-1.92c-3,0-5.07.54-6.34,1.62a5.35,5.35,0,0,0-2.22,4.58q0,4,8.56,5.9a25.74,25.74,0,0,0,3.69.89c1.78.59,3.32,1.06,4.65,1.4s2.39.62,3.18.81l4.13,1.77a12.88,12.88,0,0,1,4.58,4.58,14.45,14.45,0,0,1,1.62,6.79q0,8-5.31,12.4-5.33,4.14-15.06,4.13-10,0-15.06-4.28Q699.28,1047.27,698.84,1038.85Zm52,12.25a14.61,14.61,0,0,1-4.43-7.16,32.8,32.8,0,0,1-1.33-9.37,29.53,29.53,0,0,1,1.11-8,16.41,16.41,0,0,1,3.47-6.65,15.32,15.32,0,0,1,9.89-5.24,22.78,22.78,0,0,1,10.92,1,15.07,15.07,0,0,1,8.27,7.68,24.51,24.51,0,0,1,2.51,11.36,28,28,0,0,1-1,8.12,20.77,20.77,0,0,1-2.65,5.76,14.72,14.72,0,0,1-9,6.05,20,20,0,0,1-9.81.22A17.11,17.11,0,0,1,750.89,1051.1Zm7.08-26q-3.09,3.39-2.8,10.11c.2,4.48,1,7.6,2.51,9.38a6.65,6.65,0,0,0,3.1,2,7.07,7.07,0,0,0,4.5.15,7.54,7.54,0,0,0,4.06-3.33q1.77-2.65,1.92-8.56,0-5.31-1.7-8a7.64,7.64,0,0,0-3.91-3.39,7.14,7.14,0,0,0-4.43-.08A7.7,7.7,0,0,0,758,1025.12Zm29.17-21.26h5.32a5,5,0,0,1,3.54,1.4,4.63,4.63,0,0,1,1.48,3.47v45.91H787.14Zm50.13,11.52v23q0,10.47-5.46,13.72a22.92,22.92,0,0,1-11.95,3.25,23.77,23.77,0,0,1-11.59-3.54q-5.25-3.25-5.24-13.43v-23h10.33v25.09c0,2.36.69,4.09,2.07,5.17a7.43,7.43,0,0,0,4.72,1.62,7.77,7.77,0,0,0,4.8-1.62c1.42-1.08,2.14-2.81,2.14-5.17V1020.4a5,5,0,0,1,1.4-3.55,4.79,4.79,0,0,1,3.62-1.47Zm22.83,39.26a77,77,0,0,1-10.56-.14q-5.68-.45-5.68-7.24v-43.4h5.31a4.71,4.71,0,0,1,3.4,1.48,4.83,4.83,0,0,1,1.47,3.54v6.64h6.06v2.07a4.79,4.79,0,0,1-1.48,3.62,5,5,0,0,1-3.54,1.4h-1v21.85c0,1.67,1,2.51,3,2.51h3.1Zm5.55-50.78H871a5.05,5.05,0,0,1,5,5v3.1H865.65Zm0,11.52H871a5,5,0,0,1,5,5v34.24H865.65Zm19.42,35.72a14.59,14.59,0,0,1-4.42-7.16,32.8,32.8,0,0,1-1.33-9.37,29.92,29.92,0,0,1,1.1-8,16.53,16.53,0,0,1,3.47-6.65,15.35,15.35,0,0,1,9.89-5.24,22.81,22.81,0,0,1,10.93,1,15.05,15.05,0,0,1,8.26,7.68,24.39,24.39,0,0,1,2.51,11.36,28,28,0,0,1-1,8.12,20.78,20.78,0,0,1-2.66,5.76,14.69,14.69,0,0,1-9,6.05,20,20,0,0,1-9.82.22A17.11,17.11,0,0,1,885.07,1051.1Zm7.09-26q-3.1,3.39-2.81,10.11c.2,4.48,1,7.6,2.51,9.38a6.71,6.71,0,0,0,3.1,2,7.1,7.1,0,0,0,4.51.15,7.57,7.57,0,0,0,4.06-3.33q1.77-2.65,1.92-8.56,0-5.31-1.7-8a7.71,7.71,0,0,0-3.91-3.39,7.14,7.14,0,0,0-4.43-.08A7.63,7.63,0,0,0,892.16,1025.12Zm63,29.52H950a4.8,4.8,0,0,1-5-5v-20.07c0-2.36-.72-4.08-2.14-5.17a7.77,7.77,0,0,0-4.8-1.62,7.43,7.43,0,0,0-4.72,1.62q-2.07,1.63-2.07,5.17v25.09H920.89v-23q0-10,5.24-13.43a22.92,22.92,0,0,1,11.58-3.69,22.17,22.17,0,0,1,12,3.4q5.46,3.39,5.46,13.72Zm4.52-13h10a5.43,5.43,0,0,0,2.21,4.43,10.47,10.47,0,0,0,5.91,1.48,9.49,9.49,0,0,0,4.57-1,3.12,3.12,0,0,0,1.78-2.8q0-2.65-6.2-4a28.33,28.33,0,0,1-4-.88q-7.83-1.92-10.48-4.58a9,9,0,0,1-3-7.08,11.74,11.74,0,0,1,4.28-9.3q4.42-3.4,11.51-3.4,7.68,0,12.25,3.4a13,13,0,0,1,4.58,9.59h-6.35a4.68,4.68,0,0,1-4.28-2.51l-1.18-1.18a8,8,0,0,0-4.87-1.33,8.77,8.77,0,0,0-4.43.89,3,3,0,0,0-1.33,2.66q0,2.35,7.68,4a13.27,13.27,0,0,0,1.55.44,5.67,5.67,0,0,0,1.25.15q7.53,1.92,10.48,4.43a9.3,9.3,0,0,1,2.81,7.09,11.81,11.81,0,0,1-4.72,10q-4.44,3.25-13.29,3.25-8.41,0-12.55-3.39t-4.28-9.89Z" style="fill:#fff"/></svg>