<svg id="Layer_1" data-name="Layer 1" xmlns="http://www.w3.org/2000/svg" viewBox="0 0 3061.42 3061.42"><path d="M462.47,2067.62,320.54,2499.73H234.06L92.74,2067.62H191L277.15,2356l86.48-288.38Z" style="fill:#fff"/><path d="M713.67,2499.73H627.18V2067.62h86.49Z" style="fill:#fff"/><path d="M1247.51,2067.62l-141.93,432.11H1019.1L877.77,2067.62H976L1062.19,2356l86.48-288.38Z" style="fill:#fff"/><path d="M1498.7,2499.73h-86.48V2067.62h86.48Z" style="fill:#fff"/><path d="M2048.52,2283.68A213.27,213.27,0,0,1,2019,2392.6a222.53,222.53,0,0,1-33.75,43.7,214.61,214.61,0,0,1-152.78,63.43H1702.29V2067.62h130.17a212.85,212.85,0,0,1,57.4,7.68,215.07,215.07,0,0,1,95.38,55.75,222.85,222.85,0,0,1,33.75,43.69A213.23,213.23,0,0,1,2048.52,2283.68Zm-86.48,0a126.15,126.15,0,0,0-10.1-50.33,130.26,130.26,0,0,0-69-69,125.65,125.65,0,0,0-50.47-10.24h-43.09v259.14h43.09a127,127,0,0,0,50.47-10.1,128.93,128.93,0,0,0,69-69,127.16,127.16,0,0,0,10.06-50.47Z" style="fill:#fff"/><path d="M2531.74,2499.73H2229.2V2067.62h86.48v345.63h216.06Z" style="fill:#fff"/><path d="M2839,2499.73h-86.19V2364.44a168.54,168.54,0,0,1-52.58-23.21,172.43,172.43,0,0,1-67.8-87.24,170,170,0,0,1-9.49-56.8V2067.62h86.49v129.57a84.33,84.33,0,0,0,6.78,33.6,86.49,86.49,0,0,0,159.4,0,84.33,84.33,0,0,0,6.78-33.6V2067.62h86.18v129.57a169.46,169.46,0,0,1-9.49,56.8,173.2,173.2,0,0,1-67.65,87.24,166.63,166.63,0,0,1-52.43,23.21Z" style="fill:#fff"/><path d="M770.4,2761.72q-10.27,9.06-28.93,9.07a91.59,91.59,0,0,1-34.93-6.51v-14.72a89.05,89.05,0,0,0,34.42,7.36q10.6,0,16.69-5.39t6.07-15q0-10.62-5-15.67t-15.07-6.42a68.41,68.41,0,0,1-13.52-2.74,45,45,0,0,1-11.21-5.48,22.63,22.63,0,0,1-8.22-9.93,36.68,36.68,0,0,1-2.83-15.06q0-16.26,8.73-25.43t26.37-9.15A85.58,85.58,0,0,1,775.5,2653v14a83.53,83.53,0,0,0-31.67-6.34q-9.76,0-14.64,5.23t-4.88,14q0,10.1,5.56,14.21t16.18,5.65a66,66,0,0,1,13.1,3,41.82,41.82,0,0,1,10.78,5.83,23.88,23.88,0,0,1,8,10.61,43.63,43.63,0,0,1,2.74,16.35Q780.67,2752.64,770.4,2761.72Z" style="fill:#fff"/><path d="M795.22,2681.08q0-16.78,10.87-25.51t27.82-8.73q17,0,27.82,8.73t10.87,25.51v55.29q0,16.78-10.87,25.6t-27.82,8.82q-16.95,0-27.82-8.82t-10.87-25.6Zm16.09,52.73q0,12.15,6.25,17.63t16.35,5.48q22.26,0,22.26-23.11v-50q0-23.1-22.26-23.11-10.1,0-16.35,5.48t-6.25,17.63Z" style="fill:#fff"/><path d="M934.73,2648.89l23.63,83.38a123,123,0,0,1,3.94,19,104.15,104.15,0,0,1,3.76-18.83l23.8-83.55h16.61l-36.64,119.84H954.59l-36.8-119.84Z" style="fill:#fff"/><path d="M1016.74,2648.89h16.43v119.84h-16.43Z" style="fill:#fff"/><path d="M1059.87,2648.89l23.63,83.38a123,123,0,0,1,3.94,19,104.15,104.15,0,0,1,3.76-18.83l23.8-83.55h16.61L1095,2768.73h-15.24L1043,2648.89Z" style="fill:#fff"/><path d="M1141.87,2648.89h16.44v119.84h-16.44Z" style="fill:#fff"/><path d="M1177.13,2648.89h39.38q16.44,0,25.77,9.5t9.33,26.8v47.25q0,17.29-9.33,26.79t-25.77,9.5h-39.38Zm39.38,106q18.84,0,18.83-24.83V2687.6q0-24.64-18.83-24.65h-22.94v91.94Z" style="fill:#fff"/><path d="M1263.24,2782.43a27.37,27.37,0,0,0,5.65-13.18q-6.33-2.23-6.33-8.74,0-4.78,2.91-7.35a10.66,10.66,0,0,1,7.36-2.58,10.87,10.87,0,0,1,7.62,2.58q2.82,2.57,2.82,7.35a27.22,27.22,0,0,1-2.91,11.39,47.37,47.37,0,0,1-6.5,10.53Z" style="fill:#fff"/><path d="M1335.31,2648.89h63.52v14h-47.08v37.84h39.37v13.69h-39.37v40.41h48.45v13.86h-64.89Z" style="fill:#fff"/><path d="M1479.8,2768.73l-8.73-28.93H1431l-8.56,28.93h-16.78l38.18-119.84h14.89l38,119.84Zm-45-41.94h32.53L1455,2685.36q-1.2-4.8-3.94-19a88.17,88.17,0,0,1-3.77,18.83Z" style="fill:#fff"/><path d="M1568.13,2761.72q-10.26,9.06-28.93,9.07a91.59,91.59,0,0,1-34.93-6.51v-14.72a89.05,89.05,0,0,0,34.42,7.36q10.61,0,16.69-5.39t6.08-15q0-10.62-5-15.67t-15.07-6.42a68.41,68.41,0,0,1-13.52-2.74,45,45,0,0,1-11.21-5.48,22.63,22.63,0,0,1-8.22-9.93,36.88,36.88,0,0,1-2.83-15.06q0-16.26,8.74-25.43t26.36-9.15a85.58,85.58,0,0,1,32.53,6.33v14a83.53,83.53,0,0,0-31.67-6.34q-9.77,0-14.64,5.23t-4.88,14q0,10.1,5.56,14.21t16.18,5.65a66,66,0,0,1,13.1,3,41.88,41.88,0,0,1,10.79,5.83,24,24,0,0,1,8,10.61,43.66,43.66,0,0,1,2.74,16.35Q1578.41,2752.64,1568.13,2761.72Z" style="fill:#fff"/><path d="M1599.8,2648.89l23.45,44.34a103.73,103.73,0,0,1,6.51,15.41c.11-.34.54-1.34,1.28-3l2.57-5.74c1-2.17,2-4.39,3.17-6.68l23.28-44.34h18.15l-40.58,72.93v46.91h-15.92v-46.91l-40.57-72.93Z" style="fill:#fff"/><path d="M1759.52,2721h-18.66v47.76h-16.44V2648.89h39.38q16.1,0,25.68,8.82t9.59,22.86v8.73a31.16,31.16,0,0,1-6,19.17,29.79,29.79,0,0,1-16.6,11l24.65,49.3h-18.66Zm-18.66-13.87h22.94q8.73,0,13.7-5.73t5-15v-3.09q0-9.41-4.88-14.89t-13.78-5.48H1740.9Z" style="fill:#fff"/><path d="M1815.16,2648.89h63.51v14h-47.08v37.84H1871v13.69h-39.38v40.41H1880v13.86h-64.88Z" style="fill:#fff"/><path d="M1959.64,2768.73l-8.73-28.93h-40.06l-8.56,28.93h-16.78l38.18-119.84h14.89l38,119.84Zm-45-41.94h32.53l-12.33-41.43q-1.2-4.8-3.94-19a88.17,88.17,0,0,1-3.77,18.83Z" style="fill:#fff"/><path d="M2048,2765.14a74.59,74.59,0,0,1-29.61,5.65q-17.13,0-26.71-8.65t-9.59-25.59v-55.47q0-16.95,9.59-25.6t26.71-8.64a74.42,74.42,0,0,1,29.61,5.65V2666a78.93,78.93,0,0,0-27.9-5.13q-21.75,0-21.74,22.93v50q0,22.93,21.74,22.94a78.71,78.71,0,0,0,27.9-5.14Z" style="fill:#fff"/><path d="M2062.69,2648.89h16.44v50.68h41.77v-50.68h16.44v119.84H2120.9v-54.95h-41.77v54.95h-16.44Z" style="fill:#fff"/><path d="M2156.33,2648.89h16.44v119.84h-16.44Z" style="fill:#fff"/><path d="M2191.42,2648.89h14l45,82.52v-82.52h16.43v119.84h-14l-45-82.17v82.17h-16.44Z" style="fill:#fff"/><path d="M2351.14,2666a78.93,78.93,0,0,0-27.9-5.13q-21.75,0-21.74,22.93v50q0,22.93,20,23.28a53,53,0,0,0,16.95-2.57v-37.83h-21.06V2704h37.32v60.43a88.53,88.53,0,0,1-33.73,6.34q-17.28,0-26.53-8.73t-9.25-25.69v-55.29q0-16.95,9.59-25.6t26.71-8.64a74.42,74.42,0,0,1,29.61,5.65Z" style="fill:#fff"/><path d="M1980.05,278.86a771.28,771.28,0,0,0-449.41,143.78h0a771.22,771.22,0,0,0-449.4-143.78H841.76v138h0l.09,456.36c0,57.86,7.72,115.48,24.24,170.93a783.06,783.06,0,0,0,72.6,168.12c80.17,138.44,244.06,320.38,569.56,400.89l8.71,2.15h27.33l8.71-2.15c325.5-80.51,489.39-262.45,569.56-400.89a782.53,782.53,0,0,0,72.59-168.12c16.53-55.45,24.24-113.07,24.25-170.93l.08-456.36h0v-138Zm-921.28,863.91q-5.94-10.27-11.31-20.38c-45.43-85.55-66.84-181.83-66.86-278.7V698.76h0V416.83h100.72a633,633,0,0,1,340.94,99.32C1287.77,655.54,1205,845,1205,1054h0a642.81,642.81,0,0,0,86.35,322.59C1173,1304.36,1101.28,1216.19,1058.77,1142.77Zm471.87,305.44h0c-114.43-93.39-187.71-235.39-187.71-394.26,0-176.1,71.83-335.72,187.71-451.15h0c115.88,115.43,187.72,275.05,187.72,451.15C1718.36,1212.82,1645.08,1354.82,1530.64,1448.21Zm550.1-884.85v135.4h0V843.68c0,96.92-21.45,193.24-66.93,278.82q-5.34,10.05-11.24,20.27c-42.51,73.42-114.25,161.59-232.53,233.77A642.8,642.8,0,0,0,1856.33,1054h0c0-208.93-82.82-398.41-217.23-537.8h0a633.22,633.22,0,0,1,341-99.32h100.72Z" style="fill:#fff;fill-rule:evenodd"/><path d="M1481.62,905.36a62.32,62.32,0,0,1-85.33,85.33,124.61,124.61,0,1,0,85.33-85.33Z" style="fill:#fff;fill-rule:evenodd"/></svg>