<svg xmlns="http://www.w3.org/2000/svg" xmlns:xlink="http://www.w3.org/1999/xlink" width="130.038" height="51.444" viewBox="0 0 130.038 51.444">
  <defs>
    <linearGradient id="linear-gradient" x1="0.272" y1="0.001" x2="0.842" y2="0.86" gradientUnits="objectBoundingBox">
      <stop offset="0" stop-color="#0ca092"/>
      <stop offset="1" stop-color="#83c88a"/>
    </linearGradient>
    <linearGradient id="linear-gradient-2" x1="0.223" y1="0.162" x2="0.846" y2="0.922" xlink:href="#linear-gradient"/>
    <linearGradient id="linear-gradient-3" x1="0.188" y1="0.154" x2="0.889" y2="0.932" xlink:href="#linear-gradient"/>
    <linearGradient id="linear-gradient-4" x1="0.728" y1="-0.008" x2="0.295" y2="1.063" gradientUnits="objectBoundingBox">
      <stop offset="0" stop-color="#78ccd0"/>
      <stop offset="1" stop-color="#005aa9"/>
    </linearGradient>
    <linearGradient id="linear-gradient-5" x1="0" y1="0.5" x2="1" y2="0.5" xlink:href="#linear-gradient"/>
    <linearGradient id="linear-gradient-6" x1="0.247" y1="0.067" x2="1.028" y2="0.792" xlink:href="#linear-gradient-4"/>
  </defs>
  <g id="vreal" transform="translate(-3.926 0.002)">
    <g id="Group_2" data-name="Group 2" transform="translate(3.926 -0.002)">
      <path id="Path_1" data-name="Path 1" d="M54.56,35.452,47.086,22.505v0l-5.8-10.047a1.421,1.421,0,1,0-2.462,1.421L44.619,23.92l3.438,5.955.711,1.231a1.421,1.421,0,0,1-2.462,1.421l-.953-1.649-5.135-8.894A1.421,1.421,0,1,0,37.757,23.4l2.625,4.546a1.421,1.421,0,0,1-2.465,1.417L27.971,12.14a1.421,1.421,0,1,0-2.462,1.421L41.332,40.968v0L48.39,53.2a7.144,7.144,0,0,0,12.335,0l10.394-18C60.459,47.767,54.56,35.452,54.56,35.452Z" transform="translate(-25.318 -5.293)" fill="url(#linear-gradient)"/>
      <path id="Path_2" data-name="Path 2" d="M37.394,8.9a1.421,1.421,0,1,0,2.461-1.421L38.612,5.328A1.421,1.421,0,1,0,36.15,6.749Z" transform="translate(-26.372 -4.617)" fill="url(#linear-gradient-2)"/>
      <path id="Path_3" data-name="Path 3" d="M36.043,19.186a1.421,1.421,0,0,0,2.462-1.421l-2.484-4.3a1.421,1.421,0,1,0-2.461,1.421Z" transform="translate(-26.115 -5.423)" fill="url(#linear-gradient-3)"/>
      <path id="Path_4" data-name="Path 4" d="M77.567,15.719h0a7.127,7.127,0,0,0-9.708,2.6L57.777,35.784s5.9,12.317,16.561-.258l5.831-10.1a7.127,7.127,0,0,0-2.6-9.708Z" transform="translate(-28.534 -5.625)" fill="url(#linear-gradient-4)"/>
      <g id="Group_1" data-name="Group 1" transform="translate(29.242 28.585)">
        <path id="Path_5" data-name="Path 5" d="M63.89,40.861a9.91,9.91,0,0,1-5.2-4.516l-.909,1.574h0s5.9,12.317,16.561-.258C74.337,37.662,69.192,42.829,63.89,40.861Z" transform="translate(-57.776 -36.345)" fill="#1b2938" opacity="0.7"/>
      </g>
      <path id="Path_6" data-name="Path 6" d="M49.657,53.226l2.067,3.581a6.078,6.078,0,0,0,10.494,0l2.068-3.582s-2.935,4.743-7.237,4.87c-4.267.125-7.343-4.788-7.392-4.867Z" transform="translate(-27.729 -9.433)" fill="url(#linear-gradient-5)"/>
      <path id="Path_7" data-name="Path 7" d="M77.517,18.118a6.937,6.937,0,0,1,3.226,7.13,6.442,6.442,0,0,0-2.428-8.354h0a6.44,6.44,0,0,0-8.337,1.437A6.936,6.936,0,0,1,77.517,18.118Z" transform="translate(-29.742 -5.742)" fill="url(#linear-gradient-6)"/>
    </g>
    <g id="Group_5" data-name="Group 5" transform="translate(71.393 22.423)">
      <g id="Group_3" data-name="Group 3" transform="translate(0.004 0)">
        <path id="Path_8" data-name="Path 8" d="M25.99,82.668l-3.41-8.008h-2.8l4.836,11.21h2.562l4.851-11.208H29.448Z" transform="translate(-19.777 -74.66)"/>
        <path id="Path_9" data-name="Path 9" d="M53.595,81.2h5.2V79.179h-5.2V76.746h5.892V74.664H51.017V85.872h8.678V83.788h-6.1Z" transform="translate(-22.872 -74.662)"/>
        <path id="Path_10" data-name="Path 10" d="M68.078,74.664l-5,11.208h2.66l.993-2.4h5.2L67.565,81.5l1.777-4.291,2.593,6.26.993,2.4h2.725L70.64,74.664Z" transform="translate(-24.067 -74.662)"/>
        <path id="Path_11" data-name="Path 11" d="M82.7,83.758V74.664H80.108V85.872H88.32V83.758Z" transform="translate(-25.754 -74.662)"/>
        <path id="Path_12" data-name="Path 12" d="M45.9,78.731c0-2.514-1.874-4.067-4.867-4.067H36.179V85.872h2.593V76.778h2.113c1.585,0,2.385.721,2.385,1.953,0,1.217-.8,1.953-2.385,1.953H39.763l3.559,5.185h2.786l-2.514-3.6a3.644,3.644,0,0,0,2.3-3.536Z" transform="translate(-21.402 -74.662)"/>
      </g>
      <g id="Group_4" data-name="Group 4" transform="translate(0 14.115)">
        <path id="Path_13" data-name="Path 13" d="M21.44,92.979a.813.813,0,0,1-.2.069,1.623,1.623,0,0,1-.349.029,1.95,1.95,0,0,1-.425-.047.832.832,0,0,1-.539-.309.979.979,0,0,1-.15-.559v-.884a.828.828,0,0,1,.346-.764,1.567,1.567,0,0,1,.823-.176q.87,0,1.031.49a1.283,1.283,0,0,1,.054.4v.041l-.524.039V91.2a.411.411,0,0,0-.126-.35.772.772,0,0,0-.441-.092.9.9,0,0,0-.474.1.391.391,0,0,0-.158.359v1a.366.366,0,0,0,.163.354,1,1,0,0,0,.474.09.908.908,0,0,0,.461-.09.38.38,0,0,0,.148-.354v-.194h-.535v-.35h1.016v1.358h-.282l-.084-.3a.355.355,0,0,1-.089.146.59.59,0,0,1-.14.107Z" transform="translate(-19.77 -90.328)"/>
        <path id="Path_14" data-name="Path 14" d="M22.972,93.038v-.4h.483V90.787h-.483v-.4h1.492v.4h-.479V92.64h.479v.4Z" transform="translate(-20.09 -90.335)"/>
        <path id="Path_15" data-name="Path 15" d="M25.963,93.036l-.94-2.65h.57l.7,2.14.676-2.137h.57l-.933,2.65Z" transform="translate(-20.293 -90.333)"/>
        <path id="Path_16" data-name="Path 16" d="M28.213,93.038v-.4H28.7V90.787h-.483v-.4H29.7v.4h-.479V92.64H29.7v.4Z" transform="translate(-20.609 -90.335)"/>
        <path id="Path_17" data-name="Path 17" d="M30.562,93.036v-2.65h.4L32.338,92.2V90.386h.474v2.65h-.4l-1.37-1.786v1.786Z" transform="translate(-20.841 -90.333)"/>
        <path id="Path_18" data-name="Path 18" d="M35.418,92.979a.813.813,0,0,1-.2.069,1.623,1.623,0,0,1-.349.029,1.95,1.95,0,0,1-.425-.047.832.832,0,0,1-.539-.309.979.979,0,0,1-.15-.559v-.884a.828.828,0,0,1,.346-.764,1.567,1.567,0,0,1,.823-.176q.87,0,1.031.49a1.283,1.283,0,0,1,.054.4v.041l-.524.039V91.2a.411.411,0,0,0-.126-.35.772.772,0,0,0-.441-.092.9.9,0,0,0-.474.1.391.391,0,0,0-.158.359v1a.366.366,0,0,0,.163.354,1,1,0,0,0,.474.09.908.908,0,0,0,.461-.09.38.38,0,0,0,.148-.354v-.194H35v-.35h1.015v1.358h-.282l-.084-.3a.355.355,0,0,1-.089.146.586.586,0,0,1-.139.107Z" transform="translate(-21.155 -90.328)"/>
        <path id="Path_19" data-name="Path 19" d="M38.042,93.036v-2.65h.532v2.231h1.107v.416Z" transform="translate(-21.583 -90.333)"/>
        <path id="Path_20" data-name="Path 20" d="M40.311,93.038v-.4h.483V90.787h-.483v-.4H41.8v.4h-.478V92.64H41.8v.4Z" transform="translate(-21.807 -90.335)"/>
        <path id="Path_21" data-name="Path 21" d="M42.66,93.036v-2.65h1.6V90.8H43.193v.721h1V91.9h-1v1.137H42.66Z" transform="translate(-22.04 -90.333)"/>
        <path id="Path_22" data-name="Path 22" d="M45,93.036v-2.65h1.734v.4H45.528v.7H46.6v.384H45.528v.757h1.223v.4H45Z" transform="translate(-22.273 -90.333)"/>
        <path id="Path_23" data-name="Path 23" d="M49.035,93.04V90.8H48.3v-.4h2.006v.4h-.738v2.242Z" transform="translate(-22.599 -90.336)"/>
        <path id="Path_24" data-name="Path 24" d="M52.079,93.072a1.136,1.136,0,0,1-1.026-.387,1.006,1.006,0,0,1-.14-.558V91.3a.855.855,0,0,1,.346-.78,1.549,1.549,0,0,1,.827-.185,1.062,1.062,0,0,1,1,.413,1.126,1.126,0,0,1,.137.579V92.1a.89.89,0,0,1-.341.782A1.383,1.383,0,0,1,52.079,93.072Zm-.472-.522a.882.882,0,0,0,.476.1.8.8,0,0,0,.461-.1.421.421,0,0,0,.143-.365v-.96a.429.429,0,0,0-.145-.367.769.769,0,0,0-.456-.108.864.864,0,0,0-.474.107.408.408,0,0,0-.162.368v.96a.4.4,0,0,0,.157.365Z" transform="translate(-22.854 -90.323)"/>
        <path id="Path_25" data-name="Path 25" d="M55.736,93.038V92.021l-.913-1.63h.563l.621,1.107.619-1.107h.538l-.895,1.63v1.017Z" transform="translate(-23.245 -90.335)"/>
        <path id="Path_26" data-name="Path 26" d="M58.9,93.072a1.136,1.136,0,0,1-1.026-.387,1,1,0,0,1-.14-.558V91.3a.854.854,0,0,1,.346-.78,1.548,1.548,0,0,1,.827-.185,1.062,1.062,0,0,1,1,.413,1.122,1.122,0,0,1,.137.579V92.1a.89.89,0,0,1-.34.782,1.386,1.386,0,0,1-.8.194Zm-.472-.522a.883.883,0,0,0,.476.1.8.8,0,0,0,.461-.1.421.421,0,0,0,.143-.365v-.96a.429.429,0,0,0-.145-.367.769.769,0,0,0-.456-.108.864.864,0,0,0-.474.107.408.408,0,0,0-.162.368v.96a.4.4,0,0,0,.157.365Z" transform="translate(-23.53 -90.323)"/>
        <path id="Path_27" data-name="Path 27" d="M62.073,93.084a1.1,1.1,0,0,1-.979-.355.96.96,0,0,1-.131-.531V90.388H61.5v1.833a.391.391,0,0,0,.143.346.777.777,0,0,0,.435.1.709.709,0,0,0,.421-.1.411.411,0,0,0,.128-.346V90.388h.533v1.786a.818.818,0,0,1-.312.735A1.409,1.409,0,0,1,62.073,93.084Z" transform="translate(-23.852 -90.335)"/>
        <path id="Path_28" data-name="Path 28" d="M64.128,93.031v-2.65H65.27a.917.917,0,0,1,.7.208.815.815,0,0,1,.186.564,1,1,0,0,1-.1.519.583.583,0,0,1-.288.234l.511,1.123h-.55l-.464-1.046h-.6v1.046Zm.533-1.426h.654a.288.288,0,0,0,.259-.107.592.592,0,0,0,.071-.324q0-.413-.309-.413h-.676Z" transform="translate(-24.166 -90.328)"/>
        <path id="Path_29" data-name="Path 29" d="M68.11,93.034v-2.65h1.037a.916.916,0,0,1,.653.2.875.875,0,0,1,.21.655.94.94,0,0,1-.2.666.96.96,0,0,1-.713.213h-.453v.913Zm.533-1.3h.538a.288.288,0,0,0,.263-.111.716.716,0,0,0,.069-.363q0-.362-.16-.456a.322.322,0,0,0-.154-.038h-.556Z" transform="translate(-24.561 -90.33)"/>
        <path id="Path_30" data-name="Path 30" d="M70.77,93.031v-2.65h1.142a.917.917,0,0,1,.7.208.815.815,0,0,1,.186.564,1,1,0,0,1-.1.519.583.583,0,0,1-.288.234l.511,1.123h-.551L71.9,91.983h-.6v1.046Zm.533-1.426h.654a.288.288,0,0,0,.259-.107.592.592,0,0,0,.071-.324q0-.413-.309-.413H71.3v.843Z" transform="translate(-24.824 -90.328)"/>
        <path id="Path_31" data-name="Path 31" d="M74.827,93.072a1.136,1.136,0,0,1-1.026-.387,1,1,0,0,1-.14-.558V91.3a.854.854,0,0,1,.346-.78,1.548,1.548,0,0,1,.827-.185,1.062,1.062,0,0,1,1,.413,1.122,1.122,0,0,1,.137.579V92.1a.89.89,0,0,1-.34.782,1.386,1.386,0,0,1-.8.194Zm-.472-.522a.883.883,0,0,0,.476.1.8.8,0,0,0,.461-.1.421.421,0,0,0,.143-.365v-.96a.429.429,0,0,0-.145-.367.769.769,0,0,0-.456-.108.864.864,0,0,0-.474.107.408.408,0,0,0-.162.368v.96a.4.4,0,0,0,.157.365Z" transform="translate(-25.107 -90.323)"/>
        <path id="Path_32" data-name="Path 32" d="M78.162,92.875a1.045,1.045,0,0,1-.691.211,1.837,1.837,0,0,1-.789-.165l.124-.395a1.518,1.518,0,0,0,.305.1,1.448,1.448,0,0,0,.315.04.461.461,0,0,0,.346-.115.421.421,0,0,0,.109-.3V90.8h-.91v-.4h1.444v1.89a.727.727,0,0,1-.253.591Z" transform="translate(-25.409 -90.336)"/>
        <path id="Path_33" data-name="Path 33" d="M79.354,93.036v-2.65h1.735v.4h-1.2v.7h1.068v.384H79.885v.757h1.224v.4H79.354Z" transform="translate(-25.674 -90.333)"/>
        <path id="Path_34" data-name="Path 34" d="M83.025,93.08a2.432,2.432,0,0,1-.528-.047,1.045,1.045,0,0,1-.322-.124.588.588,0,0,1-.193-.2.77.77,0,0,1-.1-.248,1.6,1.6,0,0,1-.024-.3V91.28a.771.771,0,0,1,.7-.909,2.181,2.181,0,0,1,.4-.031q.82,0,.979.448a1.433,1.433,0,0,1,.072.481V91.3l-.522.061v-.134a.493.493,0,0,0-.109-.373.644.644,0,0,0-.415-.1.772.772,0,0,0-.442.1.419.419,0,0,0-.135.361v1a.391.391,0,0,0,.139.354.846.846,0,0,0,.442.089,1.477,1.477,0,0,0,.253-.017.341.341,0,0,0,.157-.069.262.262,0,0,0,.087-.138.918.918,0,0,0,.023-.23v-.085h.522v.048a1.061,1.061,0,0,1-.115.567.669.669,0,0,1-.332.258,1.548,1.548,0,0,1-.544.084Z" transform="translate(-25.914 -90.33)"/>
        <path id="Path_35" data-name="Path 35" d="M85.331,93.04V90.8h-.737v-.4H86.6v.4h-.735v2.242Z" transform="translate(-26.193 -90.336)"/>
        <path id="Path_36" data-name="Path 36" d="M88.129,93.08a2.264,2.264,0,0,1-.519-.065,1.822,1.822,0,0,1-.474-.176l.181-.391a1.735,1.735,0,0,0,.823.212.418.418,0,0,0,.3-.088.358.358,0,0,0,.088-.264.579.579,0,0,0-.007-.1q-.016-.162-.359-.264l-.452-.133a.839.839,0,0,1-.334-.173.586.586,0,0,1-.173-.249,1.006,1.006,0,0,1-.044-.317.625.625,0,0,1,.259-.547,1.119,1.119,0,0,1,.661-.183,1.743,1.743,0,0,1,.886.206l-.15.375a1.6,1.6,0,0,0-.691-.163q-.43,0-.443.264v.027a.3.3,0,0,0,.067.21.625.625,0,0,0,.275.138l.451.134a.758.758,0,0,1,.4.26.835.835,0,0,1,.132.5.791.791,0,0,1-.209.555.883.883,0,0,1-.675.227Z" transform="translate(-26.446 -90.33)"/>
      </g>
    </g>
  </g>
</svg>
