<svg  viewBox="0 0 135 54" fill="none" xmlns="http://www.w3.org/2000/svg">
<g clip-path="url(#clip0_281_546)">
<path fill-rule="evenodd" clip-rule="evenodd" d="M30.1627 31.1094L22.4528 17.7542V17.759L16.4712 7.39551C16.3749 7.22876 16.2467 7.08261 16.094 6.9654C15.9412 6.84819 15.7669 6.76222 15.5809 6.71238C15.3949 6.66255 15.201 6.64984 15.0101 6.67497C14.8192 6.7001 14.6351 6.76258 14.4684 6.85885C14.3016 6.95512 14.1555 7.08329 14.0383 7.23604C13.921 7.38879 13.8351 7.56313 13.7852 7.74911C13.7354 7.93508 13.7227 8.12906 13.7478 8.31995C13.7729 8.51084 13.8354 8.69491 13.9317 8.86165L19.9086 19.2132L23.4548 25.3559L24.1882 26.6254C24.2845 26.7921 24.3469 26.9762 24.3721 27.1671C24.3972 27.358 24.3845 27.5519 24.3346 27.7379C24.2848 27.9239 24.1988 28.0982 24.0816 28.251C23.9644 28.4037 23.8183 28.5319 23.6515 28.6282C23.4848 28.7244 23.3007 28.7869 23.1098 28.8121C22.9189 28.8372 22.725 28.8245 22.539 28.7746C22.353 28.7248 22.1787 28.6388 22.0259 28.5216C21.8732 28.4044 21.745 28.2583 21.6487 28.0915L20.6657 26.39L15.3693 17.2152C15.1749 16.8784 14.8547 16.6327 14.4791 16.5321C14.1035 16.4314 13.7033 16.4841 13.3665 16.6785C13.0298 16.8729 12.784 17.1932 12.6834 17.5688C12.5828 17.9444 12.6354 18.3446 12.8299 18.6813L15.5375 23.3704C15.7313 23.7075 15.7832 24.1078 15.6819 24.4833C15.5805 24.8587 15.3341 25.1785 14.997 25.3723C14.6598 25.5661 14.2595 25.618 13.8841 25.5166C13.5087 25.4153 13.1889 25.1689 12.9951 24.8318L2.73503 7.0621C2.63876 6.89536 2.51059 6.74921 2.35784 6.632C2.20509 6.51479 2.03075 6.42881 1.84477 6.37898C1.65879 6.32915 1.46482 6.31643 1.27393 6.34156C1.08304 6.36669 0.898969 6.42918 0.732226 6.52545C0.565483 6.62172 0.419334 6.74988 0.302124 6.90263C0.184913 7.05538 0.0989374 7.22973 0.0491043 7.4157C-0.000728815 7.60168 -0.0134424 7.79565 0.0116883 7.98654C0.0368189 8.17743 0.099302 8.36151 0.195571 8.52825L16.5175 36.7992V36.804L23.7983 49.4151C24.4478 50.5259 25.3768 51.4473 26.4929 52.0876C27.609 52.7279 28.8733 53.0648 30.16 53.0648C31.4468 53.0648 32.7111 52.7279 33.8272 52.0876C34.9433 51.4473 35.8723 50.5259 36.5218 49.4151L47.2436 30.8443C36.2478 43.812 30.1627 31.1094 30.1627 31.1094Z" fill="white"/>
<path fill-rule="evenodd" clip-rule="evenodd" d="M11.3684 4.42042C11.4627 4.5909 11.5901 4.74087 11.743 4.86157C11.8959 4.98228 12.0713 5.0713 12.259 5.12344C12.4467 5.17557 12.6429 5.18978 12.8362 5.16522C13.0295 5.14067 13.2159 5.07784 13.3846 4.98042C13.5533 4.883 13.7009 4.75293 13.8188 4.59782C13.9366 4.4427 14.0224 4.26566 14.0711 4.07702C14.1197 3.88838 14.1303 3.69194 14.1022 3.49917C14.0741 3.30639 14.0078 3.12116 13.9073 2.95428L12.6248 0.73218C12.5285 0.565437 12.4004 0.419289 12.2476 0.302078C12.0949 0.184868 11.9205 0.098892 11.7345 0.0490589C11.5486 -0.000774175 11.3546 -0.0134883 11.1637 0.0116423C10.9728 0.036773 10.7887 0.0992564 10.622 0.195525C10.2852 0.389948 10.0395 0.710182 9.93888 1.08578C9.83824 1.46138 9.89092 1.86157 10.0853 2.19833L11.3684 4.42042Z" fill="white"/>
<path fill-rule="evenodd" clip-rule="evenodd" d="M10.2398 14.1955C10.3361 14.3623 10.4642 14.5084 10.617 14.6256C10.7697 14.7428 10.9441 14.8288 11.1301 14.8786C11.316 14.9285 11.51 14.9412 11.7009 14.9161C11.8918 14.8909 12.0759 14.8284 12.2426 14.7322C12.4094 14.6359 12.5555 14.5077 12.6727 14.355C12.7899 14.2022 12.8759 14.0279 12.9257 13.8419C12.9756 13.6559 12.9883 13.462 12.9631 13.2711C12.938 13.0802 12.8755 12.8961 12.7793 12.7294L10.2166 8.29112C10.1223 8.12065 9.99501 7.97068 9.8421 7.84997C9.68919 7.72927 9.51375 7.64025 9.32605 7.58811C9.13834 7.53597 8.94212 7.52177 8.74887 7.54632C8.55561 7.57088 8.36918 7.6337 8.20048 7.73113C8.03177 7.82855 7.88418 7.95862 7.76631 8.11373C7.64845 8.26884 7.56268 8.44589 7.51401 8.63453C7.46535 8.82316 7.45476 9.01961 7.48288 9.21238C7.511 9.40515 7.57725 9.59039 7.67777 9.75727L10.2398 14.1955Z" fill="white"/>
<path fill-rule="evenodd" clip-rule="evenodd" d="M50.5781 10.4116C48.893 9.44523 46.894 9.185 45.0177 9.68777C43.1414 10.1905 41.5402 11.4154 40.5641 13.0949L30.1638 31.1094C30.1638 31.1094 36.2489 43.815 47.2471 30.8437L53.262 20.4256C54.2283 18.7404 54.4885 16.7414 53.9856 14.865C53.4827 12.9887 52.2577 11.3876 50.5781 10.4116Z" fill="white"/>
<path opacity="0.7" fill-rule="evenodd" clip-rule="evenodd" d="M36.4695 34.1427C34.1802 33.2822 32.2753 31.6295 31.1005 29.4846L30.1627 31.1082C30.1627 31.1082 36.2478 43.8138 47.246 30.8425C47.246 30.8431 41.9388 36.1734 36.4695 34.1427Z" fill="white"/>
<path style="mix-blend-mode:screen" fill-rule="evenodd" clip-rule="evenodd" d="M22.618 45.1724L24.7504 48.866C25.303 49.8109 26.0934 50.5947 27.0429 51.1394C27.9925 51.6841 29.0681 51.9707 30.1627 51.9707C31.2574 51.9707 32.333 51.6841 33.2825 51.1394C34.232 50.5947 35.0224 49.8109 35.575 48.866L37.7086 45.1706C37.7086 45.1706 34.6812 50.0635 30.2435 50.1936C25.8415 50.3226 22.6692 45.255 22.618 45.173V45.1724Z" fill="white"/>
<path style="mix-blend-mode:screen" d="M49.2802 12.765C50.5107 13.5136 51.4865 14.6161 52.0803 15.9282C52.6741 17.2403 52.8581 18.7011 52.6083 20.1195C53.3434 18.63 53.494 16.9191 53.0303 15.3241C52.5667 13.7291 51.5224 12.3655 50.1034 11.5021C48.7325 10.6695 47.1066 10.361 45.526 10.6335C43.9453 10.906 42.5167 11.7413 41.5038 12.9849C42.6407 12.202 43.9797 11.7647 45.3595 11.7257C46.7393 11.6867 48.101 12.0476 49.2802 12.765Z" fill="url(#paint0_linear_281_546)"/>
<path d="M76.0055 31.3911L72.4879 23.1303H69.5972L74.5852 34.6936H77.2274L82.2315 23.1327H79.5725L76.0055 31.3911Z" fill="white"/>
<path d="M101.288 29.8697H106.656V27.7896H101.288V25.2799H107.366V23.1327H98.6294V34.6936H107.581V32.544H101.288V29.8697Z" fill="white"/>
<path d="M114.995 23.1327L109.843 34.6936H112.587L113.611 32.216H118.975L114.466 30.1847L116.3 25.7583L118.974 32.216L119.998 34.6936H122.809L117.638 23.1327H114.995Z" fill="white"/>
<path d="M128.339 32.5137V23.1327H125.665V34.6936H134.136V32.5137H128.339Z" fill="white"/>
<path d="M94.8644 27.3278C94.8644 24.7349 92.9318 23.1327 89.8438 23.1327H84.8397V34.6936H87.5141V25.3131H89.694C91.3289 25.3131 92.1544 26.0566 92.1544 27.3278C92.1544 28.583 91.3289 29.3425 89.694 29.3425H88.5369L92.2079 34.6912H95.0813L92.4884 30.9751C93.2139 30.6888 93.8323 30.1839 94.2581 29.5304C94.6838 28.8769 94.8957 28.1071 94.8644 27.3278Z" fill="white"/>
<path d="M71.3152 40.4251C71.2489 40.4578 71.1786 40.4816 71.106 40.4959C70.9876 40.5189 70.8671 40.5291 70.7465 40.5262C70.599 40.5263 70.4519 40.5101 70.3079 40.478C70.0884 40.4474 69.8893 40.333 69.7522 40.1589C69.6438 39.9867 69.59 39.7858 69.5977 39.5824V38.6708C69.5816 38.5196 69.6062 38.3668 69.6688 38.2283C69.7315 38.0897 69.8301 37.9704 69.9543 37.8827C70.2155 37.746 70.5092 37.6833 70.8035 37.7015C71.4018 37.7015 71.7564 37.8698 71.8673 38.2066C71.9072 38.3391 71.9261 38.4771 71.9232 38.6155V38.6583L71.383 38.6987V38.5893C71.3913 38.5232 71.3839 38.456 71.3614 38.3932C71.3389 38.3304 71.3019 38.2738 71.2534 38.228C71.1147 38.1518 70.9564 38.1187 70.7988 38.1329C70.6295 38.1219 70.4605 38.1576 70.3103 38.2363C70.2528 38.2782 70.2075 38.3345 70.1788 38.3995C70.1501 38.4645 70.1391 38.5359 70.1468 38.6066V39.6383C70.1377 39.7088 70.1487 39.7804 70.1784 39.8449C70.2082 39.9095 70.2555 39.9643 70.315 40.0032C70.4679 40.0734 70.6356 40.1052 70.8035 40.0959C70.9674 40.1072 71.1314 40.0752 71.279 40.0032C71.3345 39.9614 71.378 39.9056 71.4048 39.8414C71.4316 39.7773 71.4409 39.7072 71.4317 39.6383V39.4386H70.8802V39.0779H71.9286V40.4786H71.6379L71.5512 40.1642C71.5334 40.2213 71.502 40.2731 71.4597 40.3152C71.4173 40.3589 71.3686 40.3959 71.3152 40.4251Z" fill="white"/>
<path d="M72.5663 40.4792V40.0685H73.0643V38.1572H72.5663V37.7484H74.1055V38.1572H73.6117V40.0685H74.1055V40.4792H72.5663Z" fill="white"/>
<path d="M75.4415 40.4792L74.4722 37.7454H75.0605L75.782 39.9526L76.4791 37.7484H77.0675L76.1053 40.4821L75.4415 40.4792Z" fill="white"/>
<path d="M77.4365 40.4792V40.0685H77.9345V38.1572H77.4365V37.7484H78.974V38.1572H78.4801V40.0685H78.974V40.4792H77.4365Z" fill="white"/>
<path d="M79.62 40.4792V37.7454H80.0324L81.4516 39.6174V37.7454H81.9401V40.4792H81.5277L80.1145 38.6368V40.4792H79.62Z" fill="white"/>
<path d="M84.3055 40.4251C84.2392 40.4578 84.1688 40.4816 84.0963 40.4958C83.9779 40.5188 83.8573 40.529 83.7367 40.5261C83.5892 40.5262 83.4421 40.5101 83.2981 40.478C83.0786 40.4473 82.8795 40.333 82.7425 40.1588C82.6341 39.9866 82.5802 39.7857 82.5879 39.5824V38.6707C82.5718 38.5195 82.5964 38.3667 82.6591 38.2282C82.7218 38.0897 82.8203 37.9704 82.9445 37.8827C83.2058 37.7459 83.4995 37.6832 83.7938 37.7014C84.392 37.7014 84.7466 37.8698 84.8576 38.2066C84.8975 38.3391 84.9163 38.4771 84.9134 38.6154V38.6582L84.3732 38.6986V38.5893C84.3815 38.5231 84.3741 38.4559 84.3516 38.3931C84.3291 38.3304 84.2921 38.2738 84.2437 38.228C84.1049 38.1518 83.9467 38.1187 83.789 38.1329C83.6198 38.1218 83.4508 38.1576 83.3005 38.2363C83.2431 38.2781 83.1977 38.3344 83.169 38.3994C83.1403 38.4644 83.1293 38.5359 83.1371 38.6065V39.6382C83.128 39.7087 83.1389 39.7803 83.1687 39.8449C83.1984 39.9094 83.2458 39.9643 83.3053 40.0031C83.4581 40.0733 83.6258 40.1051 83.7938 40.0958C83.9576 40.1072 84.1216 40.0752 84.2692 40.0031C84.3248 39.9613 84.3682 39.9055 84.395 39.8414C84.4219 39.7773 84.4312 39.7071 84.422 39.6382V39.4385H83.8704V39.0778H84.9176V40.4786H84.627L84.5402 40.1642C84.5225 40.2212 84.491 40.273 84.4487 40.3151C84.4067 40.3588 84.3584 40.3958 84.3055 40.4251Z" fill="white"/>
<path d="M86.571 40.4792V37.7454H87.1202V40.0471H88.2618V40.4762L86.571 40.4792Z" fill="white"/>
<path d="M88.6802 40.4792V40.0685H89.1782V38.1572H88.6802V37.7484H90.2188V38.1572H89.7256V40.0685H90.2188V40.4792H88.6802Z" fill="white"/>
<path d="M90.863 40.4792V37.7454H92.5152V38.1697H91.4128V38.9138H92.4397V39.3078H91.4128V40.481H90.863V40.4792Z" fill="white"/>
<path d="M93.0364 40.4792V37.7454H94.8252V38.1614H93.5813V38.8864H94.6826V39.2828H93.5813V40.0638H94.843V40.4798H93.0364V40.4792Z" fill="white"/>
<path d="M96.862 40.4792V38.1661H96.1036V37.7501H98.1724V38.1661H97.4111V40.4786L96.862 40.4792Z" fill="white"/>
<path d="M99.739 40.5267C99.5432 40.5549 99.3435 40.533 99.1584 40.4632C98.9733 40.3934 98.8089 40.2778 98.6806 40.1273C98.5775 39.9537 98.5273 39.7538 98.5361 39.5521V38.6969C98.5199 38.5433 98.5443 38.3881 98.6069 38.2469C98.6694 38.1056 98.768 37.9833 98.8927 37.8922C99.1537 37.7506 99.4491 37.6845 99.7455 37.7014C99.9394 37.674 100.137 37.699 100.318 37.7738C100.499 37.8486 100.656 37.9706 100.774 38.1269C100.874 38.3098 100.923 38.5161 100.915 38.7242V39.5194C100.929 39.6726 100.904 39.8268 100.842 39.9678C100.781 40.1088 100.685 40.2322 100.563 40.3264C100.315 40.4753 100.028 40.5451 99.739 40.5267ZM99.2523 39.9883C99.4027 40.0696 99.5731 40.1069 99.7438 40.0959C99.9094 40.1093 100.075 40.0722 100.219 39.9895C100.272 39.9434 100.314 39.8851 100.339 39.8196C100.365 39.754 100.374 39.6832 100.367 39.6133V38.6226C100.374 38.5521 100.364 38.4809 100.338 38.415C100.312 38.3491 100.27 38.2905 100.217 38.244C100.075 38.1586 99.9108 38.1196 99.7461 38.1323C99.5761 38.1217 99.4066 38.16 99.2576 38.2428C99.1994 38.2862 99.1533 38.3439 99.124 38.4104C99.0946 38.4768 99.0829 38.5497 99.09 38.622V39.6121C99.0823 39.6835 99.0932 39.7556 99.1216 39.8215C99.1501 39.8875 99.1951 39.9449 99.2523 39.9883Z" fill="white"/>
<path d="M103.108 40.4792V39.4302L102.167 37.7484H102.747L103.387 38.89L104.026 37.7484H104.581L103.658 39.4302V40.4792H103.108Z" fill="white"/>
<path d="M106.078 40.5267C105.882 40.5549 105.682 40.5331 105.497 40.4633C105.312 40.3935 105.148 40.2779 105.019 40.1274C104.916 39.9538 104.866 39.7538 104.875 39.5521V38.6969C104.859 38.5433 104.883 38.3881 104.946 38.2468C105.008 38.1056 105.107 37.9833 105.231 37.8922C105.493 37.7505 105.788 37.6845 106.084 37.7014C106.278 37.674 106.476 37.699 106.657 37.7738C106.838 37.8486 106.995 37.9706 107.113 38.1269C107.213 38.3097 107.262 38.5161 107.254 38.7242V39.5194C107.268 39.6726 107.243 39.8267 107.181 39.9677C107.12 40.1088 107.024 40.2321 106.903 40.3264C106.654 40.4752 106.367 40.545 106.078 40.5267ZM105.591 39.9883C105.742 40.0696 105.912 40.1068 106.083 40.0959C106.248 40.1093 106.414 40.0722 106.558 39.9895C106.611 39.9434 106.652 39.8851 106.678 39.8196C106.704 39.754 106.713 39.6832 106.705 39.6133V38.6226C106.713 38.5521 106.703 38.4809 106.677 38.4151C106.651 38.3492 106.609 38.2905 106.556 38.244C106.414 38.1586 106.25 38.1196 106.085 38.1323C105.915 38.1217 105.745 38.16 105.596 38.2428C105.538 38.2862 105.492 38.3439 105.463 38.4104C105.433 38.4768 105.422 38.5497 105.429 38.622V39.6121C105.421 39.6835 105.432 39.7556 105.46 39.8215C105.489 39.8875 105.534 39.9449 105.591 39.9883Z" fill="white"/>
<path d="M109.02 40.5267C108.834 40.5544 108.645 40.5355 108.468 40.4716C108.292 40.4076 108.134 40.3008 108.009 40.1606C107.912 39.9951 107.865 39.8049 107.874 39.6133V37.7454H108.424V39.6365C108.417 39.7035 108.427 39.7712 108.452 39.8335C108.478 39.8958 108.519 39.9506 108.572 39.993C108.708 40.0698 108.864 40.105 109.02 40.0941C109.172 40.1065 109.323 40.0714 109.454 39.9936C109.502 39.9486 109.539 39.8929 109.562 39.831C109.585 39.7691 109.593 39.7027 109.586 39.637V37.7454H110.136V39.5877C110.151 39.7311 110.13 39.876 110.074 40.0088C110.018 40.1416 109.928 40.2577 109.814 40.3461C109.572 40.4808 109.296 40.5435 109.02 40.5267Z" fill="white"/>
<path d="M110.814 40.4792V37.7454H111.993C112.121 37.73 112.251 37.7411 112.375 37.778C112.499 37.8149 112.614 37.8768 112.713 37.9599C112.848 38.1228 112.917 38.3306 112.905 38.5417C112.918 38.7263 112.882 38.9111 112.799 39.0766C112.729 39.1873 112.624 39.272 112.502 39.3179L113.029 40.4762H112.462L111.983 39.3975H111.365V40.4762L110.814 40.4792ZM111.364 39.0083H112.039C112.09 39.0142 112.141 39.0073 112.187 38.988C112.234 38.9688 112.275 38.9379 112.307 38.8983C112.362 38.7962 112.388 38.6804 112.38 38.5643C112.38 38.2803 112.274 38.1384 112.061 38.1388H111.364V39.0083Z" fill="white"/>
<path d="M114.515 40.4792V37.7454H115.585C115.828 37.7251 116.069 37.7994 116.258 37.9528C116.338 38.045 116.398 38.1523 116.436 38.2685C116.473 38.3846 116.486 38.5071 116.475 38.6285C116.496 38.8757 116.421 39.1215 116.267 39.3155C116.165 39.3992 116.047 39.4617 115.921 39.4993C115.794 39.537 115.662 39.5491 115.531 39.5348H115.063V40.4762L114.515 40.4792ZM115.065 39.136H115.62C115.671 39.1422 115.723 39.1349 115.771 39.1149C115.818 39.0949 115.86 39.0628 115.891 39.0219C115.947 38.9055 115.972 38.7764 115.962 38.6475C115.962 38.3983 115.907 38.2416 115.798 38.1774C115.749 38.1512 115.694 38.1377 115.638 38.1382H115.065V39.136Z" fill="white"/>
<path d="M116.987 40.4792V37.7454H118.165C118.294 37.73 118.424 37.7411 118.548 37.778C118.672 37.8149 118.787 37.8768 118.886 37.9599C119.021 38.1228 119.089 38.3306 119.078 38.5417C119.091 38.7264 119.054 38.9111 118.971 39.0766C118.901 39.1873 118.797 39.272 118.674 39.3179L119.201 40.4762H118.633L118.154 39.3975H117.536V40.4762L116.987 40.4792ZM117.537 39.0083H118.211C118.261 39.0142 118.312 39.0073 118.359 38.988C118.406 38.9688 118.447 38.9379 118.479 38.8983C118.534 38.7962 118.56 38.6804 118.552 38.5643C118.552 38.2803 118.445 38.1384 118.233 38.1388H117.536V39.0083H117.537Z" fill="white"/>
<path d="M120.88 40.5267C120.684 40.5549 120.484 40.5331 120.299 40.4633C120.114 40.3934 119.949 40.2779 119.821 40.1273C119.718 39.9537 119.668 39.7538 119.677 39.5521V38.6969C119.66 38.5432 119.685 38.3881 119.747 38.2468C119.81 38.1056 119.909 37.9833 120.033 37.8922C120.294 37.7505 120.59 37.6845 120.886 37.7014C121.08 37.6739 121.278 37.6989 121.459 37.7737C121.639 37.8486 121.797 37.9705 121.915 38.1269C122.015 38.3097 122.063 38.5161 122.056 38.7242V39.5194C122.069 39.6726 122.044 39.8267 121.983 39.9677C121.922 40.1088 121.826 40.2321 121.704 40.3264C121.456 40.4752 121.168 40.545 120.88 40.5267ZM120.393 39.9883C120.543 40.0696 120.714 40.1069 120.884 40.0959C121.05 40.1093 121.216 40.0722 121.36 39.9895C121.413 39.9434 121.454 39.8851 121.48 39.8196C121.506 39.754 121.515 39.6832 121.507 39.6133V38.6226C121.514 38.5521 121.504 38.4809 121.478 38.415C121.452 38.3491 121.411 38.2905 121.357 38.244C121.216 38.1586 121.051 38.1196 120.887 38.1323C120.717 38.1217 120.547 38.16 120.398 38.2428C120.34 38.2862 120.294 38.3439 120.265 38.4104C120.235 38.4768 120.223 38.5497 120.231 38.622V39.6121C120.223 39.6835 120.234 39.7556 120.262 39.8215C120.291 39.8875 120.336 39.9449 120.393 39.9883Z" fill="white"/>
<path d="M124.009 40.3092C123.804 40.4643 123.551 40.5414 123.295 40.5267C123.015 40.531 122.737 40.473 122.481 40.3567L122.609 39.9496C122.71 39.9952 122.816 40.0298 122.924 40.0531C123.03 40.0786 123.14 40.0924 123.249 40.0941C123.313 40.0995 123.378 40.0918 123.44 40.0714C123.501 40.0509 123.557 40.0182 123.606 39.9752C123.683 39.8904 123.724 39.7784 123.719 39.6638V38.1661H122.78V37.7501H124.269V39.7C124.276 39.8148 124.255 39.9294 124.21 40.035C124.165 40.1406 124.096 40.2344 124.009 40.3092Z" fill="white"/>
<path d="M124.965 40.4792V37.7454H126.754V38.1614H125.513V38.8864H126.614V39.2828H125.513V40.0638H126.775V40.4798H124.965V40.4792Z" fill="white"/>
<path d="M128.504 40.5267C128.321 40.5306 128.138 40.5144 127.959 40.4786C127.842 40.4547 127.73 40.4115 127.627 40.3508C127.545 40.2995 127.477 40.2294 127.428 40.1464C127.38 40.0674 127.347 39.9807 127.329 39.8902C127.311 39.7888 127.303 39.6859 127.304 39.583V38.6707C127.284 38.5608 127.287 38.4479 127.313 38.3393C127.339 38.2307 127.388 38.1288 127.456 38.0403C127.524 37.9518 127.611 37.8787 127.709 37.8257C127.807 37.7728 127.916 37.7411 128.027 37.7329C128.165 37.7095 128.304 37.699 128.443 37.7014C129.007 37.7014 129.344 37.8555 129.454 38.1638C129.506 38.3237 129.532 38.4916 129.528 38.66V38.6933L128.989 38.7563V38.6178C128.998 38.5494 128.992 38.4799 128.973 38.4137C128.954 38.3475 128.921 38.2859 128.877 38.2327C128.75 38.1519 128.599 38.1167 128.449 38.1329C128.29 38.1201 128.131 38.1553 127.993 38.2339C127.941 38.2803 127.902 38.3383 127.877 38.4032C127.853 38.468 127.845 38.5378 127.853 38.6065V39.6382C127.844 39.7063 127.852 39.7756 127.877 39.8396C127.902 39.9036 127.943 39.9601 127.996 40.0037C128.137 40.0749 128.295 40.1065 128.452 40.0953C128.539 40.0968 128.627 40.0908 128.713 40.0774C128.772 40.068 128.828 40.0436 128.875 40.0067C128.919 39.9699 128.95 39.92 128.964 39.8641C128.982 39.7861 128.99 39.7063 128.988 39.6263V39.539H129.527V39.5889C129.542 39.7913 129.501 39.994 129.408 40.1743C129.325 40.2974 129.205 40.3905 129.065 40.4399C128.885 40.5021 128.695 40.5315 128.504 40.5267Z" fill="white"/>
<path d="M130.595 40.4792V38.1661H129.834V37.7501H131.903V38.1661H131.146V40.4786L130.595 40.4792Z" fill="white"/>
<path d="M133.22 40.5267C133.04 40.5253 132.86 40.5029 132.685 40.4602C132.515 40.4227 132.35 40.3617 132.197 40.2789L132.384 39.876C132.645 40.0182 132.936 40.0933 133.233 40.0947C133.345 40.1059 133.456 40.0733 133.544 40.0037C133.577 39.9667 133.601 39.9236 133.617 39.8768C133.633 39.8301 133.639 39.7807 133.635 39.7315C133.635 39.7084 133.635 39.6721 133.627 39.6264C133.616 39.515 133.493 39.4243 133.257 39.3542L132.791 39.2175C132.664 39.1848 132.547 39.1239 132.447 39.0392C132.366 38.9706 132.304 38.8818 132.269 38.7818C132.236 38.676 132.221 38.5657 132.223 38.455C132.216 38.3459 132.237 38.2369 132.284 38.1381C132.33 38.0394 132.402 37.9541 132.49 37.8904C132.692 37.7578 132.931 37.692 133.172 37.702C133.49 37.6907 133.806 37.7642 134.086 37.9148L133.931 38.3016C133.709 38.1929 133.465 38.1354 133.218 38.1335C132.922 38.1335 132.769 38.2242 132.761 38.4057V38.4336C132.756 38.5118 132.781 38.589 132.83 38.6499C132.912 38.7204 133.009 38.7695 133.114 38.7925L133.579 38.931C133.743 38.9731 133.889 39.0674 133.995 39.1996C134.095 39.3542 134.143 39.5366 134.131 39.7203C134.136 39.9317 134.059 40.1369 133.916 40.2926C133.823 40.3777 133.713 40.4426 133.593 40.4829C133.473 40.5232 133.346 40.5381 133.22 40.5267Z" fill="white"/>
</g>
<defs>
<linearGradient id="paint0_linear_281_546" x1="44.4161" y1="11.1789" x2="51.855" y2="19.6756" gradientUnits="userSpaceOnUse">
<stop stop-color="#78CCD0"/>
<stop offset="1" stop-color="#005AA9"/>
</linearGradient>
<clipPath id="clip0_281_546">
<rect width="134.137" height="53.0659" fill="white"/>
</clipPath>
</defs>
</svg>
